<mxfile host="65bd71144e">
    <diagram name="fb_on_links" id="0eeWLhEhAbjt74QTUGkZ">
        <mxGraphModel dx="2029" dy="1762" grid="1" gridSize="10" guides="1" tooltips="1" connect="1" arrows="1" fold="1" page="1" pageScale="1" pageWidth="827" pageHeight="1169" math="0" shadow="0">
            <root>
                <mxCell id="0"/>
                <mxCell id="1" parent="0"/>
                <mxCell id="EA9z76p3zM__a-H7yWGD-37" value="&lt;font style=&quot;font-size: 32px;&quot;&gt;&lt;b&gt;Models and ports&lt;br&gt;&lt;/b&gt;&lt;/font&gt;" style="text;html=1;strokeColor=none;fillColor=none;align=center;verticalAlign=middle;whiteSpace=wrap;rounded=0;" parent="1" vertex="1">
                    <mxGeometry x="950" y="-200" width="380" height="120" as="geometry"/>
                </mxCell>
                <mxCell id="EA9z76p3zM__a-H7yWGD-39" value="&lt;font style=&quot;font-size: 32px;&quot;&gt;&lt;b style=&quot;border-color: var(--border-color); font-size: 12px;&quot;&gt;&lt;font style=&quot;border-color: var(--border-color); font-size: 24px;&quot;&gt;Data visualization&lt;/font&gt;&lt;/b&gt;&lt;b style=&quot;border-color: var(--border-color); font-size: 12px;&quot;&gt;&lt;font style=&quot;border-color: var(--border-color); font-size: 24px;&quot;&gt;&amp;nbsp;option 1&lt;/font&gt;&lt;/b&gt;&lt;b&gt;&lt;br&gt;&lt;/b&gt;&lt;/font&gt;" style="text;html=1;strokeColor=none;fillColor=none;align=center;verticalAlign=middle;whiteSpace=wrap;rounded=0;" parent="1" vertex="1">
                    <mxGeometry x="640" y="420" width="430" height="120" as="geometry"/>
                </mxCell>
                <mxCell id="aWoHtGz9jkfwQIE-XJvv-16" value="" style="endArrow=classic;html=1;rounded=0;exitX=0.5;exitY=0;exitDx=0;exitDy=0;" parent="1" source="io5GCxzzSzc3zPwwghzN-176" edge="1">
                    <mxGeometry width="50" height="50" relative="1" as="geometry">
                        <mxPoint x="477" y="760" as="sourcePoint"/>
                        <mxPoint x="650" y="670" as="targetPoint"/>
                    </mxGeometry>
                </mxCell>
                <mxCell id="aWoHtGz9jkfwQIE-XJvv-19" value="" style="endArrow=classic;html=1;rounded=0;exitX=0.25;exitY=0;exitDx=0;exitDy=0;" parent="1" source="io5GCxzzSzc3zPwwghzN-185" edge="1">
                    <mxGeometry width="50" height="50" relative="1" as="geometry">
                        <mxPoint x="829" y="860" as="sourcePoint"/>
                        <mxPoint x="960" y="660" as="targetPoint"/>
                    </mxGeometry>
                </mxCell>
                <mxCell id="NOyrXH803vbqr8Ms16Gm-10" value="LinearConstraints3Variables : Model" style="swimlane;fontStyle=0;childLayout=stackLayout;horizontal=1;startSize=30;horizontalStack=0;resizeParent=1;resizeParentMax=0;resizeLast=0;collapsible=1;marginBottom=0;whiteSpace=wrap;html=1;fillColor=#CCFFCC;" parent="1" vertex="1">
                    <mxGeometry x="1131" y="-80" width="220" height="240" as="geometry"/>
                </mxCell>
                <mxCell id="3" value="x_1, x_2, x_3 : Variable" style="text;strokeColor=none;fillColor=none;align=left;verticalAlign=middle;spacingLeft=4;spacingRight=4;overflow=hidden;points=[[0,0.5],[1,0.5]];portConstraint=eastwest;rotatable=0;whiteSpace=wrap;html=1;" parent="NOyrXH803vbqr8Ms16Gm-10" vertex="1">
                    <mxGeometry y="30" width="220" height="30" as="geometry"/>
                </mxCell>
                <mxCell id="NOyrXH803vbqr8Ms16Gm-11" value="a_1, a_2, a_3, b : Parameter" style="text;strokeColor=none;fillColor=none;align=left;verticalAlign=middle;spacingLeft=4;spacingRight=4;overflow=hidden;points=[[0,0.5],[1,0.5]];portConstraint=eastwest;rotatable=0;whiteSpace=wrap;html=1;" parent="NOyrXH803vbqr8Ms16Gm-10" vertex="1">
                    <mxGeometry y="60" width="220" height="30" as="geometry"/>
                </mxCell>
                <mxCell id="6" value="a_1*x_1 + a_2*x_2 + a_3*x_3 &amp;lt;= b" style="text;strokeColor=none;fillColor=none;align=left;verticalAlign=middle;spacingLeft=4;spacingRight=4;overflow=hidden;points=[[0,0.5],[1,0.5]];portConstraint=eastwest;rotatable=0;whiteSpace=wrap;html=1;" parent="NOyrXH803vbqr8Ms16Gm-10" vertex="1">
                    <mxGeometry y="90" width="220" height="30" as="geometry"/>
                </mxCell>
                <mxCell id="NOyrXH803vbqr8Ms16Gm-25" value="f_1, f_2, f_3 : Flow" style="text;strokeColor=none;fillColor=none;align=left;verticalAlign=middle;spacingLeft=4;spacingRight=4;overflow=hidden;points=[[0,0.5],[1,0.5]];portConstraint=eastwest;rotatable=0;whiteSpace=wrap;html=1;" parent="NOyrXH803vbqr8Ms16Gm-10" vertex="1">
                    <mxGeometry y="120" width="220" height="30" as="geometry"/>
                </mxCell>
                <mxCell id="NOyrXH803vbqr8Ms16Gm-18" value="f_1.f.sum() = x_1" style="text;strokeColor=none;fillColor=none;align=left;verticalAlign=middle;spacingLeft=4;spacingRight=4;overflow=hidden;points=[[0,0.5],[1,0.5]];portConstraint=eastwest;rotatable=0;whiteSpace=wrap;html=1;" parent="NOyrXH803vbqr8Ms16Gm-10" vertex="1">
                    <mxGeometry y="150" width="220" height="30" as="geometry"/>
                </mxCell>
                <mxCell id="5" value="f_3.f.sum() = x_3" style="text;strokeColor=none;fillColor=none;align=left;verticalAlign=middle;spacingLeft=4;spacingRight=4;overflow=hidden;points=[[0,0.5],[1,0.5]];portConstraint=eastwest;rotatable=0;whiteSpace=wrap;html=1;" parent="NOyrXH803vbqr8Ms16Gm-10" vertex="1">
                    <mxGeometry y="180" width="220" height="30" as="geometry"/>
                </mxCell>
                <mxCell id="4" value="f_2.f.sum() = x_2" style="text;strokeColor=none;fillColor=none;align=left;verticalAlign=middle;spacingLeft=4;spacingRight=4;overflow=hidden;points=[[0,0.5],[1,0.5]];portConstraint=eastwest;rotatable=0;whiteSpace=wrap;html=1;" parent="NOyrXH803vbqr8Ms16Gm-10" vertex="1">
                    <mxGeometry y="210" width="220" height="30" as="geometry"/>
                </mxCell>
                <mxCell id="NOyrXH803vbqr8Ms16Gm-46" value="&lt;font style=&quot;&quot;&gt;&lt;b style=&quot;&quot;&gt;&lt;font style=&quot;font-size: 14px;&quot;&gt;Option 1&lt;/font&gt;&lt;br&gt;&lt;/b&gt;&lt;/font&gt;" style="text;html=1;strokeColor=none;fillColor=none;align=center;verticalAlign=middle;whiteSpace=wrap;rounded=0;" parent="1" vertex="1">
                    <mxGeometry x="1131" y="-120" width="220" height="40" as="geometry"/>
                </mxCell>
                <mxCell id="8" value="FlowBased3Links : Model" style="swimlane;fontStyle=0;childLayout=stackLayout;horizontal=1;startSize=30;horizontalStack=0;resizeParent=1;resizeParentMax=0;resizeLast=0;collapsible=1;marginBottom=0;whiteSpace=wrap;html=1;fillColor=#CCFFCC;" parent="1" vertex="1">
                    <mxGeometry x="1380" y="-80" width="280" height="240" as="geometry"/>
                </mxCell>
                <mxCell id="9" value="x_1_2, x_2_3, x_1_3 : Variable" style="text;strokeColor=none;fillColor=none;align=left;verticalAlign=middle;spacingLeft=4;spacingRight=4;overflow=hidden;points=[[0,0.5],[1,0.5]];portConstraint=eastwest;rotatable=0;whiteSpace=wrap;html=1;" parent="8" vertex="1">
                    <mxGeometry y="30" width="280" height="30" as="geometry"/>
                </mxCell>
                <mxCell id="10" value="a_1_2, a_2_3, a_1_3, b : Parameter" style="text;strokeColor=none;fillColor=none;align=left;verticalAlign=middle;spacingLeft=4;spacingRight=4;overflow=hidden;points=[[0,0.5],[1,0.5]];portConstraint=eastwest;rotatable=0;whiteSpace=wrap;html=1;" parent="8" vertex="1">
                    <mxGeometry y="60" width="280" height="30" as="geometry"/>
                </mxCell>
                <mxCell id="11" value="a_1_2*x_1_2 + a_2_3*x_2_3 + a_1_3*x_1_3 &amp;lt;= b" style="text;strokeColor=none;fillColor=none;align=left;verticalAlign=middle;spacingLeft=4;spacingRight=4;overflow=hidden;points=[[0,0.5],[1,0.5]];portConstraint=eastwest;rotatable=0;whiteSpace=wrap;html=1;" parent="8" vertex="1">
                    <mxGeometry y="90" width="280" height="30" as="geometry"/>
                </mxCell>
                <mxCell id="12" value="f_1_2, f_2_3, f_1_3 : Flow" style="text;strokeColor=none;fillColor=none;align=left;verticalAlign=middle;spacingLeft=4;spacingRight=4;overflow=hidden;points=[[0,0.5],[1,0.5]];portConstraint=eastwest;rotatable=0;whiteSpace=wrap;html=1;" parent="8" vertex="1">
                    <mxGeometry y="120" width="280" height="30" as="geometry"/>
                </mxCell>
                <mxCell id="13" value="f_1_2.f.sum() = x_1_2" style="text;strokeColor=none;fillColor=none;align=left;verticalAlign=middle;spacingLeft=4;spacingRight=4;overflow=hidden;points=[[0,0.5],[1,0.5]];portConstraint=eastwest;rotatable=0;whiteSpace=wrap;html=1;" parent="8" vertex="1">
                    <mxGeometry y="150" width="280" height="30" as="geometry"/>
                </mxCell>
                <mxCell id="14" value="f_1_3.f.sum() = x_1_3" style="text;strokeColor=none;fillColor=none;align=left;verticalAlign=middle;spacingLeft=4;spacingRight=4;overflow=hidden;points=[[0,0.5],[1,0.5]];portConstraint=eastwest;rotatable=0;whiteSpace=wrap;html=1;" parent="8" vertex="1">
                    <mxGeometry y="180" width="280" height="30" as="geometry"/>
                </mxCell>
                <mxCell id="15" value="f_2_3.f.sum() = x_2_3" style="text;strokeColor=none;fillColor=none;align=left;verticalAlign=middle;spacingLeft=4;spacingRight=4;overflow=hidden;points=[[0,0.5],[1,0.5]];portConstraint=eastwest;rotatable=0;whiteSpace=wrap;html=1;" parent="8" vertex="1">
                    <mxGeometry y="210" width="280" height="30" as="geometry"/>
                </mxCell>
                <mxCell id="16" value="&lt;font style=&quot;&quot;&gt;&lt;b style=&quot;&quot;&gt;&lt;font style=&quot;font-size: 14px;&quot;&gt;Option 2&lt;/font&gt;&lt;br&gt;&lt;/b&gt;&lt;/font&gt;" style="text;html=1;strokeColor=none;fillColor=none;align=center;verticalAlign=middle;whiteSpace=wrap;rounded=0;" parent="1" vertex="1">
                    <mxGeometry x="1380" y="-120" width="220" height="40" as="geometry"/>
                </mxCell>
                <mxCell id="18" value="FlowBasedN1N2N3 : Model" style="swimlane;fontStyle=0;childLayout=stackLayout;horizontal=1;startSize=30;horizontalStack=0;resizeParent=1;resizeParentMax=0;resizeLast=0;collapsible=1;marginBottom=0;whiteSpace=wrap;html=1;fillColor=#CCFFCC;" parent="1" vertex="1">
                    <mxGeometry x="1680" y="-80" width="280" height="210" as="geometry"/>
                </mxCell>
                <mxCell id="19" value="x_1_2, x_2_3, x_1_3 : Variable" style="text;strokeColor=none;fillColor=none;align=left;verticalAlign=middle;spacingLeft=4;spacingRight=4;overflow=hidden;points=[[0,0.5],[1,0.5]];portConstraint=eastwest;rotatable=0;whiteSpace=wrap;html=1;" parent="18" vertex="1">
                    <mxGeometry y="30" width="280" height="30" as="geometry"/>
                </mxCell>
                <mxCell id="21" value="a_1_2*x_1_2 + a_2_3*x_2_3 + a_1_3*x_1_3 &amp;lt;= b" style="text;strokeColor=none;fillColor=none;align=left;verticalAlign=middle;spacingLeft=4;spacingRight=4;overflow=hidden;points=[[0,0.5],[1,0.5]];portConstraint=eastwest;rotatable=0;whiteSpace=wrap;html=1;" parent="18" vertex="1">
                    <mxGeometry y="60" width="280" height="30" as="geometry"/>
                </mxCell>
                <mxCell id="83" value="f_1_2, f_2_3, f_1_3 : Flow" style="text;strokeColor=none;fillColor=none;align=left;verticalAlign=middle;spacingLeft=4;spacingRight=4;overflow=hidden;points=[[0,0.5],[1,0.5]];portConstraint=eastwest;rotatable=0;whiteSpace=wrap;html=1;" parent="18" vertex="1">
                    <mxGeometry y="90" width="280" height="30" as="geometry"/>
                </mxCell>
                <mxCell id="84" value="f_1_2.f.sum() = x_1_2" style="text;strokeColor=none;fillColor=none;align=left;verticalAlign=middle;spacingLeft=4;spacingRight=4;overflow=hidden;points=[[0,0.5],[1,0.5]];portConstraint=eastwest;rotatable=0;whiteSpace=wrap;html=1;" parent="18" vertex="1">
                    <mxGeometry y="120" width="280" height="30" as="geometry"/>
                </mxCell>
                <mxCell id="85" value="f_1_3.f.sum() = x_1_3" style="text;strokeColor=none;fillColor=none;align=left;verticalAlign=middle;spacingLeft=4;spacingRight=4;overflow=hidden;points=[[0,0.5],[1,0.5]];portConstraint=eastwest;rotatable=0;whiteSpace=wrap;html=1;" parent="18" vertex="1">
                    <mxGeometry y="150" width="280" height="30" as="geometry"/>
                </mxCell>
                <mxCell id="86" value="f_2_3.f.sum() = x_2_3" style="text;strokeColor=none;fillColor=none;align=left;verticalAlign=middle;spacingLeft=4;spacingRight=4;overflow=hidden;points=[[0,0.5],[1,0.5]];portConstraint=eastwest;rotatable=0;whiteSpace=wrap;html=1;" parent="18" vertex="1">
                    <mxGeometry y="180" width="280" height="30" as="geometry"/>
                </mxCell>
                <mxCell id="26" value="&lt;font style=&quot;&quot;&gt;&lt;b style=&quot;&quot;&gt;&lt;font style=&quot;font-size: 14px;&quot;&gt;Option 3&lt;/font&gt;&lt;br&gt;&lt;/b&gt;&lt;/font&gt;" style="text;html=1;strokeColor=none;fillColor=none;align=center;verticalAlign=middle;whiteSpace=wrap;rounded=0;" parent="1" vertex="1">
                    <mxGeometry x="1680" y="-120" width="220" height="40" as="geometry"/>
                </mxCell>
                <mxCell id="io5GCxzzSzc3zPwwghzN-148" value="" style="group" parent="1" vertex="1" connectable="0">
                    <mxGeometry x="600" y="560" width="80" height="110" as="geometry"/>
                </mxCell>
                <mxCell id="io5GCxzzSzc3zPwwghzN-149" value="e_1" style="ellipse;whiteSpace=wrap;html=1;aspect=fixed;fillColor=#dae8fc;strokeColor=#6c8ebf;" parent="io5GCxzzSzc3zPwwghzN-148" vertex="1">
                    <mxGeometry width="80" height="80" as="geometry"/>
                </mxCell>
                <mxCell id="io5GCxzzSzc3zPwwghzN-150" value="flow_n" style="rounded=0;whiteSpace=wrap;html=1;fillColor=#dae8fc;strokeColor=#6c8ebf;" parent="io5GCxzzSzc3zPwwghzN-148" vertex="1">
                    <mxGeometry x="15" y="80" width="50" height="30" as="geometry"/>
                </mxCell>
                <mxCell id="io5GCxzzSzc3zPwwghzN-151" value="" style="group" parent="1" vertex="1" connectable="0">
                    <mxGeometry x="770" y="560" width="80" height="110" as="geometry"/>
                </mxCell>
                <mxCell id="io5GCxzzSzc3zPwwghzN-152" value="e_2" style="ellipse;whiteSpace=wrap;html=1;aspect=fixed;fillColor=#dae8fc;strokeColor=#6c8ebf;" parent="io5GCxzzSzc3zPwwghzN-151" vertex="1">
                    <mxGeometry width="80" height="80" as="geometry"/>
                </mxCell>
                <mxCell id="io5GCxzzSzc3zPwwghzN-153" value="flow_n" style="rounded=0;whiteSpace=wrap;html=1;fillColor=#dae8fc;strokeColor=#6c8ebf;" parent="io5GCxzzSzc3zPwwghzN-151" vertex="1">
                    <mxGeometry x="15" y="80" width="50" height="30" as="geometry"/>
                </mxCell>
                <mxCell id="io5GCxzzSzc3zPwwghzN-154" value="" style="group" parent="1" vertex="1" connectable="0">
                    <mxGeometry x="930" y="560" width="80" height="110" as="geometry"/>
                </mxCell>
                <mxCell id="io5GCxzzSzc3zPwwghzN-155" value="e_3" style="ellipse;whiteSpace=wrap;html=1;aspect=fixed;fillColor=#dae8fc;strokeColor=#6c8ebf;" parent="io5GCxzzSzc3zPwwghzN-154" vertex="1">
                    <mxGeometry width="80" height="80" as="geometry"/>
                </mxCell>
                <mxCell id="io5GCxzzSzc3zPwwghzN-156" value="flow_n" style="rounded=0;whiteSpace=wrap;html=1;fillColor=#dae8fc;strokeColor=#6c8ebf;" parent="io5GCxzzSzc3zPwwghzN-154" vertex="1">
                    <mxGeometry x="15" y="80" width="50" height="30" as="geometry"/>
                </mxCell>
                <mxCell id="io5GCxzzSzc3zPwwghzN-173" value="" style="group" parent="1" vertex="1" connectable="0">
                    <mxGeometry x="586" y="850" width="121.73000000000002" height="150" as="geometry"/>
                </mxCell>
                <mxCell id="io5GCxzzSzc3zPwwghzN-174" value="l_1_2" style="ellipse;whiteSpace=wrap;html=1;" parent="io5GCxzzSzc3zPwwghzN-173" vertex="1">
                    <mxGeometry y="30" width="120" height="80" as="geometry"/>
                </mxCell>
                <mxCell id="io5GCxzzSzc3zPwwghzN-175" value="" style="group;fillColor=#dae8fc;strokeColor=#6c8ebf;" parent="io5GCxzzSzc3zPwwghzN-173" vertex="1" connectable="0">
                    <mxGeometry x="10" width="100" height="30" as="geometry"/>
                </mxCell>
                <mxCell id="io5GCxzzSzc3zPwwghzN-176" value="flow_from" style="rounded=0;whiteSpace=wrap;html=1;fillColor=#dae8fc;strokeColor=#6c8ebf;" parent="io5GCxzzSzc3zPwwghzN-175" vertex="1">
                    <mxGeometry x="-10" width="60" height="30" as="geometry"/>
                </mxCell>
                <mxCell id="io5GCxzzSzc3zPwwghzN-177" value="flow_to" style="rounded=0;whiteSpace=wrap;html=1;fillColor=#dae8fc;strokeColor=#6c8ebf;" parent="io5GCxzzSzc3zPwwghzN-175" vertex="1">
                    <mxGeometry x="50" width="50" height="30" as="geometry"/>
                </mxCell>
                <mxCell id="io5GCxzzSzc3zPwwghzN-181" value="" style="group" parent="1" vertex="1" connectable="0">
                    <mxGeometry x="751.73" y="850" width="121.73000000000002" height="140" as="geometry"/>
                </mxCell>
                <mxCell id="io5GCxzzSzc3zPwwghzN-182" value="l_1_3" style="ellipse;whiteSpace=wrap;html=1;" parent="io5GCxzzSzc3zPwwghzN-181" vertex="1">
                    <mxGeometry y="30" width="120" height="80" as="geometry"/>
                </mxCell>
                <mxCell id="io5GCxzzSzc3zPwwghzN-183" value="" style="group;fillColor=#dae8fc;strokeColor=#6c8ebf;" parent="io5GCxzzSzc3zPwwghzN-181" vertex="1" connectable="0">
                    <mxGeometry x="10" width="100" height="30" as="geometry"/>
                </mxCell>
                <mxCell id="io5GCxzzSzc3zPwwghzN-184" value="flow_from" style="rounded=0;whiteSpace=wrap;html=1;fillColor=#dae8fc;strokeColor=#6c8ebf;" parent="io5GCxzzSzc3zPwwghzN-183" vertex="1">
                    <mxGeometry x="-10" width="60" height="30" as="geometry"/>
                </mxCell>
                <mxCell id="io5GCxzzSzc3zPwwghzN-185" value="flow_to" style="rounded=0;whiteSpace=wrap;html=1;fillColor=#dae8fc;strokeColor=#6c8ebf;" parent="io5GCxzzSzc3zPwwghzN-183" vertex="1">
                    <mxGeometry x="50" width="50" height="30" as="geometry"/>
                </mxCell>
                <mxCell id="io5GCxzzSzc3zPwwghzN-189" value="" style="group" parent="1" vertex="1" connectable="0">
                    <mxGeometry x="941.73" y="850" width="121.73000000000002" height="140" as="geometry"/>
                </mxCell>
                <mxCell id="io5GCxzzSzc3zPwwghzN-190" value="l_2_3" style="ellipse;whiteSpace=wrap;html=1;" parent="io5GCxzzSzc3zPwwghzN-189" vertex="1">
                    <mxGeometry y="30" width="120" height="80" as="geometry"/>
                </mxCell>
                <mxCell id="io5GCxzzSzc3zPwwghzN-191" value="" style="group;fillColor=#dae8fc;strokeColor=#6c8ebf;" parent="io5GCxzzSzc3zPwwghzN-189" vertex="1" connectable="0">
                    <mxGeometry x="10" width="100" height="30" as="geometry"/>
                </mxCell>
                <mxCell id="io5GCxzzSzc3zPwwghzN-192" value="flow_from" style="rounded=0;whiteSpace=wrap;html=1;fillColor=#dae8fc;strokeColor=#6c8ebf;" parent="io5GCxzzSzc3zPwwghzN-191" vertex="1">
                    <mxGeometry x="-10" width="60" height="30" as="geometry"/>
                </mxCell>
                <mxCell id="io5GCxzzSzc3zPwwghzN-193" value="flow_to" style="rounded=0;whiteSpace=wrap;html=1;fillColor=#dae8fc;strokeColor=#6c8ebf;" parent="io5GCxzzSzc3zPwwghzN-191" vertex="1">
                    <mxGeometry x="50" width="50" height="30" as="geometry"/>
                </mxCell>
                <mxCell id="aWoHtGz9jkfwQIE-XJvv-17" value="" style="endArrow=classic;html=1;rounded=0;entryX=0.25;entryY=1;entryDx=0;entryDy=0;" parent="1" target="io5GCxzzSzc3zPwwghzN-153" edge="1">
                    <mxGeometry width="50" height="50" relative="1" as="geometry">
                        <mxPoint x="660" y="850" as="sourcePoint"/>
                        <mxPoint x="646" y="680" as="targetPoint"/>
                    </mxGeometry>
                </mxCell>
                <mxCell id="aWoHtGz9jkfwQIE-XJvv-18" value="" style="endArrow=classic;html=1;rounded=0;exitX=0.5;exitY=0;exitDx=0;exitDy=0;entryX=0.75;entryY=1;entryDx=0;entryDy=0;" parent="1" source="io5GCxzzSzc3zPwwghzN-184" target="io5GCxzzSzc3zPwwghzN-150" edge="1">
                    <mxGeometry width="50" height="50" relative="1" as="geometry">
                        <mxPoint x="649" y="860" as="sourcePoint"/>
                        <mxPoint x="646" y="680" as="targetPoint"/>
                    </mxGeometry>
                </mxCell>
                <mxCell id="aWoHtGz9jkfwQIE-XJvv-20" value="" style="endArrow=classic;html=1;rounded=0;exitX=0.5;exitY=0;exitDx=0;exitDy=0;entryX=0.75;entryY=1;entryDx=0;entryDy=0;" parent="1" source="io5GCxzzSzc3zPwwghzN-192" target="io5GCxzzSzc3zPwwghzN-153" edge="1">
                    <mxGeometry width="50" height="50" relative="1" as="geometry">
                        <mxPoint x="865" y="860" as="sourcePoint"/>
                        <mxPoint x="956" y="670" as="targetPoint"/>
                    </mxGeometry>
                </mxCell>
                <mxCell id="aWoHtGz9jkfwQIE-XJvv-21" value="" style="endArrow=classic;html=1;rounded=0;entryX=0.5;entryY=1;entryDx=0;entryDy=0;exitX=0.25;exitY=0;exitDx=0;exitDy=0;" parent="1" source="io5GCxzzSzc3zPwwghzN-193" target="io5GCxzzSzc3zPwwghzN-156" edge="1">
                    <mxGeometry width="50" height="50" relative="1" as="geometry">
                        <mxPoint x="1056" y="850" as="sourcePoint"/>
                        <mxPoint x="833" y="680" as="targetPoint"/>
                    </mxGeometry>
                </mxCell>
                <mxCell id="NOyrXH803vbqr8Ms16Gm-19" value="" style="group" parent="1" vertex="1" connectable="0">
                    <mxGeometry x="1216" y="580" width="80" height="110" as="geometry"/>
                </mxCell>
                <mxCell id="NOyrXH803vbqr8Ms16Gm-20" value="fb_1" style="ellipse;whiteSpace=wrap;html=1;aspect=fixed;fillColor=#FFCCE6;strokeColor=#82b366;" parent="NOyrXH803vbqr8Ms16Gm-19" vertex="1">
                    <mxGeometry y="30" width="80" height="80" as="geometry"/>
                </mxCell>
                <mxCell id="NOyrXH803vbqr8Ms16Gm-21" value="f_1" style="rounded=0;whiteSpace=wrap;html=1;fillColor=#FFCCE6;strokeColor=#82b366;" parent="1" vertex="1">
                    <mxGeometry x="1231" y="690" width="49" height="30" as="geometry"/>
                </mxCell>
                <mxCell id="NOyrXH803vbqr8Ms16Gm-22" value="" style="endArrow=classic;html=1;rounded=0;entryX=0;entryY=0.5;entryDx=0;entryDy=0;exitX=0.5;exitY=0;exitDx=0;exitDy=0;" parent="1" source="io5GCxzzSzc3zPwwghzN-193" target="97" edge="1">
                    <mxGeometry width="50" height="50" relative="1" as="geometry">
                        <mxPoint x="1143" y="860" as="sourcePoint"/>
                        <mxPoint x="1086" y="680" as="targetPoint"/>
                    </mxGeometry>
                </mxCell>
                <mxCell id="NOyrXH803vbqr8Ms16Gm-24" value="" style="endArrow=classic;html=1;rounded=0;exitX=0.5;exitY=0;exitDx=0;exitDy=0;entryX=0;entryY=0.25;entryDx=0;entryDy=0;" parent="1" source="io5GCxzzSzc3zPwwghzN-177" target="NOyrXH803vbqr8Ms16Gm-21" edge="1">
                    <mxGeometry width="50" height="50" relative="1" as="geometry">
                        <mxPoint x="847" y="860" as="sourcePoint"/>
                        <mxPoint x="1236" y="720" as="targetPoint"/>
                    </mxGeometry>
                </mxCell>
                <mxCell id="NOyrXH803vbqr8Ms16Gm-23" value="" style="endArrow=classic;html=1;rounded=0;exitX=0.5;exitY=0;exitDx=0;exitDy=0;" parent="1" source="io5GCxzzSzc3zPwwghzN-185" edge="1">
                    <mxGeometry width="50" height="50" relative="1" as="geometry">
                        <mxPoint x="1037" y="860" as="sourcePoint"/>
                        <mxPoint x="1230" y="730" as="targetPoint"/>
                    </mxGeometry>
                </mxCell>
                <mxCell id="gQHjPlM2CJMaZ_1cljnZ-1" value="N1" style="ellipse;whiteSpace=wrap;html=1;aspect=fixed;" parent="1" vertex="1">
                    <mxGeometry x="160" y="-20.400000000000006" width="80" height="80" as="geometry"/>
                </mxCell>
                <mxCell id="gQHjPlM2CJMaZ_1cljnZ-2" value="N2" style="ellipse;whiteSpace=wrap;html=1;aspect=fixed;" parent="1" vertex="1">
                    <mxGeometry x="374" y="-20.400000000000006" width="80" height="80" as="geometry"/>
                </mxCell>
                <mxCell id="gQHjPlM2CJMaZ_1cljnZ-3" value="N3" style="ellipse;whiteSpace=wrap;html=1;aspect=fixed;" parent="1" vertex="1">
                    <mxGeometry x="260" y="159.6" width="80" height="80" as="geometry"/>
                </mxCell>
                <mxCell id="gQHjPlM2CJMaZ_1cljnZ-4" value="" style="endArrow=none;html=1;rounded=0;exitX=1;exitY=1;exitDx=0;exitDy=0;entryX=0;entryY=0;entryDx=0;entryDy=0;" parent="1" source="gQHjPlM2CJMaZ_1cljnZ-1" target="gQHjPlM2CJMaZ_1cljnZ-3" edge="1">
                    <mxGeometry width="50" height="50" relative="1" as="geometry">
                        <mxPoint x="390" y="259.6" as="sourcePoint"/>
                        <mxPoint x="440" y="209.6" as="targetPoint"/>
                    </mxGeometry>
                </mxCell>
                <mxCell id="gQHjPlM2CJMaZ_1cljnZ-5" value="" style="endArrow=none;html=1;rounded=0;exitX=1;exitY=0.5;exitDx=0;exitDy=0;entryX=0;entryY=0.5;entryDx=0;entryDy=0;" parent="1" source="gQHjPlM2CJMaZ_1cljnZ-1" target="gQHjPlM2CJMaZ_1cljnZ-2" edge="1">
                    <mxGeometry width="50" height="50" relative="1" as="geometry">
                        <mxPoint x="210" y="69.6" as="sourcePoint"/>
                        <mxPoint x="272" y="171.6" as="targetPoint"/>
                    </mxGeometry>
                </mxCell>
                <mxCell id="gQHjPlM2CJMaZ_1cljnZ-6" value="" style="endArrow=none;html=1;rounded=0;exitX=0;exitY=1;exitDx=0;exitDy=0;entryX=1;entryY=0;entryDx=0;entryDy=0;" parent="1" source="gQHjPlM2CJMaZ_1cljnZ-2" target="gQHjPlM2CJMaZ_1cljnZ-3" edge="1">
                    <mxGeometry width="50" height="50" relative="1" as="geometry">
                        <mxPoint x="210" y="69.6" as="sourcePoint"/>
                        <mxPoint x="272" y="171.6" as="targetPoint"/>
                    </mxGeometry>
                </mxCell>
                <mxCell id="EA9z76p3zM__a-H7yWGD-36" value="&lt;font style=&quot;font-size: 32px;&quot;&gt;&lt;b&gt;Physical system&lt;br&gt;&lt;/b&gt;&lt;/font&gt;" style="text;html=1;strokeColor=none;fillColor=none;align=center;verticalAlign=middle;whiteSpace=wrap;rounded=0;" parent="1" vertex="1">
                    <mxGeometry x="87" y="-260" width="380" height="120" as="geometry"/>
                </mxCell>
                <mxCell id="28" value="File &quot;network.txt&quot;" style="swimlane;fontStyle=0;childLayout=stackLayout;horizontal=1;startSize=30;horizontalStack=0;resizeParent=1;resizeParentMax=0;resizeLast=0;collapsible=1;marginBottom=0;whiteSpace=wrap;html=1;fillColor=#ccccff;" parent="1" vertex="1">
                    <mxGeometry x="-46" y="480" width="320" height="270" as="geometry"/>
                </mxCell>
                <mxCell id="29" value="e_1, e_2, e_3 : Node" style="text;strokeColor=none;fillColor=none;align=left;verticalAlign=middle;spacingLeft=4;spacingRight=4;overflow=hidden;points=[[0,0.5],[1,0.5]];portConstraint=eastwest;rotatable=0;whiteSpace=wrap;html=1;" parent="28" vertex="1">
                    <mxGeometry y="30" width="320" height="30" as="geometry"/>
                </mxCell>
                <mxCell id="76" value="l_1_2, l_2_3, l_1_3 : Link" style="text;strokeColor=none;fillColor=none;align=left;verticalAlign=middle;spacingLeft=4;spacingRight=4;overflow=hidden;points=[[0,0.5],[1,0.5]];portConstraint=eastwest;rotatable=0;whiteSpace=wrap;html=1;" parent="28" vertex="1">
                    <mxGeometry y="60" width="320" height="30" as="geometry"/>
                </mxCell>
                <mxCell id="77" value="e_1.flow_n l_1_2.flow_from" style="text;strokeColor=none;fillColor=none;align=left;verticalAlign=middle;spacingLeft=4;spacingRight=4;overflow=hidden;points=[[0,0.5],[1,0.5]];portConstraint=eastwest;rotatable=0;whiteSpace=wrap;html=1;" parent="28" vertex="1">
                    <mxGeometry y="90" width="320" height="30" as="geometry"/>
                </mxCell>
                <mxCell id="78" value="e_1.flow_n l_1_3.flow_from" style="text;strokeColor=none;fillColor=none;align=left;verticalAlign=middle;spacingLeft=4;spacingRight=4;overflow=hidden;points=[[0,0.5],[1,0.5]];portConstraint=eastwest;rotatable=0;whiteSpace=wrap;html=1;" parent="28" vertex="1">
                    <mxGeometry y="120" width="320" height="30" as="geometry"/>
                </mxCell>
                <mxCell id="79" value="e_2.flow_n l_1_2.flow_to" style="text;strokeColor=none;fillColor=none;align=left;verticalAlign=middle;spacingLeft=4;spacingRight=4;overflow=hidden;points=[[0,0.5],[1,0.5]];portConstraint=eastwest;rotatable=0;whiteSpace=wrap;html=1;" parent="28" vertex="1">
                    <mxGeometry y="150" width="320" height="30" as="geometry"/>
                </mxCell>
                <mxCell id="80" value="e_2.flow_n l_2_3.flow_from" style="text;strokeColor=none;fillColor=none;align=left;verticalAlign=middle;spacingLeft=4;spacingRight=4;overflow=hidden;points=[[0,0.5],[1,0.5]];portConstraint=eastwest;rotatable=0;whiteSpace=wrap;html=1;" parent="28" vertex="1">
                    <mxGeometry y="180" width="320" height="30" as="geometry"/>
                </mxCell>
                <mxCell id="81" value="e_3.flow_n l_1_3.flow_to" style="text;strokeColor=none;fillColor=none;align=left;verticalAlign=middle;spacingLeft=4;spacingRight=4;overflow=hidden;points=[[0,0.5],[1,0.5]];portConstraint=eastwest;rotatable=0;whiteSpace=wrap;html=1;" parent="28" vertex="1">
                    <mxGeometry y="210" width="320" height="30" as="geometry"/>
                </mxCell>
                <mxCell id="82" value="e_3.flow_n l_2_3.flow_to" style="text;strokeColor=none;fillColor=none;align=left;verticalAlign=middle;spacingLeft=4;spacingRight=4;overflow=hidden;points=[[0,0.5],[1,0.5]];portConstraint=eastwest;rotatable=0;whiteSpace=wrap;html=1;" parent="28" vertex="1">
                    <mxGeometry y="240" width="320" height="30" as="geometry"/>
                </mxCell>
                <mxCell id="36" value="&lt;h1&gt;Study data&lt;/h1&gt;" style="text;html=1;strokeColor=none;fillColor=none;spacing=5;spacingTop=-20;whiteSpace=wrap;overflow=hidden;rounded=0;align=center;" parent="1" vertex="1">
                    <mxGeometry x="-16" y="400" width="250" height="40" as="geometry"/>
                </mxCell>
                <mxCell id="87" value="File &quot;network.txt&quot;" style="swimlane;fontStyle=0;childLayout=stackLayout;horizontal=1;startSize=30;horizontalStack=0;resizeParent=1;resizeParentMax=0;resizeLast=0;collapsible=1;marginBottom=0;whiteSpace=wrap;html=1;fillColor=#ccccff;" parent="1" vertex="1">
                    <mxGeometry x="690" y="990" width="320" height="150" as="geometry"/>
                </mxCell>
                <mxCell id="88" value="fb_1 :&amp;nbsp;&lt;span style=&quot;text-align: center;&quot;&gt;LinearConstraints3Variables&lt;/span&gt;" style="text;strokeColor=none;fillColor=none;align=left;verticalAlign=middle;spacingLeft=4;spacingRight=4;overflow=hidden;points=[[0,0.5],[1,0.5]];portConstraint=eastwest;rotatable=0;whiteSpace=wrap;html=1;" parent="87" vertex="1">
                    <mxGeometry y="30" width="320" height="30" as="geometry"/>
                </mxCell>
                <mxCell id="90" value="fb_1.f_1 l_1_2.flow_to" style="text;strokeColor=none;fillColor=none;align=left;verticalAlign=middle;spacingLeft=4;spacingRight=4;overflow=hidden;points=[[0,0.5],[1,0.5]];portConstraint=eastwest;rotatable=0;whiteSpace=wrap;html=1;" parent="87" vertex="1">
                    <mxGeometry y="60" width="320" height="30" as="geometry"/>
                </mxCell>
                <mxCell id="94" value="fb_1.f_2 l_1_3.flow_to" style="text;strokeColor=none;fillColor=none;align=left;verticalAlign=middle;spacingLeft=4;spacingRight=4;overflow=hidden;points=[[0,0.5],[1,0.5]];portConstraint=eastwest;rotatable=0;whiteSpace=wrap;html=1;" parent="87" vertex="1">
                    <mxGeometry y="90" width="320" height="30" as="geometry"/>
                </mxCell>
                <mxCell id="95" value="fb_1.f_3 l_2_3.flow_to" style="text;strokeColor=none;fillColor=none;align=left;verticalAlign=middle;spacingLeft=4;spacingRight=4;overflow=hidden;points=[[0,0.5],[1,0.5]];portConstraint=eastwest;rotatable=0;whiteSpace=wrap;html=1;" parent="87" vertex="1">
                    <mxGeometry y="120" width="320" height="30" as="geometry"/>
                </mxCell>
                <mxCell id="96" value="f_2" style="rounded=0;whiteSpace=wrap;html=1;fillColor=#FFCCE6;strokeColor=#82b366;" parent="1" vertex="1">
                    <mxGeometry x="1231" y="720" width="49" height="30" as="geometry"/>
                </mxCell>
                <mxCell id="97" value="f_3" style="rounded=0;whiteSpace=wrap;html=1;fillColor=#FFCCE6;strokeColor=#82b366;" parent="1" vertex="1">
                    <mxGeometry x="1231" y="750" width="49" height="30" as="geometry"/>
                </mxCell>
                <mxCell id="98" value="&lt;font style=&quot;font-size: 32px;&quot;&gt;&lt;b style=&quot;border-color: var(--border-color); font-size: 12px;&quot;&gt;&lt;font style=&quot;border-color: var(--border-color); font-size: 24px;&quot;&gt;Data visualization&lt;/font&gt;&lt;/b&gt;&lt;b style=&quot;border-color: var(--border-color); font-size: 12px;&quot;&gt;&lt;font style=&quot;border-color: var(--border-color); font-size: 24px;&quot;&gt;&amp;nbsp;option 2&lt;/font&gt;&lt;/b&gt;&lt;b&gt;&lt;br&gt;&lt;/b&gt;&lt;/font&gt;" style="text;html=1;strokeColor=none;fillColor=none;align=center;verticalAlign=middle;whiteSpace=wrap;rounded=0;" parent="1" vertex="1">
                    <mxGeometry x="1414" y="440" width="430" height="120" as="geometry"/>
                </mxCell>
                <mxCell id="99" value="" style="endArrow=classic;html=1;rounded=0;exitX=0.5;exitY=0;exitDx=0;exitDy=0;" parent="1" source="113" edge="1">
                    <mxGeometry width="50" height="50" relative="1" as="geometry">
                        <mxPoint x="1251" y="780" as="sourcePoint"/>
                        <mxPoint x="1424" y="690" as="targetPoint"/>
                    </mxGeometry>
                </mxCell>
                <mxCell id="100" value="" style="endArrow=classic;html=1;rounded=0;exitX=0.25;exitY=0;exitDx=0;exitDy=0;entryX=0.25;entryY=1;entryDx=0;entryDy=0;" parent="1" source="119" target="109" edge="1">
                    <mxGeometry width="50" height="50" relative="1" as="geometry">
                        <mxPoint x="1603" y="880" as="sourcePoint"/>
                        <mxPoint x="1734" y="680" as="targetPoint"/>
                    </mxGeometry>
                </mxCell>
                <mxCell id="101" value="" style="group" parent="1" vertex="1" connectable="0">
                    <mxGeometry x="1374" y="580" width="80" height="110" as="geometry"/>
                </mxCell>
                <mxCell id="102" value="e_1" style="ellipse;whiteSpace=wrap;html=1;aspect=fixed;fillColor=#dae8fc;strokeColor=#6c8ebf;" parent="101" vertex="1">
                    <mxGeometry width="80" height="80" as="geometry"/>
                </mxCell>
                <mxCell id="103" value="flow_n" style="rounded=0;whiteSpace=wrap;html=1;fillColor=#dae8fc;strokeColor=#6c8ebf;" parent="101" vertex="1">
                    <mxGeometry x="15" y="80" width="50" height="30" as="geometry"/>
                </mxCell>
                <mxCell id="104" value="" style="group" parent="1" vertex="1" connectable="0">
                    <mxGeometry x="1544" y="580" width="80" height="110" as="geometry"/>
                </mxCell>
                <mxCell id="105" value="e_2" style="ellipse;whiteSpace=wrap;html=1;aspect=fixed;fillColor=#dae8fc;strokeColor=#6c8ebf;" parent="104" vertex="1">
                    <mxGeometry width="80" height="80" as="geometry"/>
                </mxCell>
                <mxCell id="106" value="flow_n" style="rounded=0;whiteSpace=wrap;html=1;fillColor=#dae8fc;strokeColor=#6c8ebf;" parent="104" vertex="1">
                    <mxGeometry x="15" y="80" width="50" height="30" as="geometry"/>
                </mxCell>
                <mxCell id="107" value="" style="group" parent="1" vertex="1" connectable="0">
                    <mxGeometry x="1704" y="580" width="80" height="110" as="geometry"/>
                </mxCell>
                <mxCell id="108" value="e_3" style="ellipse;whiteSpace=wrap;html=1;aspect=fixed;fillColor=#dae8fc;strokeColor=#6c8ebf;" parent="107" vertex="1">
                    <mxGeometry width="80" height="80" as="geometry"/>
                </mxCell>
                <mxCell id="109" value="flow_n" style="rounded=0;whiteSpace=wrap;html=1;fillColor=#dae8fc;strokeColor=#6c8ebf;" parent="107" vertex="1">
                    <mxGeometry x="15" y="80" width="50" height="30" as="geometry"/>
                </mxCell>
                <mxCell id="110" value="" style="group" parent="1" vertex="1" connectable="0">
                    <mxGeometry x="1360" y="870" width="121.73000000000002" height="150" as="geometry"/>
                </mxCell>
                <mxCell id="111" value="l_1_2" style="ellipse;whiteSpace=wrap;html=1;" parent="110" vertex="1">
                    <mxGeometry y="30" width="120" height="80" as="geometry"/>
                </mxCell>
                <mxCell id="112" value="" style="group;fillColor=#dae8fc;strokeColor=#6c8ebf;" parent="110" vertex="1" connectable="0">
                    <mxGeometry x="10" width="100" height="30" as="geometry"/>
                </mxCell>
                <mxCell id="113" value="flow_from" style="rounded=0;whiteSpace=wrap;html=1;fillColor=#dae8fc;strokeColor=#6c8ebf;" parent="112" vertex="1">
                    <mxGeometry x="-10" width="60" height="30" as="geometry"/>
                </mxCell>
                <mxCell id="114" value="flow_to" style="rounded=0;whiteSpace=wrap;html=1;fillColor=#dae8fc;strokeColor=#6c8ebf;" parent="112" vertex="1">
                    <mxGeometry x="50" width="50" height="30" as="geometry"/>
                </mxCell>
                <mxCell id="115" value="" style="group" parent="1" vertex="1" connectable="0">
                    <mxGeometry x="1525.73" y="870" width="121.73000000000002" height="140" as="geometry"/>
                </mxCell>
                <mxCell id="116" value="l_1_3" style="ellipse;whiteSpace=wrap;html=1;" parent="115" vertex="1">
                    <mxGeometry y="30" width="120" height="80" as="geometry"/>
                </mxCell>
                <mxCell id="117" value="" style="group;fillColor=#dae8fc;strokeColor=#6c8ebf;" parent="115" vertex="1" connectable="0">
                    <mxGeometry x="10" width="100" height="30" as="geometry"/>
                </mxCell>
                <mxCell id="118" value="flow_from" style="rounded=0;whiteSpace=wrap;html=1;fillColor=#dae8fc;strokeColor=#6c8ebf;" parent="117" vertex="1">
                    <mxGeometry x="-10" width="60" height="30" as="geometry"/>
                </mxCell>
                <mxCell id="119" value="flow_to" style="rounded=0;whiteSpace=wrap;html=1;fillColor=#dae8fc;strokeColor=#6c8ebf;" parent="117" vertex="1">
                    <mxGeometry x="50" width="50" height="30" as="geometry"/>
                </mxCell>
                <mxCell id="120" value="" style="group" parent="1" vertex="1" connectable="0">
                    <mxGeometry x="1715.73" y="870" width="121.73000000000002" height="140" as="geometry"/>
                </mxCell>
                <mxCell id="121" value="l_2_3" style="ellipse;whiteSpace=wrap;html=1;" parent="120" vertex="1">
                    <mxGeometry y="30" width="120" height="80" as="geometry"/>
                </mxCell>
                <mxCell id="122" value="" style="group;fillColor=#dae8fc;strokeColor=#6c8ebf;" parent="120" vertex="1" connectable="0">
                    <mxGeometry x="10" width="100" height="30" as="geometry"/>
                </mxCell>
                <mxCell id="123" value="flow_from" style="rounded=0;whiteSpace=wrap;html=1;fillColor=#dae8fc;strokeColor=#6c8ebf;" parent="122" vertex="1">
                    <mxGeometry x="-10" width="60" height="30" as="geometry"/>
                </mxCell>
                <mxCell id="124" value="flow_to" style="rounded=0;whiteSpace=wrap;html=1;fillColor=#dae8fc;strokeColor=#6c8ebf;" parent="122" vertex="1">
                    <mxGeometry x="50" width="50" height="30" as="geometry"/>
                </mxCell>
                <mxCell id="125" value="" style="endArrow=classic;html=1;rounded=0;entryX=0.25;entryY=1;entryDx=0;entryDy=0;" parent="1" target="106" edge="1">
                    <mxGeometry width="50" height="50" relative="1" as="geometry">
                        <mxPoint x="1434" y="870" as="sourcePoint"/>
                        <mxPoint x="1420" y="700" as="targetPoint"/>
                    </mxGeometry>
                </mxCell>
                <mxCell id="126" value="" style="endArrow=classic;html=1;rounded=0;exitX=0.5;exitY=0;exitDx=0;exitDy=0;entryX=0.75;entryY=1;entryDx=0;entryDy=0;" parent="1" source="118" target="103" edge="1">
                    <mxGeometry width="50" height="50" relative="1" as="geometry">
                        <mxPoint x="1423" y="880" as="sourcePoint"/>
                        <mxPoint x="1420" y="700" as="targetPoint"/>
                    </mxGeometry>
                </mxCell>
                <mxCell id="127" value="" style="endArrow=classic;html=1;rounded=0;exitX=0.5;exitY=0;exitDx=0;exitDy=0;entryX=0.75;entryY=1;entryDx=0;entryDy=0;" parent="1" source="123" target="106" edge="1">
                    <mxGeometry width="50" height="50" relative="1" as="geometry">
                        <mxPoint x="1639" y="880" as="sourcePoint"/>
                        <mxPoint x="1730" y="690" as="targetPoint"/>
                    </mxGeometry>
                </mxCell>
                <mxCell id="128" value="" style="endArrow=classic;html=1;rounded=0;entryX=0.5;entryY=1;entryDx=0;entryDy=0;exitX=0.25;exitY=0;exitDx=0;exitDy=0;" parent="1" source="124" target="109" edge="1">
                    <mxGeometry width="50" height="50" relative="1" as="geometry">
                        <mxPoint x="1830" y="870" as="sourcePoint"/>
                        <mxPoint x="1607" y="700" as="targetPoint"/>
                    </mxGeometry>
                </mxCell>
                <mxCell id="129" value="" style="group" parent="1" vertex="1" connectable="0">
                    <mxGeometry x="1990" y="600" width="80" height="110" as="geometry"/>
                </mxCell>
                <mxCell id="130" value="fb_1" style="ellipse;whiteSpace=wrap;html=1;aspect=fixed;fillColor=#FFCCE6;strokeColor=#82b366;" parent="129" vertex="1">
                    <mxGeometry y="30" width="80" height="80" as="geometry"/>
                </mxCell>
                <mxCell id="131" value="f_1_2" style="rounded=0;whiteSpace=wrap;html=1;fillColor=#FFCCE6;strokeColor=#82b366;" parent="1" vertex="1">
                    <mxGeometry x="2005" y="710" width="49" height="30" as="geometry"/>
                </mxCell>
                <mxCell id="132" value="" style="endArrow=classic;html=1;rounded=0;entryX=0;entryY=0.5;entryDx=0;entryDy=0;exitX=0.5;exitY=0;exitDx=0;exitDy=0;" parent="1" source="124" target="141" edge="1">
                    <mxGeometry width="50" height="50" relative="1" as="geometry">
                        <mxPoint x="1917" y="880" as="sourcePoint"/>
                        <mxPoint x="1860" y="700" as="targetPoint"/>
                    </mxGeometry>
                </mxCell>
                <mxCell id="133" value="" style="endArrow=classic;html=1;rounded=0;exitX=0.5;exitY=0;exitDx=0;exitDy=0;entryX=0;entryY=0.25;entryDx=0;entryDy=0;" parent="1" source="114" target="131" edge="1">
                    <mxGeometry width="50" height="50" relative="1" as="geometry">
                        <mxPoint x="1621" y="880" as="sourcePoint"/>
                        <mxPoint x="2010" y="740" as="targetPoint"/>
                    </mxGeometry>
                </mxCell>
                <mxCell id="134" value="" style="endArrow=classic;html=1;rounded=0;exitX=0.5;exitY=0;exitDx=0;exitDy=0;" parent="1" source="119" edge="1">
                    <mxGeometry width="50" height="50" relative="1" as="geometry">
                        <mxPoint x="1811" y="880" as="sourcePoint"/>
                        <mxPoint x="2004" y="750" as="targetPoint"/>
                    </mxGeometry>
                </mxCell>
                <mxCell id="135" value="File &quot;network.txt&quot;" style="swimlane;fontStyle=0;childLayout=stackLayout;horizontal=1;startSize=30;horizontalStack=0;resizeParent=1;resizeParentMax=0;resizeLast=0;collapsible=1;marginBottom=0;whiteSpace=wrap;html=1;fillColor=#ccccff;" parent="1" vertex="1">
                    <mxGeometry x="1464" y="1010" width="320" height="150" as="geometry"/>
                </mxCell>
                <mxCell id="136" value="fb_1 : F&lt;span style=&quot;text-align: center;&quot;&gt;lowBased3Links&lt;/span&gt;" style="text;strokeColor=none;fillColor=none;align=left;verticalAlign=middle;spacingLeft=4;spacingRight=4;overflow=hidden;points=[[0,0.5],[1,0.5]];portConstraint=eastwest;rotatable=0;whiteSpace=wrap;html=1;" parent="135" vertex="1">
                    <mxGeometry y="30" width="320" height="30" as="geometry"/>
                </mxCell>
                <mxCell id="137" value="fb_1.f_1_2 l_1_2.flow_to" style="text;strokeColor=none;fillColor=none;align=left;verticalAlign=middle;spacingLeft=4;spacingRight=4;overflow=hidden;points=[[0,0.5],[1,0.5]];portConstraint=eastwest;rotatable=0;whiteSpace=wrap;html=1;" parent="135" vertex="1">
                    <mxGeometry y="60" width="320" height="30" as="geometry"/>
                </mxCell>
                <mxCell id="138" value="fb_1.f_1_3 l_1_3.flow_to" style="text;strokeColor=none;fillColor=none;align=left;verticalAlign=middle;spacingLeft=4;spacingRight=4;overflow=hidden;points=[[0,0.5],[1,0.5]];portConstraint=eastwest;rotatable=0;whiteSpace=wrap;html=1;" parent="135" vertex="1">
                    <mxGeometry y="90" width="320" height="30" as="geometry"/>
                </mxCell>
                <mxCell id="139" value="fb_1.f_2_3 l_2_3.flow_to" style="text;strokeColor=none;fillColor=none;align=left;verticalAlign=middle;spacingLeft=4;spacingRight=4;overflow=hidden;points=[[0,0.5],[1,0.5]];portConstraint=eastwest;rotatable=0;whiteSpace=wrap;html=1;" parent="135" vertex="1">
                    <mxGeometry y="120" width="320" height="30" as="geometry"/>
                </mxCell>
                <mxCell id="140" value="f_1_3" style="rounded=0;whiteSpace=wrap;html=1;fillColor=#FFCCE6;strokeColor=#82b366;" parent="1" vertex="1">
                    <mxGeometry x="2005" y="740" width="49" height="30" as="geometry"/>
                </mxCell>
                <mxCell id="141" value="f_2_3" style="rounded=0;whiteSpace=wrap;html=1;fillColor=#FFCCE6;strokeColor=#82b366;" parent="1" vertex="1">
                    <mxGeometry x="2005" y="770" width="49" height="30" as="geometry"/>
                </mxCell>
                <mxCell id="142" value="&lt;font style=&quot;font-size: 32px;&quot;&gt;&lt;b style=&quot;border-color: var(--border-color); font-size: 12px;&quot;&gt;&lt;font style=&quot;border-color: var(--border-color); font-size: 24px;&quot;&gt;Data visualization&lt;/font&gt;&lt;/b&gt;&lt;b style=&quot;border-color: var(--border-color); font-size: 12px;&quot;&gt;&lt;font style=&quot;border-color: var(--border-color); font-size: 24px;&quot;&gt;&amp;nbsp;option 3&lt;/font&gt;&lt;/b&gt;&lt;b&gt;&lt;br&gt;&lt;/b&gt;&lt;/font&gt;" style="text;html=1;strokeColor=none;fillColor=none;align=center;verticalAlign=middle;whiteSpace=wrap;rounded=0;" parent="1" vertex="1">
                    <mxGeometry x="2224" y="400" width="430" height="120" as="geometry"/>
                </mxCell>
                <mxCell id="143" value="" style="endArrow=classic;html=1;rounded=0;exitX=0.5;exitY=0;exitDx=0;exitDy=0;" parent="1" source="157" edge="1">
                    <mxGeometry width="50" height="50" relative="1" as="geometry">
                        <mxPoint x="2061" y="740" as="sourcePoint"/>
                        <mxPoint x="2234" y="650" as="targetPoint"/>
                    </mxGeometry>
                </mxCell>
                <mxCell id="144" value="" style="endArrow=classic;html=1;rounded=0;exitX=0.25;exitY=0;exitDx=0;exitDy=0;entryX=0;entryY=0.75;entryDx=0;entryDy=0;" parent="1" source="163" target="153" edge="1">
                    <mxGeometry width="50" height="50" relative="1" as="geometry">
                        <mxPoint x="2413" y="840" as="sourcePoint"/>
                        <mxPoint x="2544" y="640" as="targetPoint"/>
                    </mxGeometry>
                </mxCell>
                <mxCell id="145" value="" style="group" parent="1" vertex="1" connectable="0">
                    <mxGeometry x="2184" y="540" width="80" height="110" as="geometry"/>
                </mxCell>
                <mxCell id="146" value="e_1" style="ellipse;whiteSpace=wrap;html=1;aspect=fixed;fillColor=#dae8fc;strokeColor=#6c8ebf;" parent="145" vertex="1">
                    <mxGeometry width="80" height="80" as="geometry"/>
                </mxCell>
                <mxCell id="147" value="flow_n" style="rounded=0;whiteSpace=wrap;html=1;fillColor=#dae8fc;strokeColor=#6c8ebf;" parent="145" vertex="1">
                    <mxGeometry x="15" y="80" width="50" height="30" as="geometry"/>
                </mxCell>
                <mxCell id="148" value="" style="group" parent="1" vertex="1" connectable="0">
                    <mxGeometry x="2354" y="540" width="80" height="110" as="geometry"/>
                </mxCell>
                <mxCell id="149" value="e_2" style="ellipse;whiteSpace=wrap;html=1;aspect=fixed;fillColor=#dae8fc;strokeColor=#6c8ebf;" parent="148" vertex="1">
                    <mxGeometry width="80" height="80" as="geometry"/>
                </mxCell>
                <mxCell id="150" value="flow_n" style="rounded=0;whiteSpace=wrap;html=1;fillColor=#dae8fc;strokeColor=#6c8ebf;" parent="148" vertex="1">
                    <mxGeometry x="15" y="80" width="50" height="30" as="geometry"/>
                </mxCell>
                <mxCell id="151" value="" style="group" parent="1" vertex="1" connectable="0">
                    <mxGeometry x="2514" y="540" width="80" height="110" as="geometry"/>
                </mxCell>
                <mxCell id="152" value="e_3" style="ellipse;whiteSpace=wrap;html=1;aspect=fixed;fillColor=#dae8fc;strokeColor=#6c8ebf;" parent="151" vertex="1">
                    <mxGeometry width="80" height="80" as="geometry"/>
                </mxCell>
                <mxCell id="153" value="flow_n" style="rounded=0;whiteSpace=wrap;html=1;fillColor=#dae8fc;strokeColor=#6c8ebf;" parent="151" vertex="1">
                    <mxGeometry x="15" y="80" width="50" height="30" as="geometry"/>
                </mxCell>
                <mxCell id="154" value="" style="group" parent="1" vertex="1" connectable="0">
                    <mxGeometry x="2170" y="830" width="121.73000000000002" height="150" as="geometry"/>
                </mxCell>
                <mxCell id="155" value="l_1_2" style="ellipse;whiteSpace=wrap;html=1;" parent="154" vertex="1">
                    <mxGeometry y="30" width="120" height="80" as="geometry"/>
                </mxCell>
                <mxCell id="156" value="" style="group;fillColor=#dae8fc;strokeColor=#6c8ebf;" parent="154" vertex="1" connectable="0">
                    <mxGeometry x="10" width="100" height="30" as="geometry"/>
                </mxCell>
                <mxCell id="157" value="flow_from" style="rounded=0;whiteSpace=wrap;html=1;fillColor=#dae8fc;strokeColor=#6c8ebf;" parent="156" vertex="1">
                    <mxGeometry x="-10" width="60" height="30" as="geometry"/>
                </mxCell>
                <mxCell id="158" value="flow_to" style="rounded=0;whiteSpace=wrap;html=1;fillColor=#dae8fc;strokeColor=#6c8ebf;" parent="156" vertex="1">
                    <mxGeometry x="50" width="50" height="30" as="geometry"/>
                </mxCell>
                <mxCell id="159" value="" style="group" parent="1" vertex="1" connectable="0">
                    <mxGeometry x="2335.73" y="830" width="121.73000000000002" height="140" as="geometry"/>
                </mxCell>
                <mxCell id="160" value="l_1_3" style="ellipse;whiteSpace=wrap;html=1;" parent="159" vertex="1">
                    <mxGeometry y="30" width="120" height="80" as="geometry"/>
                </mxCell>
                <mxCell id="161" value="" style="group;fillColor=#dae8fc;strokeColor=#6c8ebf;" parent="159" vertex="1" connectable="0">
                    <mxGeometry x="10" width="100" height="30" as="geometry"/>
                </mxCell>
                <mxCell id="162" value="flow_from" style="rounded=0;whiteSpace=wrap;html=1;fillColor=#dae8fc;strokeColor=#6c8ebf;" parent="161" vertex="1">
                    <mxGeometry x="-10" width="60" height="30" as="geometry"/>
                </mxCell>
                <mxCell id="163" value="flow_to" style="rounded=0;whiteSpace=wrap;html=1;fillColor=#dae8fc;strokeColor=#6c8ebf;" parent="161" vertex="1">
                    <mxGeometry x="50" width="50" height="30" as="geometry"/>
                </mxCell>
                <mxCell id="164" value="" style="group" parent="1" vertex="1" connectable="0">
                    <mxGeometry x="2525.73" y="830" width="121.73000000000002" height="140" as="geometry"/>
                </mxCell>
                <mxCell id="165" value="l_2_3" style="ellipse;whiteSpace=wrap;html=1;" parent="164" vertex="1">
                    <mxGeometry y="30" width="120" height="80" as="geometry"/>
                </mxCell>
                <mxCell id="166" value="" style="group;fillColor=#dae8fc;strokeColor=#6c8ebf;" parent="164" vertex="1" connectable="0">
                    <mxGeometry x="10" width="100" height="30" as="geometry"/>
                </mxCell>
                <mxCell id="167" value="flow_from" style="rounded=0;whiteSpace=wrap;html=1;fillColor=#dae8fc;strokeColor=#6c8ebf;" parent="166" vertex="1">
                    <mxGeometry x="-10" width="60" height="30" as="geometry"/>
                </mxCell>
                <mxCell id="168" value="flow_to" style="rounded=0;whiteSpace=wrap;html=1;fillColor=#dae8fc;strokeColor=#6c8ebf;" parent="166" vertex="1">
                    <mxGeometry x="50" width="50" height="30" as="geometry"/>
                </mxCell>
                <mxCell id="169" value="" style="endArrow=classic;html=1;rounded=0;entryX=0.25;entryY=1;entryDx=0;entryDy=0;" parent="1" target="150" edge="1">
                    <mxGeometry width="50" height="50" relative="1" as="geometry">
                        <mxPoint x="2244" y="830" as="sourcePoint"/>
                        <mxPoint x="2230" y="660" as="targetPoint"/>
                    </mxGeometry>
                </mxCell>
                <mxCell id="170" value="" style="endArrow=classic;html=1;rounded=0;exitX=0.5;exitY=0;exitDx=0;exitDy=0;entryX=0.75;entryY=1;entryDx=0;entryDy=0;" parent="1" source="162" target="147" edge="1">
                    <mxGeometry width="50" height="50" relative="1" as="geometry">
                        <mxPoint x="2233" y="840" as="sourcePoint"/>
                        <mxPoint x="2230" y="660" as="targetPoint"/>
                    </mxGeometry>
                </mxCell>
                <mxCell id="171" value="" style="endArrow=classic;html=1;rounded=0;exitX=0.5;exitY=0;exitDx=0;exitDy=0;entryX=0.75;entryY=1;entryDx=0;entryDy=0;" parent="1" source="167" target="150" edge="1">
                    <mxGeometry width="50" height="50" relative="1" as="geometry">
                        <mxPoint x="2449" y="840" as="sourcePoint"/>
                        <mxPoint x="2540" y="650" as="targetPoint"/>
                    </mxGeometry>
                </mxCell>
                <mxCell id="172" value="" style="endArrow=classic;html=1;rounded=0;entryX=0.5;entryY=1;entryDx=0;entryDy=0;exitX=0.25;exitY=0;exitDx=0;exitDy=0;" parent="1" source="168" target="153" edge="1">
                    <mxGeometry width="50" height="50" relative="1" as="geometry">
                        <mxPoint x="2640" y="830" as="sourcePoint"/>
                        <mxPoint x="2417" y="660" as="targetPoint"/>
                    </mxGeometry>
                </mxCell>
                <mxCell id="173" value="" style="group" parent="1" vertex="1" connectable="0">
                    <mxGeometry x="2800" y="560" width="80" height="110" as="geometry"/>
                </mxCell>
                <mxCell id="174" value="fb_1" style="ellipse;whiteSpace=wrap;html=1;aspect=fixed;fillColor=#FFCCE6;strokeColor=#82b366;" parent="173" vertex="1">
                    <mxGeometry y="30" width="80" height="80" as="geometry"/>
                </mxCell>
                <mxCell id="175" value="f_1_2" style="rounded=0;whiteSpace=wrap;html=1;fillColor=#FFCCE6;strokeColor=#82b366;" parent="1" vertex="1">
                    <mxGeometry x="2815" y="670" width="49" height="30" as="geometry"/>
                </mxCell>
                <mxCell id="176" value="" style="endArrow=classic;html=1;rounded=0;entryX=0;entryY=0.5;entryDx=0;entryDy=0;exitX=0.5;exitY=0;exitDx=0;exitDy=0;" parent="1" source="168" target="185" edge="1">
                    <mxGeometry width="50" height="50" relative="1" as="geometry">
                        <mxPoint x="2727" y="840" as="sourcePoint"/>
                        <mxPoint x="2670" y="660" as="targetPoint"/>
                    </mxGeometry>
                </mxCell>
                <mxCell id="177" value="" style="endArrow=classic;html=1;rounded=0;exitX=0.5;exitY=0;exitDx=0;exitDy=0;entryX=0;entryY=0.25;entryDx=0;entryDy=0;" parent="1" source="158" target="175" edge="1">
                    <mxGeometry width="50" height="50" relative="1" as="geometry">
                        <mxPoint x="2431" y="840" as="sourcePoint"/>
                        <mxPoint x="2820" y="700" as="targetPoint"/>
                    </mxGeometry>
                </mxCell>
                <mxCell id="178" value="" style="endArrow=classic;html=1;rounded=0;exitX=0.5;exitY=0;exitDx=0;exitDy=0;" parent="1" source="163" edge="1">
                    <mxGeometry width="50" height="50" relative="1" as="geometry">
                        <mxPoint x="2621" y="840" as="sourcePoint"/>
                        <mxPoint x="2814" y="710" as="targetPoint"/>
                    </mxGeometry>
                </mxCell>
                <mxCell id="179" value="File &quot;network.txt&quot;" style="swimlane;fontStyle=0;childLayout=stackLayout;horizontal=1;startSize=30;horizontalStack=0;resizeParent=1;resizeParentMax=0;resizeLast=0;collapsible=1;marginBottom=0;whiteSpace=wrap;html=1;fillColor=#ccccff;" parent="1" vertex="1">
                    <mxGeometry x="2274" y="970" width="320" height="150" as="geometry"/>
                </mxCell>
                <mxCell id="180" value="fb_1 :&amp;nbsp;&lt;span style=&quot;text-align: center;&quot;&gt;FlowBasedN1N2N3&lt;/span&gt;" style="text;strokeColor=none;fillColor=none;align=left;verticalAlign=middle;spacingLeft=4;spacingRight=4;overflow=hidden;points=[[0,0.5],[1,0.5]];portConstraint=eastwest;rotatable=0;whiteSpace=wrap;html=1;" parent="179" vertex="1">
                    <mxGeometry y="30" width="320" height="30" as="geometry"/>
                </mxCell>
                <mxCell id="181" value="fb_1.f_1_2 l_1_2.flow_to" style="text;strokeColor=none;fillColor=none;align=left;verticalAlign=middle;spacingLeft=4;spacingRight=4;overflow=hidden;points=[[0,0.5],[1,0.5]];portConstraint=eastwest;rotatable=0;whiteSpace=wrap;html=1;" parent="179" vertex="1">
                    <mxGeometry y="60" width="320" height="30" as="geometry"/>
                </mxCell>
                <mxCell id="182" value="fb_1.f_1_3 l_1_3.flow_to" style="text;strokeColor=none;fillColor=none;align=left;verticalAlign=middle;spacingLeft=4;spacingRight=4;overflow=hidden;points=[[0,0.5],[1,0.5]];portConstraint=eastwest;rotatable=0;whiteSpace=wrap;html=1;" parent="179" vertex="1">
                    <mxGeometry y="90" width="320" height="30" as="geometry"/>
                </mxCell>
                <mxCell id="183" value="fb_1.f_2_3 l_2_3.flow_to" style="text;strokeColor=none;fillColor=none;align=left;verticalAlign=middle;spacingLeft=4;spacingRight=4;overflow=hidden;points=[[0,0.5],[1,0.5]];portConstraint=eastwest;rotatable=0;whiteSpace=wrap;html=1;" parent="179" vertex="1">
                    <mxGeometry y="120" width="320" height="30" as="geometry"/>
                </mxCell>
                <mxCell id="184" value="f_1_3" style="rounded=0;whiteSpace=wrap;html=1;fillColor=#FFCCE6;strokeColor=#82b366;" parent="1" vertex="1">
                    <mxGeometry x="2815" y="700" width="49" height="30" as="geometry"/>
                </mxCell>
                <mxCell id="185" value="f_2_3" style="rounded=0;whiteSpace=wrap;html=1;fillColor=#FFCCE6;strokeColor=#82b366;" parent="1" vertex="1">
                    <mxGeometry x="2815" y="730" width="49" height="30" as="geometry"/>
                </mxCell>
                <mxCell id="1DZpEdA2Pz-2I5nbqVrt-185" value="min&amp;nbsp;&amp;nbsp;&lt;span style=&quot;&quot;&gt;&lt;/span&gt;production costs + balance costs&lt;br&gt;s.t.&amp;nbsp;&lt;span style=&quot;&quot;&gt;&amp;nbsp; a_1_i * flow_1_2 + a_2_i * flow_1_3 + a_3_i * flow_2_3 &amp;lt;= b_i forall i in 1,...,nb_constraints_flow_based&lt;/span&gt;&amp;nbsp; &amp;nbsp;&lt;br&gt;&lt;span style=&quot;&quot;&gt;&#9;&lt;/span&gt;&lt;span style=&quot;white-space: pre;&quot;&gt;&#9;&lt;/span&gt;balance at elec node&lt;br&gt;&lt;span style=&quot;&quot;&gt;&#9;&lt;/span&gt;&lt;span style=&quot;white-space: pre;&quot;&gt;&#9;&lt;/span&gt;production constraints" style="text;html=1;strokeColor=#CCCCFF;fillColor=none;align=left;verticalAlign=middle;whiteSpace=wrap;rounded=0;dashed=1;dashPattern=1 1;strokeWidth=2;" parent="1" vertex="1">
                    <mxGeometry x="-46" y="-130" width="620" height="70" as="geometry"/>
                </mxCell>
                <mxCell id="1DZpEdA2Pz-2I5nbqVrt-186" value="&lt;i&gt;We represent a network with flow based constraints. Constraints are applied on flow between nodes. The number of constraints depends on time and scenario.&lt;/i&gt;" style="text;html=1;strokeColor=#FFCCCC;fillColor=none;align=left;verticalAlign=middle;whiteSpace=wrap;rounded=0;dashed=1;strokeWidth=2;" parent="1" vertex="1">
                    <mxGeometry x="-80" y="-270" width="534" height="40" as="geometry"/>
                </mxCell>
                <mxCell id="jZK0nrupG1GRHjHEZKaM-185" value="FlowBasedN1N2N3 : Model" style="swimlane;fontStyle=0;childLayout=stackLayout;horizontal=1;startSize=30;horizontalStack=0;resizeParent=1;resizeParentMax=0;resizeLast=0;collapsible=1;marginBottom=0;whiteSpace=wrap;html=1;fillColor=#CCFFCC;" parent="1" vertex="1">
                    <mxGeometry x="1984" y="-80" width="490" height="90" as="geometry"/>
                </mxCell>
                <mxCell id="jZK0nrupG1GRHjHEZKaM-188" value="f_1_2, f_2_3, f_1_3 : Flow" style="text;strokeColor=none;fillColor=none;align=left;verticalAlign=middle;spacingLeft=4;spacingRight=4;overflow=hidden;points=[[0,0.5],[1,0.5]];portConstraint=eastwest;rotatable=0;whiteSpace=wrap;html=1;" parent="jZK0nrupG1GRHjHEZKaM-185" vertex="1">
                    <mxGeometry y="30" width="490" height="30" as="geometry"/>
                </mxCell>
                <mxCell id="jZK0nrupG1GRHjHEZKaM-187" value="a_1_2*f_1_2.f.sum()&amp;nbsp;+ a_2_3*f_1_3.f.sum()+ a_1_3*f_2_3.f.sum()&amp;nbsp;&amp;lt;= b" style="text;strokeColor=none;fillColor=none;align=left;verticalAlign=middle;spacingLeft=4;spacingRight=4;overflow=hidden;points=[[0,0.5],[1,0.5]];portConstraint=eastwest;rotatable=0;whiteSpace=wrap;html=1;" parent="jZK0nrupG1GRHjHEZKaM-185" vertex="1">
                    <mxGeometry y="60" width="490" height="30" as="geometry"/>
                </mxCell>
                <mxCell id="jZK0nrupG1GRHjHEZKaM-192" value="&lt;font style=&quot;&quot;&gt;&lt;b style=&quot;&quot;&gt;&lt;font style=&quot;font-size: 14px;&quot;&gt;Variante option 3&lt;/font&gt;&lt;br&gt;&lt;/b&gt;&lt;/font&gt;" style="text;html=1;strokeColor=none;fillColor=none;align=center;verticalAlign=middle;whiteSpace=wrap;rounded=0;" parent="1" vertex="1">
                    <mxGeometry x="1984" y="-120" width="220" height="40" as="geometry"/>
                </mxCell>
            </root>
        </mxGraphModel>
    </diagram>
    <diagram name="fb_on_net_positions_1" id="zBc59NHOi8Ohjp3LPiA7">
        <mxGraphModel dx="2029" dy="1762" grid="1" gridSize="10" guides="1" tooltips="1" connect="1" arrows="1" fold="1" page="1" pageScale="1" pageWidth="827" pageHeight="1169" math="0" shadow="0">
            <root>
                <mxCell id="Bg-Rxr5FVEn5OVDiF5Hx-0"/>
                <mxCell id="Bg-Rxr5FVEn5OVDiF5Hx-1" parent="Bg-Rxr5FVEn5OVDiF5Hx-0"/>
                <mxCell id="Bg-Rxr5FVEn5OVDiF5Hx-20" value="&lt;font style=&quot;font-size: 32px;&quot;&gt;&lt;b&gt;Models and ports&lt;br&gt;&lt;/b&gt;&lt;/font&gt;" style="text;html=1;strokeColor=none;fillColor=none;align=center;verticalAlign=middle;whiteSpace=wrap;rounded=0;" parent="Bg-Rxr5FVEn5OVDiF5Hx-1" vertex="1">
                    <mxGeometry x="950" y="-200" width="380" height="120" as="geometry"/>
                </mxCell>
                <mxCell id="Bg-Rxr5FVEn5OVDiF5Hx-21" value="&lt;font style=&quot;font-size: 32px;&quot;&gt;&lt;b style=&quot;border-color: var(--border-color); font-size: 12px;&quot;&gt;&lt;font style=&quot;border-color: var(--border-color); font-size: 24px;&quot;&gt;Data visualization&lt;/font&gt;&lt;/b&gt;&lt;b&gt;&lt;br&gt;&lt;/b&gt;&lt;/font&gt;" style="text;html=1;strokeColor=none;fillColor=none;align=center;verticalAlign=middle;whiteSpace=wrap;rounded=0;" parent="Bg-Rxr5FVEn5OVDiF5Hx-1" vertex="1">
                    <mxGeometry x="660" y="210" width="430" height="120" as="geometry"/>
                </mxCell>
                <mxCell id="Bg-Rxr5FVEn5OVDiF5Hx-59" value="" style="group" parent="Bg-Rxr5FVEn5OVDiF5Hx-1" vertex="1" connectable="0">
                    <mxGeometry x="630" y="740" width="80" height="110" as="geometry"/>
                </mxCell>
                <mxCell id="Bg-Rxr5FVEn5OVDiF5Hx-60" value="e_1" style="ellipse;whiteSpace=wrap;html=1;aspect=fixed;fillColor=#dae8fc;strokeColor=#6c8ebf;" parent="Bg-Rxr5FVEn5OVDiF5Hx-59" vertex="1">
                    <mxGeometry width="80" height="80" as="geometry"/>
                </mxCell>
                <mxCell id="Bg-Rxr5FVEn5OVDiF5Hx-61" value="flow_n" style="rounded=0;whiteSpace=wrap;html=1;fillColor=#dae8fc;strokeColor=#6c8ebf;" parent="Bg-Rxr5FVEn5OVDiF5Hx-59" vertex="1">
                    <mxGeometry x="15" y="80" width="50" height="30" as="geometry"/>
                </mxCell>
                <mxCell id="Bg-Rxr5FVEn5OVDiF5Hx-62" value="" style="group" parent="Bg-Rxr5FVEn5OVDiF5Hx-1" vertex="1" connectable="0">
                    <mxGeometry x="800" y="740" width="80" height="110" as="geometry"/>
                </mxCell>
                <mxCell id="Bg-Rxr5FVEn5OVDiF5Hx-63" value="e_2" style="ellipse;whiteSpace=wrap;html=1;aspect=fixed;fillColor=#dae8fc;strokeColor=#6c8ebf;" parent="Bg-Rxr5FVEn5OVDiF5Hx-62" vertex="1">
                    <mxGeometry width="80" height="80" as="geometry"/>
                </mxCell>
                <mxCell id="Bg-Rxr5FVEn5OVDiF5Hx-64" value="flow_n" style="rounded=0;whiteSpace=wrap;html=1;fillColor=#dae8fc;strokeColor=#6c8ebf;" parent="Bg-Rxr5FVEn5OVDiF5Hx-62" vertex="1">
                    <mxGeometry x="15" y="80" width="50" height="30" as="geometry"/>
                </mxCell>
                <mxCell id="Bg-Rxr5FVEn5OVDiF5Hx-65" value="" style="group" parent="Bg-Rxr5FVEn5OVDiF5Hx-1" vertex="1" connectable="0">
                    <mxGeometry x="960" y="740" width="80" height="110" as="geometry"/>
                </mxCell>
                <mxCell id="Bg-Rxr5FVEn5OVDiF5Hx-66" value="e_3" style="ellipse;whiteSpace=wrap;html=1;aspect=fixed;fillColor=#dae8fc;strokeColor=#6c8ebf;" parent="Bg-Rxr5FVEn5OVDiF5Hx-65" vertex="1">
                    <mxGeometry width="80" height="80" as="geometry"/>
                </mxCell>
                <mxCell id="Bg-Rxr5FVEn5OVDiF5Hx-67" value="flow_n" style="rounded=0;whiteSpace=wrap;html=1;fillColor=#dae8fc;strokeColor=#6c8ebf;" parent="Bg-Rxr5FVEn5OVDiF5Hx-65" vertex="1">
                    <mxGeometry x="15" y="80" width="50" height="30" as="geometry"/>
                </mxCell>
                <mxCell id="Bg-Rxr5FVEn5OVDiF5Hx-87" value="" style="group" parent="Bg-Rxr5FVEn5OVDiF5Hx-1" vertex="1" connectable="0">
                    <mxGeometry x="1206" y="440" width="80" height="110" as="geometry"/>
                </mxCell>
                <mxCell id="Bg-Rxr5FVEn5OVDiF5Hx-88" value="fb_1" style="ellipse;whiteSpace=wrap;html=1;aspect=fixed;fillColor=#FFCCE6;strokeColor=#82b366;" parent="Bg-Rxr5FVEn5OVDiF5Hx-87" vertex="1">
                    <mxGeometry y="30" width="80" height="80" as="geometry"/>
                </mxCell>
                <mxCell id="Bg-Rxr5FVEn5OVDiF5Hx-89" value="f_1" style="rounded=0;whiteSpace=wrap;html=1;fillColor=#FFCCE6;strokeColor=#82b366;" parent="Bg-Rxr5FVEn5OVDiF5Hx-1" vertex="1">
                    <mxGeometry x="1221" y="550" width="49" height="30" as="geometry"/>
                </mxCell>
                <mxCell id="Bg-Rxr5FVEn5OVDiF5Hx-90" value="" style="endArrow=classic;html=1;rounded=0;entryX=0;entryY=0.5;entryDx=0;entryDy=0;exitX=1;exitY=0.5;exitDx=0;exitDy=0;" parent="Bg-Rxr5FVEn5OVDiF5Hx-1" source="kZnKKsp3IthQduX6qkqC-6" target="Bg-Rxr5FVEn5OVDiF5Hx-116" edge="1">
                    <mxGeometry width="50" height="50" relative="1" as="geometry">
                        <mxPoint x="1026.73" y="850" as="sourcePoint"/>
                        <mxPoint x="1086" y="680" as="targetPoint"/>
                    </mxGeometry>
                </mxCell>
                <mxCell id="Bg-Rxr5FVEn5OVDiF5Hx-91" value="" style="endArrow=classic;html=1;rounded=0;exitX=1;exitY=0.25;exitDx=0;exitDy=0;entryX=0;entryY=0.25;entryDx=0;entryDy=0;" parent="Bg-Rxr5FVEn5OVDiF5Hx-1" source="kZnKKsp3IthQduX6qkqC-4" target="Bg-Rxr5FVEn5OVDiF5Hx-89" edge="1">
                    <mxGeometry width="50" height="50" relative="1" as="geometry">
                        <mxPoint x="671" y="850" as="sourcePoint"/>
                        <mxPoint x="1236" y="720" as="targetPoint"/>
                    </mxGeometry>
                </mxCell>
                <mxCell id="Bg-Rxr5FVEn5OVDiF5Hx-92" value="" style="endArrow=classic;html=1;rounded=0;exitX=1;exitY=0.5;exitDx=0;exitDy=0;entryX=0;entryY=0.5;entryDx=0;entryDy=0;" parent="Bg-Rxr5FVEn5OVDiF5Hx-1" source="kZnKKsp3IthQduX6qkqC-5" target="Bg-Rxr5FVEn5OVDiF5Hx-115" edge="1">
                    <mxGeometry width="50" height="50" relative="1" as="geometry">
                        <mxPoint x="836.73" y="850" as="sourcePoint"/>
                        <mxPoint x="1230" y="730" as="targetPoint"/>
                    </mxGeometry>
                </mxCell>
                <mxCell id="Bg-Rxr5FVEn5OVDiF5Hx-93" value="N1" style="ellipse;whiteSpace=wrap;html=1;aspect=fixed;" parent="Bg-Rxr5FVEn5OVDiF5Hx-1" vertex="1">
                    <mxGeometry x="160" y="-20.400000000000006" width="80" height="80" as="geometry"/>
                </mxCell>
                <mxCell id="Bg-Rxr5FVEn5OVDiF5Hx-94" value="N2" style="ellipse;whiteSpace=wrap;html=1;aspect=fixed;" parent="Bg-Rxr5FVEn5OVDiF5Hx-1" vertex="1">
                    <mxGeometry x="374" y="-20.400000000000006" width="80" height="80" as="geometry"/>
                </mxCell>
                <mxCell id="Bg-Rxr5FVEn5OVDiF5Hx-95" value="N3" style="ellipse;whiteSpace=wrap;html=1;aspect=fixed;" parent="Bg-Rxr5FVEn5OVDiF5Hx-1" vertex="1">
                    <mxGeometry x="260" y="159.6" width="80" height="80" as="geometry"/>
                </mxCell>
                <mxCell id="Bg-Rxr5FVEn5OVDiF5Hx-96" value="" style="endArrow=none;html=1;rounded=0;exitX=1;exitY=1;exitDx=0;exitDy=0;entryX=0;entryY=0;entryDx=0;entryDy=0;" parent="Bg-Rxr5FVEn5OVDiF5Hx-1" source="Bg-Rxr5FVEn5OVDiF5Hx-93" target="Bg-Rxr5FVEn5OVDiF5Hx-95" edge="1">
                    <mxGeometry width="50" height="50" relative="1" as="geometry">
                        <mxPoint x="390" y="259.6" as="sourcePoint"/>
                        <mxPoint x="440" y="209.6" as="targetPoint"/>
                    </mxGeometry>
                </mxCell>
                <mxCell id="Bg-Rxr5FVEn5OVDiF5Hx-97" value="" style="endArrow=none;html=1;rounded=0;exitX=1;exitY=0.5;exitDx=0;exitDy=0;entryX=0;entryY=0.5;entryDx=0;entryDy=0;" parent="Bg-Rxr5FVEn5OVDiF5Hx-1" source="Bg-Rxr5FVEn5OVDiF5Hx-93" target="Bg-Rxr5FVEn5OVDiF5Hx-94" edge="1">
                    <mxGeometry width="50" height="50" relative="1" as="geometry">
                        <mxPoint x="210" y="69.6" as="sourcePoint"/>
                        <mxPoint x="272" y="171.6" as="targetPoint"/>
                    </mxGeometry>
                </mxCell>
                <mxCell id="Bg-Rxr5FVEn5OVDiF5Hx-98" value="" style="endArrow=none;html=1;rounded=0;exitX=0;exitY=1;exitDx=0;exitDy=0;entryX=1;entryY=0;entryDx=0;entryDy=0;" parent="Bg-Rxr5FVEn5OVDiF5Hx-1" source="Bg-Rxr5FVEn5OVDiF5Hx-94" target="Bg-Rxr5FVEn5OVDiF5Hx-95" edge="1">
                    <mxGeometry width="50" height="50" relative="1" as="geometry">
                        <mxPoint x="210" y="69.6" as="sourcePoint"/>
                        <mxPoint x="272" y="171.6" as="targetPoint"/>
                    </mxGeometry>
                </mxCell>
                <mxCell id="Bg-Rxr5FVEn5OVDiF5Hx-100" value="File &quot;network.txt&quot;" style="swimlane;fontStyle=0;childLayout=stackLayout;horizontal=1;startSize=30;horizontalStack=0;resizeParent=1;resizeParentMax=0;resizeLast=0;collapsible=1;marginBottom=0;whiteSpace=wrap;html=1;fillColor=#ccccff;" parent="Bg-Rxr5FVEn5OVDiF5Hx-1" vertex="1">
                    <mxGeometry x="-46" y="480" width="320" height="180" as="geometry"/>
                </mxCell>
                <mxCell id="Bg-Rxr5FVEn5OVDiF5Hx-101" value="e_1, e_2, e_3 : NodeWithFB" style="text;strokeColor=none;fillColor=none;align=left;verticalAlign=middle;spacingLeft=4;spacingRight=4;overflow=hidden;points=[[0,0.5],[1,0.5]];portConstraint=eastwest;rotatable=0;whiteSpace=wrap;html=1;" parent="Bg-Rxr5FVEn5OVDiF5Hx-100" vertex="1">
                    <mxGeometry y="30" width="320" height="30" as="geometry"/>
                </mxCell>
                <mxCell id="Bg-Rxr5FVEn5OVDiF5Hx-111" value="fb_1 :&amp;nbsp;&lt;span style=&quot;text-align: center;&quot;&gt;FlowBased3Nodes&lt;/span&gt;" style="text;strokeColor=none;fillColor=none;align=left;verticalAlign=middle;spacingLeft=4;spacingRight=4;overflow=hidden;points=[[0,0.5],[1,0.5]];portConstraint=eastwest;rotatable=0;whiteSpace=wrap;html=1;" parent="Bg-Rxr5FVEn5OVDiF5Hx-100" vertex="1">
                    <mxGeometry y="60" width="320" height="30" as="geometry"/>
                </mxCell>
                <mxCell id="Bg-Rxr5FVEn5OVDiF5Hx-112" value="fb_1.f_1 e_1.flow_net_pos" style="text;strokeColor=none;fillColor=none;align=left;verticalAlign=middle;spacingLeft=4;spacingRight=4;overflow=hidden;points=[[0,0.5],[1,0.5]];portConstraint=eastwest;rotatable=0;whiteSpace=wrap;html=1;" parent="Bg-Rxr5FVEn5OVDiF5Hx-100" vertex="1">
                    <mxGeometry y="90" width="320" height="30" as="geometry"/>
                </mxCell>
                <mxCell id="koNSt_o8uguRtjdB3Mle-0" value="fb_1.f_2 e_2.flow_net_pos" style="text;strokeColor=none;fillColor=none;align=left;verticalAlign=middle;spacingLeft=4;spacingRight=4;overflow=hidden;points=[[0,0.5],[1,0.5]];portConstraint=eastwest;rotatable=0;whiteSpace=wrap;html=1;" parent="Bg-Rxr5FVEn5OVDiF5Hx-100" vertex="1">
                    <mxGeometry y="120" width="320" height="30" as="geometry"/>
                </mxCell>
                <mxCell id="koNSt_o8uguRtjdB3Mle-1" value="fb_1.f_3 e_3.flow_net_pos" style="text;strokeColor=none;fillColor=none;align=left;verticalAlign=middle;spacingLeft=4;spacingRight=4;overflow=hidden;points=[[0,0.5],[1,0.5]];portConstraint=eastwest;rotatable=0;whiteSpace=wrap;html=1;" parent="Bg-Rxr5FVEn5OVDiF5Hx-100" vertex="1">
                    <mxGeometry y="150" width="320" height="30" as="geometry"/>
                </mxCell>
                <mxCell id="Bg-Rxr5FVEn5OVDiF5Hx-109" value="&lt;h1&gt;Study data&lt;/h1&gt;" style="text;html=1;strokeColor=none;fillColor=none;spacing=5;spacingTop=-20;whiteSpace=wrap;overflow=hidden;rounded=0;align=center;" parent="Bg-Rxr5FVEn5OVDiF5Hx-1" vertex="1">
                    <mxGeometry x="-16" y="400" width="250" height="40" as="geometry"/>
                </mxCell>
                <mxCell id="Bg-Rxr5FVEn5OVDiF5Hx-115" value="f_2" style="rounded=0;whiteSpace=wrap;html=1;fillColor=#FFCCE6;strokeColor=#82b366;" parent="Bg-Rxr5FVEn5OVDiF5Hx-1" vertex="1">
                    <mxGeometry x="1221" y="580" width="49" height="30" as="geometry"/>
                </mxCell>
                <mxCell id="Bg-Rxr5FVEn5OVDiF5Hx-116" value="f_3" style="rounded=0;whiteSpace=wrap;html=1;fillColor=#FFCCE6;strokeColor=#82b366;" parent="Bg-Rxr5FVEn5OVDiF5Hx-1" vertex="1">
                    <mxGeometry x="1221" y="610" width="49" height="30" as="geometry"/>
                </mxCell>
                <mxCell id="BRfWTKK0i5Tp3Xzu7-xc-0" value="FlowBased3Nodes : Model" style="swimlane;fontStyle=0;childLayout=stackLayout;horizontal=1;startSize=30;horizontalStack=0;resizeParent=1;resizeParentMax=0;resizeLast=0;collapsible=1;marginBottom=0;whiteSpace=wrap;html=1;fillColor=#CCFFCC;" parent="Bg-Rxr5FVEn5OVDiF5Hx-1" vertex="1">
                    <mxGeometry x="1131" y="-80" width="220" height="240" as="geometry"/>
                </mxCell>
                <mxCell id="BRfWTKK0i5Tp3Xzu7-xc-1" value="x_1, x_2, x_3 : Variable" style="text;strokeColor=none;fillColor=none;align=left;verticalAlign=middle;spacingLeft=4;spacingRight=4;overflow=hidden;points=[[0,0.5],[1,0.5]];portConstraint=eastwest;rotatable=0;whiteSpace=wrap;html=1;" parent="BRfWTKK0i5Tp3Xzu7-xc-0" vertex="1">
                    <mxGeometry y="30" width="220" height="30" as="geometry"/>
                </mxCell>
                <mxCell id="BRfWTKK0i5Tp3Xzu7-xc-2" value="a_1, a_2, a_3, b : Parameter" style="text;strokeColor=none;fillColor=none;align=left;verticalAlign=middle;spacingLeft=4;spacingRight=4;overflow=hidden;points=[[0,0.5],[1,0.5]];portConstraint=eastwest;rotatable=0;whiteSpace=wrap;html=1;" parent="BRfWTKK0i5Tp3Xzu7-xc-0" vertex="1">
                    <mxGeometry y="60" width="220" height="30" as="geometry"/>
                </mxCell>
                <mxCell id="BRfWTKK0i5Tp3Xzu7-xc-3" value="a_1*x_1 + a_2*x_2 + a_3*x_3 &amp;lt;= b" style="text;strokeColor=none;fillColor=none;align=left;verticalAlign=middle;spacingLeft=4;spacingRight=4;overflow=hidden;points=[[0,0.5],[1,0.5]];portConstraint=eastwest;rotatable=0;whiteSpace=wrap;html=1;" parent="BRfWTKK0i5Tp3Xzu7-xc-0" vertex="1">
                    <mxGeometry y="90" width="220" height="30" as="geometry"/>
                </mxCell>
                <mxCell id="BRfWTKK0i5Tp3Xzu7-xc-4" value="f_1, f_2, f_3 : Flow" style="text;strokeColor=none;fillColor=none;align=left;verticalAlign=middle;spacingLeft=4;spacingRight=4;overflow=hidden;points=[[0,0.5],[1,0.5]];portConstraint=eastwest;rotatable=0;whiteSpace=wrap;html=1;" parent="BRfWTKK0i5Tp3Xzu7-xc-0" vertex="1">
                    <mxGeometry y="120" width="220" height="30" as="geometry"/>
                </mxCell>
                <mxCell id="BRfWTKK0i5Tp3Xzu7-xc-5" value="f_1.f.sum() = x_1" style="text;strokeColor=none;fillColor=none;align=left;verticalAlign=middle;spacingLeft=4;spacingRight=4;overflow=hidden;points=[[0,0.5],[1,0.5]];portConstraint=eastwest;rotatable=0;whiteSpace=wrap;html=1;" parent="BRfWTKK0i5Tp3Xzu7-xc-0" vertex="1">
                    <mxGeometry y="150" width="220" height="30" as="geometry"/>
                </mxCell>
                <mxCell id="BRfWTKK0i5Tp3Xzu7-xc-6" value="f_3.f.sum() = x_3" style="text;strokeColor=none;fillColor=none;align=left;verticalAlign=middle;spacingLeft=4;spacingRight=4;overflow=hidden;points=[[0,0.5],[1,0.5]];portConstraint=eastwest;rotatable=0;whiteSpace=wrap;html=1;" parent="BRfWTKK0i5Tp3Xzu7-xc-0" vertex="1">
                    <mxGeometry y="180" width="220" height="30" as="geometry"/>
                </mxCell>
                <mxCell id="BRfWTKK0i5Tp3Xzu7-xc-7" value="f_2.f.sum() = x_2" style="text;strokeColor=none;fillColor=none;align=left;verticalAlign=middle;spacingLeft=4;spacingRight=4;overflow=hidden;points=[[0,0.5],[1,0.5]];portConstraint=eastwest;rotatable=0;whiteSpace=wrap;html=1;" parent="BRfWTKK0i5Tp3Xzu7-xc-0" vertex="1">
                    <mxGeometry y="210" width="220" height="30" as="geometry"/>
                </mxCell>
                <mxCell id="kZnKKsp3IthQduX6qkqC-0" value="&lt;font style=&quot;font-size: 32px;&quot;&gt;&lt;b&gt;Physical system&lt;br&gt;&lt;/b&gt;&lt;/font&gt;" style="text;html=1;strokeColor=none;fillColor=none;align=center;verticalAlign=middle;whiteSpace=wrap;rounded=0;" parent="Bg-Rxr5FVEn5OVDiF5Hx-1" vertex="1">
                    <mxGeometry x="87" y="-260" width="380" height="120" as="geometry"/>
                </mxCell>
                <mxCell id="kZnKKsp3IthQduX6qkqC-1" value="min&amp;nbsp;&amp;nbsp;&lt;span style=&quot;&quot;&gt;&lt;/span&gt;production costs + balance costs&lt;br&gt;s.t.&amp;nbsp;&lt;span style=&quot;&quot;&gt;&amp;nbsp; a_1_i * net_pos_1 + a_2_i * net_pos_2 + a_3_i * net_pos_3 &amp;lt;= b_i forall i in 1,...,nb_constraints_flow_based&lt;/span&gt;&amp;nbsp; &amp;nbsp;&lt;br&gt;&lt;span style=&quot;&quot;&gt;&#9;&lt;/span&gt;&lt;span style=&quot;white-space: pre;&quot;&gt;&#9;&lt;/span&gt;production - consumption + energy_not_served - spillage + net_position = 0 for each node&lt;br&gt;&lt;span style=&quot;&quot;&gt;&#9;&lt;/span&gt;&lt;span style=&quot;white-space: pre;&quot;&gt;&#9;&lt;/span&gt;production constraints" style="text;html=1;strokeColor=#CCCCFF;fillColor=none;align=left;verticalAlign=middle;whiteSpace=wrap;rounded=0;dashed=1;dashPattern=1 1;strokeWidth=2;" parent="Bg-Rxr5FVEn5OVDiF5Hx-1" vertex="1">
                    <mxGeometry x="-46" y="-130" width="620" height="70" as="geometry"/>
                </mxCell>
                <mxCell id="kZnKKsp3IthQduX6qkqC-2" value="&lt;i&gt;We represent a network with flow based constraints. Constraints are applied on net position of nodes. The number of constraints depends on time and scenario.&lt;/i&gt;" style="text;html=1;strokeColor=#FFCCCC;fillColor=none;align=left;verticalAlign=middle;whiteSpace=wrap;rounded=0;dashed=1;strokeWidth=2;" parent="Bg-Rxr5FVEn5OVDiF5Hx-1" vertex="1">
                    <mxGeometry x="-80" y="-270" width="534" height="40" as="geometry"/>
                </mxCell>
                <mxCell id="kZnKKsp3IthQduX6qkqC-4" value="flow_net_pos" style="rounded=0;whiteSpace=wrap;html=1;fillColor=#dae8fc;strokeColor=#6c8ebf;" parent="Bg-Rxr5FVEn5OVDiF5Hx-1" vertex="1">
                    <mxGeometry x="632.5" y="710" width="75" height="30" as="geometry"/>
                </mxCell>
                <mxCell id="kZnKKsp3IthQduX6qkqC-5" value="flow_net_pos" style="rounded=0;whiteSpace=wrap;html=1;fillColor=#dae8fc;strokeColor=#6c8ebf;" parent="Bg-Rxr5FVEn5OVDiF5Hx-1" vertex="1">
                    <mxGeometry x="802.5" y="710" width="75" height="30" as="geometry"/>
                </mxCell>
                <mxCell id="kZnKKsp3IthQduX6qkqC-6" value="flow_net_pos" style="rounded=0;whiteSpace=wrap;html=1;fillColor=#dae8fc;strokeColor=#6c8ebf;" parent="Bg-Rxr5FVEn5OVDiF5Hx-1" vertex="1">
                    <mxGeometry x="962.5" y="710" width="75" height="30" as="geometry"/>
                </mxCell>
                <mxCell id="xrB-5kI4u8ElqvRwaHip-0" value="NodeWithFB : Model" style="swimlane;fontStyle=0;childLayout=stackLayout;horizontal=1;startSize=30;horizontalStack=0;resizeParent=1;resizeParentMax=0;resizeLast=0;collapsible=1;marginBottom=0;whiteSpace=wrap;html=1;fillColor=#CCFFCC;fontColor=#000000;" parent="Bg-Rxr5FVEn5OVDiF5Hx-1" vertex="1">
                    <mxGeometry x="790" y="-80" width="290" height="270" as="geometry"/>
                </mxCell>
                <mxCell id="xrB-5kI4u8ElqvRwaHip-1" value="c_spill, c_ens : Parameter" style="text;strokeColor=none;fillColor=none;align=left;verticalAlign=middle;spacingLeft=4;spacingRight=4;overflow=hidden;points=[[0,0.5],[1,0.5]];portConstraint=eastwest;rotatable=0;whiteSpace=wrap;html=1;" parent="xrB-5kI4u8ElqvRwaHip-0" vertex="1">
                    <mxGeometry y="30" width="290" height="30" as="geometry"/>
                </mxCell>
                <mxCell id="xrB-5kI4u8ElqvRwaHip-2" value="spillage, ens : Variable" style="text;strokeColor=none;fillColor=none;align=left;verticalAlign=middle;spacingLeft=4;spacingRight=4;overflow=hidden;points=[[0,0.5],[1,0.5]];portConstraint=eastwest;rotatable=0;whiteSpace=wrap;html=1;" parent="xrB-5kI4u8ElqvRwaHip-0" vertex="1">
                    <mxGeometry y="60" width="290" height="30" as="geometry"/>
                </mxCell>
                <mxCell id="BRfWTKK0i5Tp3Xzu7-xc-14" value="net_pos : Variable" style="text;strokeColor=none;fillColor=none;align=left;verticalAlign=middle;spacingLeft=4;spacingRight=4;overflow=hidden;points=[[0,0.5],[1,0.5]];portConstraint=eastwest;rotatable=0;whiteSpace=wrap;html=1;" parent="xrB-5kI4u8ElqvRwaHip-0" vertex="1">
                    <mxGeometry y="90" width="290" height="30" as="geometry"/>
                </mxCell>
                <mxCell id="xrB-5kI4u8ElqvRwaHip-3" value="spillage, ens &amp;gt;= 0" style="text;strokeColor=none;fillColor=none;align=left;verticalAlign=middle;spacingLeft=4;spacingRight=4;overflow=hidden;points=[[0,0.5],[1,0.5]];portConstraint=eastwest;rotatable=0;whiteSpace=wrap;html=1;" parent="xrB-5kI4u8ElqvRwaHip-0" vertex="1">
                    <mxGeometry y="120" width="290" height="30" as="geometry"/>
                </mxCell>
                <mxCell id="xrB-5kI4u8ElqvRwaHip-4" value="c_spill*spillage + c_ens*ens : ObjectiveContribution" style="text;strokeColor=none;fillColor=none;align=left;verticalAlign=middle;spacingLeft=4;spacingRight=4;overflow=hidden;points=[[0,0.5],[1,0.5]];portConstraint=eastwest;rotatable=0;whiteSpace=wrap;html=1;" parent="xrB-5kI4u8ElqvRwaHip-0" vertex="1">
                    <mxGeometry y="150" width="290" height="30" as="geometry"/>
                </mxCell>
                <mxCell id="xrB-5kI4u8ElqvRwaHip-5" value="flow_n : Flow" style="text;strokeColor=none;fillColor=none;align=left;verticalAlign=middle;spacingLeft=4;spacingRight=4;overflow=hidden;points=[[0,0.5],[1,0.5]];portConstraint=eastwest;rotatable=0;whiteSpace=wrap;html=1;" parent="xrB-5kI4u8ElqvRwaHip-0" vertex="1">
                    <mxGeometry y="180" width="290" height="30" as="geometry"/>
                </mxCell>
                <mxCell id="xrB-5kI4u8ElqvRwaHip-6" value="flow_n.f.sum() = spillage - ens - net_pos" style="text;strokeColor=none;fillColor=none;align=left;verticalAlign=middle;spacingLeft=4;spacingRight=4;overflow=hidden;points=[[0,0.5],[1,0.5]];portConstraint=eastwest;rotatable=0;whiteSpace=wrap;html=1;" parent="xrB-5kI4u8ElqvRwaHip-0" vertex="1">
                    <mxGeometry y="210" width="290" height="30" as="geometry"/>
                </mxCell>
                <mxCell id="kZnKKsp3IthQduX6qkqC-3" value="flow_net_pos.f = net_pos" style="text;strokeColor=none;fillColor=none;align=left;verticalAlign=middle;spacingLeft=4;spacingRight=4;overflow=hidden;points=[[0,0.5],[1,0.5]];portConstraint=eastwest;rotatable=0;whiteSpace=wrap;html=1;" parent="xrB-5kI4u8ElqvRwaHip-0" vertex="1">
                    <mxGeometry y="240" width="290" height="30" as="geometry"/>
                </mxCell>
            </root>
        </mxGraphModel>
    </diagram>
    <diagram name="fb_on_net_positions_2" id="rdu02BuAxFKNg-r7Wbhu">
        <mxGraphModel dx="2029" dy="1762" grid="1" gridSize="10" guides="1" tooltips="1" connect="1" arrows="1" fold="1" page="1" pageScale="1" pageWidth="827" pageHeight="1169" math="0" shadow="0">
            <root>
                <mxCell id="meIZw1yJaA2Gq3ijwy9A-0"/>
                <mxCell id="meIZw1yJaA2Gq3ijwy9A-1" parent="meIZw1yJaA2Gq3ijwy9A-0"/>
                <mxCell id="meIZw1yJaA2Gq3ijwy9A-20" value="&lt;font style=&quot;font-size: 32px;&quot;&gt;&lt;b&gt;Models and ports&lt;br&gt;&lt;/b&gt;&lt;/font&gt;" style="text;html=1;strokeColor=none;fillColor=none;align=center;verticalAlign=middle;whiteSpace=wrap;rounded=0;" parent="meIZw1yJaA2Gq3ijwy9A-1" vertex="1">
                    <mxGeometry x="950" y="-200" width="380" height="120" as="geometry"/>
                </mxCell>
                <mxCell id="meIZw1yJaA2Gq3ijwy9A-21" value="&lt;font style=&quot;font-size: 32px;&quot;&gt;&lt;b style=&quot;border-color: var(--border-color); font-size: 12px;&quot;&gt;&lt;font style=&quot;border-color: var(--border-color); font-size: 24px;&quot;&gt;Data visualization&lt;/font&gt;&lt;/b&gt;&lt;b&gt;&lt;br&gt;&lt;/b&gt;&lt;/font&gt;" style="text;html=1;strokeColor=none;fillColor=none;align=center;verticalAlign=middle;whiteSpace=wrap;rounded=0;" parent="meIZw1yJaA2Gq3ijwy9A-1" vertex="1">
                    <mxGeometry x="640" y="420" width="430" height="120" as="geometry"/>
                </mxCell>
                <mxCell id="meIZw1yJaA2Gq3ijwy9A-22" value="" style="endArrow=classic;html=1;rounded=0;exitX=0.5;exitY=0;exitDx=0;exitDy=0;" parent="meIZw1yJaA2Gq3ijwy9A-1" source="meIZw1yJaA2Gq3ijwy9A-71" edge="1">
                    <mxGeometry width="50" height="50" relative="1" as="geometry">
                        <mxPoint x="477" y="760" as="sourcePoint"/>
                        <mxPoint x="650" y="670" as="targetPoint"/>
                    </mxGeometry>
                </mxCell>
                <mxCell id="meIZw1yJaA2Gq3ijwy9A-23" value="" style="endArrow=classic;html=1;rounded=0;exitX=0.25;exitY=0;exitDx=0;exitDy=0;entryX=0;entryY=0.75;entryDx=0;entryDy=0;" parent="meIZw1yJaA2Gq3ijwy9A-1" source="meIZw1yJaA2Gq3ijwy9A-77" target="meIZw1yJaA2Gq3ijwy9A-67" edge="1">
                    <mxGeometry width="50" height="50" relative="1" as="geometry">
                        <mxPoint x="829" y="860" as="sourcePoint"/>
                        <mxPoint x="960" y="660" as="targetPoint"/>
                    </mxGeometry>
                </mxCell>
                <mxCell id="meIZw1yJaA2Gq3ijwy9A-59" value="" style="group" parent="meIZw1yJaA2Gq3ijwy9A-1" vertex="1" connectable="0">
                    <mxGeometry x="600" y="560" width="80" height="110" as="geometry"/>
                </mxCell>
                <mxCell id="meIZw1yJaA2Gq3ijwy9A-60" value="e_1" style="ellipse;whiteSpace=wrap;html=1;aspect=fixed;fillColor=#dae8fc;strokeColor=#6c8ebf;" parent="meIZw1yJaA2Gq3ijwy9A-59" vertex="1">
                    <mxGeometry width="80" height="80" as="geometry"/>
                </mxCell>
                <mxCell id="meIZw1yJaA2Gq3ijwy9A-61" value="flow_n" style="rounded=0;whiteSpace=wrap;html=1;fillColor=#dae8fc;strokeColor=#6c8ebf;" parent="meIZw1yJaA2Gq3ijwy9A-59" vertex="1">
                    <mxGeometry x="15" y="80" width="50" height="30" as="geometry"/>
                </mxCell>
                <mxCell id="meIZw1yJaA2Gq3ijwy9A-62" value="" style="group" parent="meIZw1yJaA2Gq3ijwy9A-1" vertex="1" connectable="0">
                    <mxGeometry x="770" y="560" width="80" height="110" as="geometry"/>
                </mxCell>
                <mxCell id="meIZw1yJaA2Gq3ijwy9A-63" value="e_2" style="ellipse;whiteSpace=wrap;html=1;aspect=fixed;fillColor=#dae8fc;strokeColor=#6c8ebf;" parent="meIZw1yJaA2Gq3ijwy9A-62" vertex="1">
                    <mxGeometry width="80" height="80" as="geometry"/>
                </mxCell>
                <mxCell id="meIZw1yJaA2Gq3ijwy9A-64" value="flow_n" style="rounded=0;whiteSpace=wrap;html=1;fillColor=#dae8fc;strokeColor=#6c8ebf;" parent="meIZw1yJaA2Gq3ijwy9A-62" vertex="1">
                    <mxGeometry x="15" y="80" width="50" height="30" as="geometry"/>
                </mxCell>
                <mxCell id="meIZw1yJaA2Gq3ijwy9A-65" value="" style="group" parent="meIZw1yJaA2Gq3ijwy9A-1" vertex="1" connectable="0">
                    <mxGeometry x="930" y="560" width="80" height="110" as="geometry"/>
                </mxCell>
                <mxCell id="meIZw1yJaA2Gq3ijwy9A-66" value="e_3" style="ellipse;whiteSpace=wrap;html=1;aspect=fixed;fillColor=#dae8fc;strokeColor=#6c8ebf;" parent="meIZw1yJaA2Gq3ijwy9A-65" vertex="1">
                    <mxGeometry width="80" height="80" as="geometry"/>
                </mxCell>
                <mxCell id="meIZw1yJaA2Gq3ijwy9A-67" value="flow_n" style="rounded=0;whiteSpace=wrap;html=1;fillColor=#dae8fc;strokeColor=#6c8ebf;" parent="meIZw1yJaA2Gq3ijwy9A-65" vertex="1">
                    <mxGeometry x="15" y="80" width="50" height="30" as="geometry"/>
                </mxCell>
                <mxCell id="meIZw1yJaA2Gq3ijwy9A-68" value="" style="group" parent="meIZw1yJaA2Gq3ijwy9A-1" vertex="1" connectable="0">
                    <mxGeometry x="586" y="850" width="121.73000000000002" height="150" as="geometry"/>
                </mxCell>
                <mxCell id="meIZw1yJaA2Gq3ijwy9A-69" value="l_1_2" style="ellipse;whiteSpace=wrap;html=1;" parent="meIZw1yJaA2Gq3ijwy9A-68" vertex="1">
                    <mxGeometry y="30" width="120" height="80" as="geometry"/>
                </mxCell>
                <mxCell id="meIZw1yJaA2Gq3ijwy9A-70" value="" style="group;fillColor=#dae8fc;strokeColor=#6c8ebf;" parent="meIZw1yJaA2Gq3ijwy9A-68" vertex="1" connectable="0">
                    <mxGeometry x="10" width="100" height="30" as="geometry"/>
                </mxCell>
                <mxCell id="meIZw1yJaA2Gq3ijwy9A-71" value="flow_from" style="rounded=0;whiteSpace=wrap;html=1;fillColor=#dae8fc;strokeColor=#6c8ebf;" parent="meIZw1yJaA2Gq3ijwy9A-70" vertex="1">
                    <mxGeometry x="-10" width="60" height="30" as="geometry"/>
                </mxCell>
                <mxCell id="meIZw1yJaA2Gq3ijwy9A-72" value="flow_to" style="rounded=0;whiteSpace=wrap;html=1;fillColor=#dae8fc;strokeColor=#6c8ebf;" parent="meIZw1yJaA2Gq3ijwy9A-70" vertex="1">
                    <mxGeometry x="50" width="50" height="30" as="geometry"/>
                </mxCell>
                <mxCell id="meIZw1yJaA2Gq3ijwy9A-73" value="" style="group" parent="meIZw1yJaA2Gq3ijwy9A-1" vertex="1" connectable="0">
                    <mxGeometry x="751.73" y="850" width="121.73000000000002" height="140" as="geometry"/>
                </mxCell>
                <mxCell id="meIZw1yJaA2Gq3ijwy9A-74" value="l_1_3" style="ellipse;whiteSpace=wrap;html=1;" parent="meIZw1yJaA2Gq3ijwy9A-73" vertex="1">
                    <mxGeometry y="30" width="120" height="80" as="geometry"/>
                </mxCell>
                <mxCell id="meIZw1yJaA2Gq3ijwy9A-75" value="" style="group;fillColor=#dae8fc;strokeColor=#6c8ebf;" parent="meIZw1yJaA2Gq3ijwy9A-73" vertex="1" connectable="0">
                    <mxGeometry x="10" width="100" height="30" as="geometry"/>
                </mxCell>
                <mxCell id="meIZw1yJaA2Gq3ijwy9A-76" value="flow_from" style="rounded=0;whiteSpace=wrap;html=1;fillColor=#dae8fc;strokeColor=#6c8ebf;" parent="meIZw1yJaA2Gq3ijwy9A-75" vertex="1">
                    <mxGeometry x="-10" width="60" height="30" as="geometry"/>
                </mxCell>
                <mxCell id="meIZw1yJaA2Gq3ijwy9A-77" value="flow_to" style="rounded=0;whiteSpace=wrap;html=1;fillColor=#dae8fc;strokeColor=#6c8ebf;" parent="meIZw1yJaA2Gq3ijwy9A-75" vertex="1">
                    <mxGeometry x="50" width="50" height="30" as="geometry"/>
                </mxCell>
                <mxCell id="meIZw1yJaA2Gq3ijwy9A-78" value="" style="group" parent="meIZw1yJaA2Gq3ijwy9A-1" vertex="1" connectable="0">
                    <mxGeometry x="941.73" y="850" width="121.73000000000002" height="140" as="geometry"/>
                </mxCell>
                <mxCell id="meIZw1yJaA2Gq3ijwy9A-79" value="l_2_3" style="ellipse;whiteSpace=wrap;html=1;" parent="meIZw1yJaA2Gq3ijwy9A-78" vertex="1">
                    <mxGeometry y="30" width="120" height="80" as="geometry"/>
                </mxCell>
                <mxCell id="meIZw1yJaA2Gq3ijwy9A-80" value="" style="group;fillColor=#dae8fc;strokeColor=#6c8ebf;" parent="meIZw1yJaA2Gq3ijwy9A-78" vertex="1" connectable="0">
                    <mxGeometry x="10" width="100" height="30" as="geometry"/>
                </mxCell>
                <mxCell id="meIZw1yJaA2Gq3ijwy9A-81" value="flow_from" style="rounded=0;whiteSpace=wrap;html=1;fillColor=#dae8fc;strokeColor=#6c8ebf;" parent="meIZw1yJaA2Gq3ijwy9A-80" vertex="1">
                    <mxGeometry x="-10" width="60" height="30" as="geometry"/>
                </mxCell>
                <mxCell id="meIZw1yJaA2Gq3ijwy9A-82" value="flow_to" style="rounded=0;whiteSpace=wrap;html=1;fillColor=#dae8fc;strokeColor=#6c8ebf;" parent="meIZw1yJaA2Gq3ijwy9A-80" vertex="1">
                    <mxGeometry x="50" width="50" height="30" as="geometry"/>
                </mxCell>
                <mxCell id="meIZw1yJaA2Gq3ijwy9A-83" value="" style="endArrow=classic;html=1;rounded=0;entryX=0.25;entryY=1;entryDx=0;entryDy=0;" parent="meIZw1yJaA2Gq3ijwy9A-1" target="meIZw1yJaA2Gq3ijwy9A-64" edge="1">
                    <mxGeometry width="50" height="50" relative="1" as="geometry">
                        <mxPoint x="660" y="850" as="sourcePoint"/>
                        <mxPoint x="646" y="680" as="targetPoint"/>
                    </mxGeometry>
                </mxCell>
                <mxCell id="meIZw1yJaA2Gq3ijwy9A-84" value="" style="endArrow=classic;html=1;rounded=0;exitX=0.5;exitY=0;exitDx=0;exitDy=0;entryX=0.75;entryY=1;entryDx=0;entryDy=0;" parent="meIZw1yJaA2Gq3ijwy9A-1" source="meIZw1yJaA2Gq3ijwy9A-76" target="meIZw1yJaA2Gq3ijwy9A-61" edge="1">
                    <mxGeometry width="50" height="50" relative="1" as="geometry">
                        <mxPoint x="649" y="860" as="sourcePoint"/>
                        <mxPoint x="646" y="680" as="targetPoint"/>
                    </mxGeometry>
                </mxCell>
                <mxCell id="meIZw1yJaA2Gq3ijwy9A-85" value="" style="endArrow=classic;html=1;rounded=0;exitX=0.5;exitY=0;exitDx=0;exitDy=0;entryX=0.75;entryY=1;entryDx=0;entryDy=0;" parent="meIZw1yJaA2Gq3ijwy9A-1" source="meIZw1yJaA2Gq3ijwy9A-81" target="meIZw1yJaA2Gq3ijwy9A-64" edge="1">
                    <mxGeometry width="50" height="50" relative="1" as="geometry">
                        <mxPoint x="865" y="860" as="sourcePoint"/>
                        <mxPoint x="956" y="670" as="targetPoint"/>
                    </mxGeometry>
                </mxCell>
                <mxCell id="meIZw1yJaA2Gq3ijwy9A-86" value="" style="endArrow=classic;html=1;rounded=0;entryX=0.5;entryY=1;entryDx=0;entryDy=0;exitX=0.25;exitY=0;exitDx=0;exitDy=0;" parent="meIZw1yJaA2Gq3ijwy9A-1" source="meIZw1yJaA2Gq3ijwy9A-82" target="meIZw1yJaA2Gq3ijwy9A-67" edge="1">
                    <mxGeometry width="50" height="50" relative="1" as="geometry">
                        <mxPoint x="1056" y="850" as="sourcePoint"/>
                        <mxPoint x="833" y="680" as="targetPoint"/>
                    </mxGeometry>
                </mxCell>
                <mxCell id="meIZw1yJaA2Gq3ijwy9A-90" value="" style="endArrow=classic;html=1;rounded=0;exitX=0.5;exitY=0;exitDx=0;exitDy=0;entryX=0;entryY=0.75;entryDx=0;entryDy=0;" parent="meIZw1yJaA2Gq3ijwy9A-1" source="meIZw1yJaA2Gq3ijwy9A-82" target="B6OoP1qVhnfBadLeHcSe-13" edge="1">
                    <mxGeometry width="50" height="50" relative="1" as="geometry">
                        <mxPoint x="1143" y="860" as="sourcePoint"/>
                        <mxPoint x="1140" y="800" as="targetPoint"/>
                    </mxGeometry>
                </mxCell>
                <mxCell id="meIZw1yJaA2Gq3ijwy9A-91" value="" style="endArrow=classic;html=1;rounded=0;exitX=0.75;exitY=0;exitDx=0;exitDy=0;entryX=0;entryY=0.25;entryDx=0;entryDy=0;" parent="meIZw1yJaA2Gq3ijwy9A-1" source="meIZw1yJaA2Gq3ijwy9A-71" target="B6OoP1qVhnfBadLeHcSe-2" edge="1">
                    <mxGeometry width="50" height="50" relative="1" as="geometry">
                        <mxPoint x="847" y="860" as="sourcePoint"/>
                        <mxPoint x="1070" y="670" as="targetPoint"/>
                    </mxGeometry>
                </mxCell>
                <mxCell id="meIZw1yJaA2Gq3ijwy9A-92" value="" style="endArrow=classic;html=1;rounded=0;exitX=0.5;exitY=0;exitDx=0;exitDy=0;entryX=0;entryY=0.5;entryDx=0;entryDy=0;" parent="meIZw1yJaA2Gq3ijwy9A-1" source="meIZw1yJaA2Gq3ijwy9A-77" target="B6OoP1qVhnfBadLeHcSe-13" edge="1">
                    <mxGeometry width="50" height="50" relative="1" as="geometry">
                        <mxPoint x="1037" y="860" as="sourcePoint"/>
                        <mxPoint x="1080" y="750" as="targetPoint"/>
                    </mxGeometry>
                </mxCell>
                <mxCell id="meIZw1yJaA2Gq3ijwy9A-93" value="N1" style="ellipse;whiteSpace=wrap;html=1;aspect=fixed;" parent="meIZw1yJaA2Gq3ijwy9A-1" vertex="1">
                    <mxGeometry x="160" y="-20.400000000000006" width="80" height="80" as="geometry"/>
                </mxCell>
                <mxCell id="meIZw1yJaA2Gq3ijwy9A-94" value="N2" style="ellipse;whiteSpace=wrap;html=1;aspect=fixed;" parent="meIZw1yJaA2Gq3ijwy9A-1" vertex="1">
                    <mxGeometry x="374" y="-20.400000000000006" width="80" height="80" as="geometry"/>
                </mxCell>
                <mxCell id="meIZw1yJaA2Gq3ijwy9A-95" value="N3" style="ellipse;whiteSpace=wrap;html=1;aspect=fixed;" parent="meIZw1yJaA2Gq3ijwy9A-1" vertex="1">
                    <mxGeometry x="260" y="159.6" width="80" height="80" as="geometry"/>
                </mxCell>
                <mxCell id="meIZw1yJaA2Gq3ijwy9A-96" value="" style="endArrow=none;html=1;rounded=0;exitX=1;exitY=1;exitDx=0;exitDy=0;entryX=0;entryY=0;entryDx=0;entryDy=0;" parent="meIZw1yJaA2Gq3ijwy9A-1" source="meIZw1yJaA2Gq3ijwy9A-93" target="meIZw1yJaA2Gq3ijwy9A-95" edge="1">
                    <mxGeometry width="50" height="50" relative="1" as="geometry">
                        <mxPoint x="390" y="259.6" as="sourcePoint"/>
                        <mxPoint x="440" y="209.6" as="targetPoint"/>
                    </mxGeometry>
                </mxCell>
                <mxCell id="meIZw1yJaA2Gq3ijwy9A-97" value="" style="endArrow=none;html=1;rounded=0;exitX=1;exitY=0.5;exitDx=0;exitDy=0;entryX=0;entryY=0.5;entryDx=0;entryDy=0;" parent="meIZw1yJaA2Gq3ijwy9A-1" source="meIZw1yJaA2Gq3ijwy9A-93" target="meIZw1yJaA2Gq3ijwy9A-94" edge="1">
                    <mxGeometry width="50" height="50" relative="1" as="geometry">
                        <mxPoint x="210" y="69.6" as="sourcePoint"/>
                        <mxPoint x="272" y="171.6" as="targetPoint"/>
                    </mxGeometry>
                </mxCell>
                <mxCell id="meIZw1yJaA2Gq3ijwy9A-98" value="" style="endArrow=none;html=1;rounded=0;exitX=0;exitY=1;exitDx=0;exitDy=0;entryX=1;entryY=0;entryDx=0;entryDy=0;" parent="meIZw1yJaA2Gq3ijwy9A-1" source="meIZw1yJaA2Gq3ijwy9A-94" target="meIZw1yJaA2Gq3ijwy9A-95" edge="1">
                    <mxGeometry width="50" height="50" relative="1" as="geometry">
                        <mxPoint x="210" y="69.6" as="sourcePoint"/>
                        <mxPoint x="272" y="171.6" as="targetPoint"/>
                    </mxGeometry>
                </mxCell>
                <mxCell id="meIZw1yJaA2Gq3ijwy9A-100" value="File &quot;network.txt&quot;" style="swimlane;fontStyle=0;childLayout=stackLayout;horizontal=1;startSize=30;horizontalStack=0;resizeParent=1;resizeParentMax=0;resizeLast=0;collapsible=1;marginBottom=0;whiteSpace=wrap;html=1;fillColor=#ccccff;" parent="meIZw1yJaA2Gq3ijwy9A-1" vertex="1">
                    <mxGeometry x="-46" y="480" width="320" height="600" as="geometry"/>
                </mxCell>
                <mxCell id="meIZw1yJaA2Gq3ijwy9A-101" value="e_1, e_2, e_3 : Node" style="text;strokeColor=none;fillColor=none;align=left;verticalAlign=middle;spacingLeft=4;spacingRight=4;overflow=hidden;points=[[0,0.5],[1,0.5]];portConstraint=eastwest;rotatable=0;whiteSpace=wrap;html=1;" parent="meIZw1yJaA2Gq3ijwy9A-100" vertex="1">
                    <mxGeometry y="30" width="320" height="30" as="geometry"/>
                </mxCell>
                <mxCell id="meIZw1yJaA2Gq3ijwy9A-102" value="l_1_2, l_2_3, l_1_3 : Link" style="text;strokeColor=none;fillColor=none;align=left;verticalAlign=middle;spacingLeft=4;spacingRight=4;overflow=hidden;points=[[0,0.5],[1,0.5]];portConstraint=eastwest;rotatable=0;whiteSpace=wrap;html=1;" parent="meIZw1yJaA2Gq3ijwy9A-100" vertex="1">
                    <mxGeometry y="60" width="320" height="30" as="geometry"/>
                </mxCell>
                <mxCell id="meIZw1yJaA2Gq3ijwy9A-111" value="&lt;div style=&quot;text-align: center;&quot;&gt;&lt;span style=&quot;background-color: initial;&quot;&gt;fb_1 : FlowBased3Nodes&lt;/span&gt;&lt;/div&gt;" style="text;strokeColor=none;fillColor=none;align=left;verticalAlign=middle;spacingLeft=4;spacingRight=4;overflow=hidden;points=[[0,0.5],[1,0.5]];portConstraint=eastwest;rotatable=0;whiteSpace=wrap;html=1;" parent="meIZw1yJaA2Gq3ijwy9A-100" vertex="1">
                    <mxGeometry y="90" width="320" height="30" as="geometry"/>
                </mxCell>
                <mxCell id="B6OoP1qVhnfBadLeHcSe-21" value="net_pos_1, net_pos_2, net_pos_3 : Node" style="text;strokeColor=none;fillColor=none;align=left;verticalAlign=middle;spacingLeft=4;spacingRight=4;overflow=hidden;points=[[0,0.5],[1,0.5]];portConstraint=eastwest;rotatable=0;whiteSpace=wrap;html=1;" parent="meIZw1yJaA2Gq3ijwy9A-100" vertex="1">
                    <mxGeometry y="120" width="320" height="30" as="geometry"/>
                </mxCell>
                <mxCell id="meIZw1yJaA2Gq3ijwy9A-103" value="e_1.flow_n l_1_2.flow_from" style="text;strokeColor=none;fillColor=none;align=left;verticalAlign=middle;spacingLeft=4;spacingRight=4;overflow=hidden;points=[[0,0.5],[1,0.5]];portConstraint=eastwest;rotatable=0;whiteSpace=wrap;html=1;" parent="meIZw1yJaA2Gq3ijwy9A-100" vertex="1">
                    <mxGeometry y="150" width="320" height="30" as="geometry"/>
                </mxCell>
                <mxCell id="meIZw1yJaA2Gq3ijwy9A-104" value="e_1.flow_n l_1_3.flow_from" style="text;strokeColor=none;fillColor=none;align=left;verticalAlign=middle;spacingLeft=4;spacingRight=4;overflow=hidden;points=[[0,0.5],[1,0.5]];portConstraint=eastwest;rotatable=0;whiteSpace=wrap;html=1;" parent="meIZw1yJaA2Gq3ijwy9A-100" vertex="1">
                    <mxGeometry y="180" width="320" height="30" as="geometry"/>
                </mxCell>
                <mxCell id="meIZw1yJaA2Gq3ijwy9A-105" value="e_2.flow_n l_1_2.flow_to" style="text;strokeColor=none;fillColor=none;align=left;verticalAlign=middle;spacingLeft=4;spacingRight=4;overflow=hidden;points=[[0,0.5],[1,0.5]];portConstraint=eastwest;rotatable=0;whiteSpace=wrap;html=1;" parent="meIZw1yJaA2Gq3ijwy9A-100" vertex="1">
                    <mxGeometry y="210" width="320" height="30" as="geometry"/>
                </mxCell>
                <mxCell id="meIZw1yJaA2Gq3ijwy9A-106" value="e_2.flow_n l_2_3.flow_from" style="text;strokeColor=none;fillColor=none;align=left;verticalAlign=middle;spacingLeft=4;spacingRight=4;overflow=hidden;points=[[0,0.5],[1,0.5]];portConstraint=eastwest;rotatable=0;whiteSpace=wrap;html=1;" parent="meIZw1yJaA2Gq3ijwy9A-100" vertex="1">
                    <mxGeometry y="240" width="320" height="30" as="geometry"/>
                </mxCell>
                <mxCell id="meIZw1yJaA2Gq3ijwy9A-107" value="e_3.flow_n l_1_3.flow_to" style="text;strokeColor=none;fillColor=none;align=left;verticalAlign=middle;spacingLeft=4;spacingRight=4;overflow=hidden;points=[[0,0.5],[1,0.5]];portConstraint=eastwest;rotatable=0;whiteSpace=wrap;html=1;" parent="meIZw1yJaA2Gq3ijwy9A-100" vertex="1">
                    <mxGeometry y="270" width="320" height="30" as="geometry"/>
                </mxCell>
                <mxCell id="meIZw1yJaA2Gq3ijwy9A-108" value="e_3.flow_n l_2_3.flow_to" style="text;strokeColor=none;fillColor=none;align=left;verticalAlign=middle;spacingLeft=4;spacingRight=4;overflow=hidden;points=[[0,0.5],[1,0.5]];portConstraint=eastwest;rotatable=0;whiteSpace=wrap;html=1;" parent="meIZw1yJaA2Gq3ijwy9A-100" vertex="1">
                    <mxGeometry y="300" width="320" height="30" as="geometry"/>
                </mxCell>
                <mxCell id="B6OoP1qVhnfBadLeHcSe-22" value="net_pos_1.flow_net_pos l_1_2.flow_from" style="text;strokeColor=none;fillColor=none;align=left;verticalAlign=middle;spacingLeft=4;spacingRight=4;overflow=hidden;points=[[0,0.5],[1,0.5]];portConstraint=eastwest;rotatable=0;whiteSpace=wrap;html=1;" parent="meIZw1yJaA2Gq3ijwy9A-100" vertex="1">
                    <mxGeometry y="330" width="320" height="30" as="geometry"/>
                </mxCell>
                <mxCell id="B6OoP1qVhnfBadLeHcSe-23" value="net_pos_1.flow_net_pos l_1_3.flow_from" style="text;strokeColor=none;fillColor=none;align=left;verticalAlign=middle;spacingLeft=4;spacingRight=4;overflow=hidden;points=[[0,0.5],[1,0.5]];portConstraint=eastwest;rotatable=0;whiteSpace=wrap;html=1;" parent="meIZw1yJaA2Gq3ijwy9A-100" vertex="1">
                    <mxGeometry y="360" width="320" height="30" as="geometry"/>
                </mxCell>
                <mxCell id="B6OoP1qVhnfBadLeHcSe-24" value="net_pos_2.flow_net_pos l_1_2.flow_to" style="text;strokeColor=none;fillColor=none;align=left;verticalAlign=middle;spacingLeft=4;spacingRight=4;overflow=hidden;points=[[0,0.5],[1,0.5]];portConstraint=eastwest;rotatable=0;whiteSpace=wrap;html=1;" parent="meIZw1yJaA2Gq3ijwy9A-100" vertex="1">
                    <mxGeometry y="390" width="320" height="30" as="geometry"/>
                </mxCell>
                <mxCell id="B6OoP1qVhnfBadLeHcSe-25" value="net_pos_2.flow_net_pos l_2_3.flow_from" style="text;strokeColor=none;fillColor=none;align=left;verticalAlign=middle;spacingLeft=4;spacingRight=4;overflow=hidden;points=[[0,0.5],[1,0.5]];portConstraint=eastwest;rotatable=0;whiteSpace=wrap;html=1;" parent="meIZw1yJaA2Gq3ijwy9A-100" vertex="1">
                    <mxGeometry y="420" width="320" height="30" as="geometry"/>
                </mxCell>
                <mxCell id="B6OoP1qVhnfBadLeHcSe-26" value="net_pos_3.flow_net_pos l_1_3.flow_to" style="text;strokeColor=none;fillColor=none;align=left;verticalAlign=middle;spacingLeft=4;spacingRight=4;overflow=hidden;points=[[0,0.5],[1,0.5]];portConstraint=eastwest;rotatable=0;whiteSpace=wrap;html=1;" parent="meIZw1yJaA2Gq3ijwy9A-100" vertex="1">
                    <mxGeometry y="450" width="320" height="30" as="geometry"/>
                </mxCell>
                <mxCell id="B6OoP1qVhnfBadLeHcSe-27" value="net_pos_3.flow_net_pos l_2_3.flow_to" style="text;strokeColor=none;fillColor=none;align=left;verticalAlign=middle;spacingLeft=4;spacingRight=4;overflow=hidden;points=[[0,0.5],[1,0.5]];portConstraint=eastwest;rotatable=0;whiteSpace=wrap;html=1;" parent="meIZw1yJaA2Gq3ijwy9A-100" vertex="1">
                    <mxGeometry y="480" width="320" height="30" as="geometry"/>
                </mxCell>
                <mxCell id="meIZw1yJaA2Gq3ijwy9A-112" value="fb_1.f_1 net_pos_1.flow_out" style="text;strokeColor=none;fillColor=none;align=left;verticalAlign=middle;spacingLeft=4;spacingRight=4;overflow=hidden;points=[[0,0.5],[1,0.5]];portConstraint=eastwest;rotatable=0;whiteSpace=wrap;html=1;" parent="meIZw1yJaA2Gq3ijwy9A-100" vertex="1">
                    <mxGeometry y="510" width="320" height="30" as="geometry"/>
                </mxCell>
                <mxCell id="meIZw1yJaA2Gq3ijwy9A-113" value="fb_1.f_2 net_pos_2.flow_out" style="text;strokeColor=none;fillColor=none;align=left;verticalAlign=middle;spacingLeft=4;spacingRight=4;overflow=hidden;points=[[0,0.5],[1,0.5]];portConstraint=eastwest;rotatable=0;whiteSpace=wrap;html=1;" parent="meIZw1yJaA2Gq3ijwy9A-100" vertex="1">
                    <mxGeometry y="540" width="320" height="30" as="geometry"/>
                </mxCell>
                <mxCell id="meIZw1yJaA2Gq3ijwy9A-114" value="fb_1.f_3 net_pos_3.flow_out" style="text;strokeColor=none;fillColor=none;align=left;verticalAlign=middle;spacingLeft=4;spacingRight=4;overflow=hidden;points=[[0,0.5],[1,0.5]];portConstraint=eastwest;rotatable=0;whiteSpace=wrap;html=1;" parent="meIZw1yJaA2Gq3ijwy9A-100" vertex="1">
                    <mxGeometry y="570" width="320" height="30" as="geometry"/>
                </mxCell>
                <mxCell id="meIZw1yJaA2Gq3ijwy9A-109" value="&lt;h1&gt;Study data&lt;/h1&gt;" style="text;html=1;strokeColor=none;fillColor=none;spacing=5;spacingTop=-20;whiteSpace=wrap;overflow=hidden;rounded=0;align=center;" parent="meIZw1yJaA2Gq3ijwy9A-1" vertex="1">
                    <mxGeometry x="-16" y="400" width="250" height="40" as="geometry"/>
                </mxCell>
                <mxCell id="xLEnjusCd6o34ie7Cal2-0" value="&lt;font style=&quot;font-size: 32px;&quot;&gt;&lt;b&gt;Physical system&lt;br&gt;&lt;/b&gt;&lt;/font&gt;" style="text;html=1;strokeColor=none;fillColor=none;align=center;verticalAlign=middle;whiteSpace=wrap;rounded=0;" parent="meIZw1yJaA2Gq3ijwy9A-1" vertex="1">
                    <mxGeometry x="87" y="-260" width="380" height="120" as="geometry"/>
                </mxCell>
                <mxCell id="xLEnjusCd6o34ie7Cal2-1" value="min&amp;nbsp;&amp;nbsp;&lt;span style=&quot;&quot;&gt;&lt;/span&gt;production costs + balance costs&lt;br&gt;s.t.&amp;nbsp;&lt;span style=&quot;&quot;&gt;&amp;nbsp; a_1_i * net_pos_1 + a_2_i * net_pos_2 + a_3_i * net_pos_3 &amp;lt;= b_i forall i in 1,...,nb_constraints_flow_based&lt;/span&gt;&amp;nbsp; &amp;nbsp;&lt;br&gt;&lt;span style=&quot;&quot;&gt;&#9;&lt;/span&gt;&lt;span style=&quot;white-space: pre;&quot;&gt;&#9;&lt;/span&gt;production - consumption + energy_not_served - spillage + net_position = 0 for each node&lt;br&gt;&lt;span style=&quot;&quot;&gt;&#9;&lt;/span&gt;&lt;span style=&quot;white-space: pre;&quot;&gt;&#9;&lt;/span&gt;production constraints" style="text;html=1;strokeColor=#CCCCFF;fillColor=none;align=left;verticalAlign=middle;whiteSpace=wrap;rounded=0;dashed=1;dashPattern=1 1;strokeWidth=2;" parent="meIZw1yJaA2Gq3ijwy9A-1" vertex="1">
                    <mxGeometry x="-46" y="-130" width="620" height="70" as="geometry"/>
                </mxCell>
                <mxCell id="xLEnjusCd6o34ie7Cal2-2" value="&lt;i&gt;We represent a network with flow based constraints. Constraints are applied on net position of nodes. The number of constraints depends on time and scenario.&lt;/i&gt;" style="text;html=1;strokeColor=#FFCCCC;fillColor=none;align=left;verticalAlign=middle;whiteSpace=wrap;rounded=0;dashed=1;strokeWidth=2;" parent="meIZw1yJaA2Gq3ijwy9A-1" vertex="1">
                    <mxGeometry x="-80" y="-270" width="534" height="40" as="geometry"/>
                </mxCell>
                <mxCell id="DoJg00zQxawLHBnBUmDX-0" value="NetPosition : Model" style="swimlane;fontStyle=0;childLayout=stackLayout;horizontal=1;startSize=30;horizontalStack=0;resizeParent=1;resizeParentMax=0;resizeLast=0;collapsible=1;marginBottom=0;whiteSpace=wrap;html=1;fillColor=#CCFFCC;" parent="meIZw1yJaA2Gq3ijwy9A-1" vertex="1">
                    <mxGeometry x="880" y="-80.4" width="220" height="150" as="geometry"/>
                </mxCell>
                <mxCell id="DoJg00zQxawLHBnBUmDX-1" value="net_pos : Variable" style="text;strokeColor=none;fillColor=none;align=left;verticalAlign=middle;spacingLeft=4;spacingRight=4;overflow=hidden;points=[[0,0.5],[1,0.5]];portConstraint=eastwest;rotatable=0;whiteSpace=wrap;html=1;" parent="DoJg00zQxawLHBnBUmDX-0" vertex="1">
                    <mxGeometry y="30" width="220" height="30" as="geometry"/>
                </mxCell>
                <mxCell id="DoJg00zQxawLHBnBUmDX-4" value="flow_in, flow_out : Flow" style="text;strokeColor=none;fillColor=none;align=left;verticalAlign=middle;spacingLeft=4;spacingRight=4;overflow=hidden;points=[[0,0.5],[1,0.5]];portConstraint=eastwest;rotatable=0;whiteSpace=wrap;html=1;" parent="DoJg00zQxawLHBnBUmDX-0" vertex="1">
                    <mxGeometry y="60" width="220" height="30" as="geometry"/>
                </mxCell>
                <mxCell id="DoJg00zQxawLHBnBUmDX-5" value="flow_in.f.sum() = net_pos" style="text;strokeColor=none;fillColor=none;align=left;verticalAlign=middle;spacingLeft=4;spacingRight=4;overflow=hidden;points=[[0,0.5],[1,0.5]];portConstraint=eastwest;rotatable=0;whiteSpace=wrap;html=1;" parent="DoJg00zQxawLHBnBUmDX-0" vertex="1">
                    <mxGeometry y="90" width="220" height="30" as="geometry"/>
                </mxCell>
                <mxCell id="DoJg00zQxawLHBnBUmDX-6" value="flow_out.f = net_pos" style="text;strokeColor=none;fillColor=none;align=left;verticalAlign=middle;spacingLeft=4;spacingRight=4;overflow=hidden;points=[[0,0.5],[1,0.5]];portConstraint=eastwest;rotatable=0;whiteSpace=wrap;html=1;" parent="DoJg00zQxawLHBnBUmDX-0" vertex="1">
                    <mxGeometry y="120" width="220" height="30" as="geometry"/>
                </mxCell>
                <mxCell id="TSBiwrW91YIJ7TJ-0JeV-0" value="FlowBased3Nodes : Model" style="swimlane;fontStyle=0;childLayout=stackLayout;horizontal=1;startSize=30;horizontalStack=0;resizeParent=1;resizeParentMax=0;resizeLast=0;collapsible=1;marginBottom=0;whiteSpace=wrap;html=1;fillColor=#CCFFCC;" parent="meIZw1yJaA2Gq3ijwy9A-1" vertex="1">
                    <mxGeometry x="1131" y="-80" width="220" height="240" as="geometry"/>
                </mxCell>
                <mxCell id="TSBiwrW91YIJ7TJ-0JeV-1" value="x_1, x_2, x_3 : Variable" style="text;strokeColor=none;fillColor=none;align=left;verticalAlign=middle;spacingLeft=4;spacingRight=4;overflow=hidden;points=[[0,0.5],[1,0.5]];portConstraint=eastwest;rotatable=0;whiteSpace=wrap;html=1;" parent="TSBiwrW91YIJ7TJ-0JeV-0" vertex="1">
                    <mxGeometry y="30" width="220" height="30" as="geometry"/>
                </mxCell>
                <mxCell id="TSBiwrW91YIJ7TJ-0JeV-2" value="a_1, a_2, a_3, b : Parameter" style="text;strokeColor=none;fillColor=none;align=left;verticalAlign=middle;spacingLeft=4;spacingRight=4;overflow=hidden;points=[[0,0.5],[1,0.5]];portConstraint=eastwest;rotatable=0;whiteSpace=wrap;html=1;" parent="TSBiwrW91YIJ7TJ-0JeV-0" vertex="1">
                    <mxGeometry y="60" width="220" height="30" as="geometry"/>
                </mxCell>
                <mxCell id="TSBiwrW91YIJ7TJ-0JeV-3" value="a_1*x_1 + a_2*x_2 + a_3*x_3 &amp;lt;= b" style="text;strokeColor=none;fillColor=none;align=left;verticalAlign=middle;spacingLeft=4;spacingRight=4;overflow=hidden;points=[[0,0.5],[1,0.5]];portConstraint=eastwest;rotatable=0;whiteSpace=wrap;html=1;" parent="TSBiwrW91YIJ7TJ-0JeV-0" vertex="1">
                    <mxGeometry y="90" width="220" height="30" as="geometry"/>
                </mxCell>
                <mxCell id="TSBiwrW91YIJ7TJ-0JeV-4" value="f_1, f_2, f_3 : Flow" style="text;strokeColor=none;fillColor=none;align=left;verticalAlign=middle;spacingLeft=4;spacingRight=4;overflow=hidden;points=[[0,0.5],[1,0.5]];portConstraint=eastwest;rotatable=0;whiteSpace=wrap;html=1;" parent="TSBiwrW91YIJ7TJ-0JeV-0" vertex="1">
                    <mxGeometry y="120" width="220" height="30" as="geometry"/>
                </mxCell>
                <mxCell id="TSBiwrW91YIJ7TJ-0JeV-5" value="f_1.f.sum() = x_1" style="text;strokeColor=none;fillColor=none;align=left;verticalAlign=middle;spacingLeft=4;spacingRight=4;overflow=hidden;points=[[0,0.5],[1,0.5]];portConstraint=eastwest;rotatable=0;whiteSpace=wrap;html=1;" parent="TSBiwrW91YIJ7TJ-0JeV-0" vertex="1">
                    <mxGeometry y="150" width="220" height="30" as="geometry"/>
                </mxCell>
                <mxCell id="TSBiwrW91YIJ7TJ-0JeV-6" value="f_3.f.sum() = x_3" style="text;strokeColor=none;fillColor=none;align=left;verticalAlign=middle;spacingLeft=4;spacingRight=4;overflow=hidden;points=[[0,0.5],[1,0.5]];portConstraint=eastwest;rotatable=0;whiteSpace=wrap;html=1;" parent="TSBiwrW91YIJ7TJ-0JeV-0" vertex="1">
                    <mxGeometry y="180" width="220" height="30" as="geometry"/>
                </mxCell>
                <mxCell id="TSBiwrW91YIJ7TJ-0JeV-7" value="f_2.f.sum() = x_2" style="text;strokeColor=none;fillColor=none;align=left;verticalAlign=middle;spacingLeft=4;spacingRight=4;overflow=hidden;points=[[0,0.5],[1,0.5]];portConstraint=eastwest;rotatable=0;whiteSpace=wrap;html=1;" parent="TSBiwrW91YIJ7TJ-0JeV-0" vertex="1">
                    <mxGeometry y="210" width="220" height="30" as="geometry"/>
                </mxCell>
                <mxCell id="B6OoP1qVhnfBadLeHcSe-4" value="" style="group" parent="meIZw1yJaA2Gq3ijwy9A-1" vertex="1" connectable="0">
                    <mxGeometry x="1150" y="590" width="80" height="90" as="geometry"/>
                </mxCell>
                <mxCell id="B6OoP1qVhnfBadLeHcSe-0" value="" style="group" parent="B6OoP1qVhnfBadLeHcSe-4" vertex="1" connectable="0">
                    <mxGeometry width="80" height="60" as="geometry"/>
                </mxCell>
                <mxCell id="B6OoP1qVhnfBadLeHcSe-1" value="net_pos_1" style="rounded=1;whiteSpace=wrap;html=1;container=0;" parent="B6OoP1qVhnfBadLeHcSe-0" vertex="1">
                    <mxGeometry y="30" width="80" height="30" as="geometry"/>
                </mxCell>
                <mxCell id="B6OoP1qVhnfBadLeHcSe-2" value="flow_in" style="rounded=0;whiteSpace=wrap;html=1;fillColor=#dae8fc;strokeColor=#6c8ebf;container=0;" parent="B6OoP1qVhnfBadLeHcSe-0" vertex="1">
                    <mxGeometry x="15" width="50" height="30" as="geometry"/>
                </mxCell>
                <mxCell id="B6OoP1qVhnfBadLeHcSe-3" value="flow_out" style="rounded=0;whiteSpace=wrap;html=1;fillColor=#dae8fc;strokeColor=#6c8ebf;container=0;" parent="B6OoP1qVhnfBadLeHcSe-4" vertex="1">
                    <mxGeometry x="15" y="60" width="50" height="30" as="geometry"/>
                </mxCell>
                <mxCell id="B6OoP1qVhnfBadLeHcSe-5" value="" style="group" parent="meIZw1yJaA2Gq3ijwy9A-1" vertex="1" connectable="0">
                    <mxGeometry x="1250" y="670" width="80" height="90" as="geometry"/>
                </mxCell>
                <mxCell id="B6OoP1qVhnfBadLeHcSe-6" value="" style="group" parent="B6OoP1qVhnfBadLeHcSe-5" vertex="1" connectable="0">
                    <mxGeometry width="80" height="60" as="geometry"/>
                </mxCell>
                <mxCell id="B6OoP1qVhnfBadLeHcSe-7" value="net_pos_2" style="rounded=1;whiteSpace=wrap;html=1;container=0;" parent="B6OoP1qVhnfBadLeHcSe-6" vertex="1">
                    <mxGeometry y="30" width="80" height="30" as="geometry"/>
                </mxCell>
                <mxCell id="B6OoP1qVhnfBadLeHcSe-8" value="flow_in" style="rounded=0;whiteSpace=wrap;html=1;fillColor=#dae8fc;strokeColor=#6c8ebf;container=0;" parent="B6OoP1qVhnfBadLeHcSe-6" vertex="1">
                    <mxGeometry x="15" width="50" height="30" as="geometry"/>
                </mxCell>
                <mxCell id="B6OoP1qVhnfBadLeHcSe-9" value="flow_out" style="rounded=0;whiteSpace=wrap;html=1;fillColor=#dae8fc;strokeColor=#6c8ebf;container=0;" parent="B6OoP1qVhnfBadLeHcSe-5" vertex="1">
                    <mxGeometry x="15" y="60" width="50" height="30" as="geometry"/>
                </mxCell>
                <mxCell id="B6OoP1qVhnfBadLeHcSe-10" value="" style="group" parent="meIZw1yJaA2Gq3ijwy9A-1" vertex="1" connectable="0">
                    <mxGeometry x="1340" y="750" width="80" height="90" as="geometry"/>
                </mxCell>
                <mxCell id="B6OoP1qVhnfBadLeHcSe-11" value="" style="group" parent="B6OoP1qVhnfBadLeHcSe-10" vertex="1" connectable="0">
                    <mxGeometry width="80" height="60" as="geometry"/>
                </mxCell>
                <mxCell id="B6OoP1qVhnfBadLeHcSe-12" value="net_pos_3" style="rounded=1;whiteSpace=wrap;html=1;container=0;" parent="B6OoP1qVhnfBadLeHcSe-11" vertex="1">
                    <mxGeometry y="30" width="80" height="30" as="geometry"/>
                </mxCell>
                <mxCell id="B6OoP1qVhnfBadLeHcSe-13" value="flow_in" style="rounded=0;whiteSpace=wrap;html=1;fillColor=#dae8fc;strokeColor=#6c8ebf;container=0;" parent="B6OoP1qVhnfBadLeHcSe-11" vertex="1">
                    <mxGeometry x="15" width="50" height="30" as="geometry"/>
                </mxCell>
                <mxCell id="B6OoP1qVhnfBadLeHcSe-14" value="flow_out" style="rounded=0;whiteSpace=wrap;html=1;fillColor=#dae8fc;strokeColor=#6c8ebf;container=0;" parent="B6OoP1qVhnfBadLeHcSe-10" vertex="1">
                    <mxGeometry x="15" y="60" width="50" height="30" as="geometry"/>
                </mxCell>
                <mxCell id="B6OoP1qVhnfBadLeHcSe-15" value="" style="endArrow=classic;html=1;rounded=0;exitX=0.75;exitY=0;exitDx=0;exitDy=0;entryX=0;entryY=0.5;entryDx=0;entryDy=0;" parent="meIZw1yJaA2Gq3ijwy9A-1" source="meIZw1yJaA2Gq3ijwy9A-76" target="B6OoP1qVhnfBadLeHcSe-2" edge="1">
                    <mxGeometry width="50" height="50" relative="1" as="geometry">
                        <mxPoint x="641" y="860" as="sourcePoint"/>
                        <mxPoint x="1175" y="607.5" as="targetPoint"/>
                    </mxGeometry>
                </mxCell>
                <mxCell id="B6OoP1qVhnfBadLeHcSe-16" value="" style="endArrow=classic;html=1;rounded=0;exitX=0.75;exitY=0;exitDx=0;exitDy=0;entryX=0;entryY=0.25;entryDx=0;entryDy=0;" parent="meIZw1yJaA2Gq3ijwy9A-1" source="meIZw1yJaA2Gq3ijwy9A-72" target="B6OoP1qVhnfBadLeHcSe-8" edge="1">
                    <mxGeometry width="50" height="50" relative="1" as="geometry">
                        <mxPoint x="806.73" y="860" as="sourcePoint"/>
                        <mxPoint x="1175" y="615" as="targetPoint"/>
                    </mxGeometry>
                </mxCell>
                <mxCell id="B6OoP1qVhnfBadLeHcSe-17" value="" style="endArrow=classic;html=1;rounded=0;exitX=0.75;exitY=0;exitDx=0;exitDy=0;entryX=0;entryY=0.75;entryDx=0;entryDy=0;" parent="meIZw1yJaA2Gq3ijwy9A-1" source="meIZw1yJaA2Gq3ijwy9A-81" target="B6OoP1qVhnfBadLeHcSe-8" edge="1">
                    <mxGeometry width="50" height="50" relative="1" as="geometry">
                        <mxPoint x="693.5" y="860" as="sourcePoint"/>
                        <mxPoint x="1275" y="687.5" as="targetPoint"/>
                    </mxGeometry>
                </mxCell>
                <mxCell id="B6OoP1qVhnfBadLeHcSe-18" value="" style="endArrow=classic;html=1;rounded=0;exitX=1;exitY=0.5;exitDx=0;exitDy=0;entryX=0;entryY=0.5;entryDx=0;entryDy=0;" parent="meIZw1yJaA2Gq3ijwy9A-1" source="B6OoP1qVhnfBadLeHcSe-3" target="meIZw1yJaA2Gq3ijwy9A-89" edge="1">
                    <mxGeometry width="50" height="50" relative="1" as="geometry">
                        <mxPoint x="1036.73" y="860" as="sourcePoint"/>
                        <mxPoint x="1365" y="782.5" as="targetPoint"/>
                    </mxGeometry>
                </mxCell>
                <mxCell id="B6OoP1qVhnfBadLeHcSe-19" value="" style="endArrow=classic;html=1;rounded=0;exitX=1;exitY=0.5;exitDx=0;exitDy=0;entryX=0;entryY=0.5;entryDx=0;entryDy=0;" parent="meIZw1yJaA2Gq3ijwy9A-1" source="B6OoP1qVhnfBadLeHcSe-9" target="meIZw1yJaA2Gq3ijwy9A-115" edge="1">
                    <mxGeometry width="50" height="50" relative="1" as="geometry">
                        <mxPoint x="1225" y="675" as="sourcePoint"/>
                        <mxPoint x="1445" y="690" as="targetPoint"/>
                    </mxGeometry>
                </mxCell>
                <mxCell id="B6OoP1qVhnfBadLeHcSe-20" value="" style="endArrow=classic;html=1;rounded=0;exitX=1;exitY=0.5;exitDx=0;exitDy=0;entryX=0;entryY=0.5;entryDx=0;entryDy=0;" parent="meIZw1yJaA2Gq3ijwy9A-1" source="B6OoP1qVhnfBadLeHcSe-14" target="meIZw1yJaA2Gq3ijwy9A-116" edge="1">
                    <mxGeometry width="50" height="50" relative="1" as="geometry">
                        <mxPoint x="1325" y="755" as="sourcePoint"/>
                        <mxPoint x="1445" y="720" as="targetPoint"/>
                    </mxGeometry>
                </mxCell>
                <mxCell id="meIZw1yJaA2Gq3ijwy9A-88" value="fb_1" style="ellipse;whiteSpace=wrap;html=1;aspect=fixed;fillColor=#FFCCE6;strokeColor=#82b366;" parent="meIZw1yJaA2Gq3ijwy9A-1" vertex="1">
                    <mxGeometry x="1520" y="550" width="80" height="80" as="geometry"/>
                </mxCell>
                <mxCell id="meIZw1yJaA2Gq3ijwy9A-89" value="f_1" style="rounded=0;whiteSpace=wrap;html=1;fillColor=#FFCCE6;strokeColor=#82b366;" parent="meIZw1yJaA2Gq3ijwy9A-1" vertex="1">
                    <mxGeometry x="1535" y="630" width="49" height="30" as="geometry"/>
                </mxCell>
                <mxCell id="meIZw1yJaA2Gq3ijwy9A-115" value="f_2" style="rounded=0;whiteSpace=wrap;html=1;fillColor=#FFCCE6;strokeColor=#82b366;" parent="meIZw1yJaA2Gq3ijwy9A-1" vertex="1">
                    <mxGeometry x="1535" y="660" width="49" height="30" as="geometry"/>
                </mxCell>
                <mxCell id="meIZw1yJaA2Gq3ijwy9A-116" value="f_3" style="rounded=0;whiteSpace=wrap;html=1;fillColor=#FFCCE6;strokeColor=#82b366;" parent="meIZw1yJaA2Gq3ijwy9A-1" vertex="1">
                    <mxGeometry x="1535" y="690" width="49" height="30" as="geometry"/>
                </mxCell>
            </root>
        </mxGraphModel>
    </diagram>
    <diagram name="fb_on_net_positions_3" id="j0RMbyxEHnYF0cFOEzsT">
        <mxGraphModel dx="2029" dy="1762" grid="1" gridSize="10" guides="1" tooltips="1" connect="1" arrows="1" fold="1" page="1" pageScale="1" pageWidth="827" pageHeight="1169" math="0" shadow="0">
            <root>
                <mxCell id="_pwFU1IKq931jEZq_aMM-0"/>
                <mxCell id="_pwFU1IKq931jEZq_aMM-1" parent="_pwFU1IKq931jEZq_aMM-0"/>
                <mxCell id="_pwFU1IKq931jEZq_aMM-2" value="&lt;font style=&quot;font-size: 32px;&quot;&gt;&lt;b&gt;Models and ports&lt;br&gt;&lt;/b&gt;&lt;/font&gt;" style="text;html=1;strokeColor=none;fillColor=none;align=center;verticalAlign=middle;whiteSpace=wrap;rounded=0;" parent="_pwFU1IKq931jEZq_aMM-1" vertex="1">
                    <mxGeometry x="950" y="-200" width="380" height="120" as="geometry"/>
                </mxCell>
                <mxCell id="_pwFU1IKq931jEZq_aMM-3" value="&lt;font style=&quot;font-size: 32px;&quot;&gt;&lt;b style=&quot;border-color: var(--border-color); font-size: 12px;&quot;&gt;&lt;font style=&quot;border-color: var(--border-color); font-size: 24px;&quot;&gt;Data visualization&lt;/font&gt;&lt;/b&gt;&lt;b&gt;&lt;br&gt;&lt;/b&gt;&lt;/font&gt;" style="text;html=1;strokeColor=none;fillColor=none;align=center;verticalAlign=middle;whiteSpace=wrap;rounded=0;" parent="_pwFU1IKq931jEZq_aMM-1" vertex="1">
                    <mxGeometry x="640" y="420" width="430" height="120" as="geometry"/>
                </mxCell>
                <mxCell id="_pwFU1IKq931jEZq_aMM-4" value="" style="group" parent="_pwFU1IKq931jEZq_aMM-1" vertex="1" connectable="0">
                    <mxGeometry x="640" y="540" width="80" height="110" as="geometry"/>
                </mxCell>
                <mxCell id="_pwFU1IKq931jEZq_aMM-5" value="e_1" style="ellipse;whiteSpace=wrap;html=1;aspect=fixed;fillColor=#dae8fc;strokeColor=#6c8ebf;" parent="_pwFU1IKq931jEZq_aMM-4" vertex="1">
                    <mxGeometry width="80" height="80" as="geometry"/>
                </mxCell>
                <mxCell id="_pwFU1IKq931jEZq_aMM-6" value="flow_n" style="rounded=0;whiteSpace=wrap;html=1;fillColor=#dae8fc;strokeColor=#6c8ebf;" parent="_pwFU1IKq931jEZq_aMM-4" vertex="1">
                    <mxGeometry x="15" y="80" width="50" height="30" as="geometry"/>
                </mxCell>
                <mxCell id="_pwFU1IKq931jEZq_aMM-7" value="" style="group" parent="_pwFU1IKq931jEZq_aMM-1" vertex="1" connectable="0">
                    <mxGeometry x="800" y="550" width="80" height="110" as="geometry"/>
                </mxCell>
                <mxCell id="_pwFU1IKq931jEZq_aMM-8" value="e_2" style="ellipse;whiteSpace=wrap;html=1;aspect=fixed;fillColor=#dae8fc;strokeColor=#6c8ebf;" parent="_pwFU1IKq931jEZq_aMM-7" vertex="1">
                    <mxGeometry width="80" height="80" as="geometry"/>
                </mxCell>
                <mxCell id="_pwFU1IKq931jEZq_aMM-9" value="flow_n" style="rounded=0;whiteSpace=wrap;html=1;fillColor=#dae8fc;strokeColor=#6c8ebf;" parent="_pwFU1IKq931jEZq_aMM-7" vertex="1">
                    <mxGeometry x="15" y="80" width="50" height="30" as="geometry"/>
                </mxCell>
                <mxCell id="_pwFU1IKq931jEZq_aMM-10" value="" style="group" parent="_pwFU1IKq931jEZq_aMM-1" vertex="1" connectable="0">
                    <mxGeometry x="940" y="530" width="80" height="110" as="geometry"/>
                </mxCell>
                <mxCell id="_pwFU1IKq931jEZq_aMM-11" value="e_3" style="ellipse;whiteSpace=wrap;html=1;aspect=fixed;fillColor=#dae8fc;strokeColor=#6c8ebf;" parent="_pwFU1IKq931jEZq_aMM-10" vertex="1">
                    <mxGeometry width="80" height="80" as="geometry"/>
                </mxCell>
                <mxCell id="_pwFU1IKq931jEZq_aMM-12" value="flow_n" style="rounded=0;whiteSpace=wrap;html=1;fillColor=#dae8fc;strokeColor=#6c8ebf;" parent="_pwFU1IKq931jEZq_aMM-10" vertex="1">
                    <mxGeometry x="15" y="80" width="50" height="30" as="geometry"/>
                </mxCell>
                <mxCell id="_pwFU1IKq931jEZq_aMM-13" value="" style="group" parent="_pwFU1IKq931jEZq_aMM-1" vertex="1" connectable="0">
                    <mxGeometry x="1140" y="720" width="80" height="110" as="geometry"/>
                </mxCell>
                <mxCell id="_pwFU1IKq931jEZq_aMM-14" value="fb_1" style="ellipse;whiteSpace=wrap;html=1;aspect=fixed;fillColor=#FFCCE6;strokeColor=#82b366;" parent="_pwFU1IKq931jEZq_aMM-13" vertex="1">
                    <mxGeometry y="30" width="80" height="80" as="geometry"/>
                </mxCell>
                <mxCell id="_pwFU1IKq931jEZq_aMM-15" value="f_1" style="rounded=0;whiteSpace=wrap;html=1;fillColor=#FFCCE6;strokeColor=#82b366;" parent="_pwFU1IKq931jEZq_aMM-1" vertex="1">
                    <mxGeometry x="1155" y="830" width="49" height="30" as="geometry"/>
                </mxCell>
                <mxCell id="_pwFU1IKq931jEZq_aMM-16" value="" style="endArrow=classic;html=1;rounded=0;entryX=1;entryY=0.5;entryDx=0;entryDy=0;exitX=0;exitY=0.5;exitDx=0;exitDy=0;" parent="_pwFU1IKq931jEZq_aMM-1" source="_pwFU1IKq931jEZq_aMM-33" target="_pwFU1IKq931jEZq_aMM-12" edge="1">
                    <mxGeometry width="50" height="50" relative="1" as="geometry">
                        <mxPoint x="1026.73" y="850" as="sourcePoint"/>
                        <mxPoint x="1086" y="680" as="targetPoint"/>
                    </mxGeometry>
                </mxCell>
                <mxCell id="_pwFU1IKq931jEZq_aMM-18" value="" style="endArrow=classic;html=1;rounded=0;entryX=1;entryY=0.5;entryDx=0;entryDy=0;exitX=0;exitY=0.5;exitDx=0;exitDy=0;" parent="_pwFU1IKq931jEZq_aMM-1" source="_pwFU1IKq931jEZq_aMM-32" target="_pwFU1IKq931jEZq_aMM-9" edge="1">
                    <mxGeometry width="50" height="50" relative="1" as="geometry">
                        <mxPoint x="950" y="570" as="sourcePoint"/>
                        <mxPoint x="1230" y="730" as="targetPoint"/>
                    </mxGeometry>
                </mxCell>
                <mxCell id="_pwFU1IKq931jEZq_aMM-19" value="N1" style="ellipse;whiteSpace=wrap;html=1;aspect=fixed;" parent="_pwFU1IKq931jEZq_aMM-1" vertex="1">
                    <mxGeometry x="160" y="-20.400000000000006" width="80" height="80" as="geometry"/>
                </mxCell>
                <mxCell id="_pwFU1IKq931jEZq_aMM-20" value="N2" style="ellipse;whiteSpace=wrap;html=1;aspect=fixed;" parent="_pwFU1IKq931jEZq_aMM-1" vertex="1">
                    <mxGeometry x="374" y="-20.400000000000006" width="80" height="80" as="geometry"/>
                </mxCell>
                <mxCell id="_pwFU1IKq931jEZq_aMM-21" value="N3" style="ellipse;whiteSpace=wrap;html=1;aspect=fixed;" parent="_pwFU1IKq931jEZq_aMM-1" vertex="1">
                    <mxGeometry x="260" y="159.6" width="80" height="80" as="geometry"/>
                </mxCell>
                <mxCell id="_pwFU1IKq931jEZq_aMM-22" value="" style="endArrow=none;html=1;rounded=0;exitX=1;exitY=1;exitDx=0;exitDy=0;entryX=0;entryY=0;entryDx=0;entryDy=0;" parent="_pwFU1IKq931jEZq_aMM-1" source="_pwFU1IKq931jEZq_aMM-19" target="_pwFU1IKq931jEZq_aMM-21" edge="1">
                    <mxGeometry width="50" height="50" relative="1" as="geometry">
                        <mxPoint x="390" y="259.6" as="sourcePoint"/>
                        <mxPoint x="440" y="209.6" as="targetPoint"/>
                    </mxGeometry>
                </mxCell>
                <mxCell id="_pwFU1IKq931jEZq_aMM-23" value="" style="endArrow=none;html=1;rounded=0;exitX=1;exitY=0.5;exitDx=0;exitDy=0;entryX=0;entryY=0.5;entryDx=0;entryDy=0;" parent="_pwFU1IKq931jEZq_aMM-1" source="_pwFU1IKq931jEZq_aMM-19" target="_pwFU1IKq931jEZq_aMM-20" edge="1">
                    <mxGeometry width="50" height="50" relative="1" as="geometry">
                        <mxPoint x="210" y="69.6" as="sourcePoint"/>
                        <mxPoint x="272" y="171.6" as="targetPoint"/>
                    </mxGeometry>
                </mxCell>
                <mxCell id="_pwFU1IKq931jEZq_aMM-24" value="" style="endArrow=none;html=1;rounded=0;exitX=0;exitY=1;exitDx=0;exitDy=0;entryX=1;entryY=0;entryDx=0;entryDy=0;" parent="_pwFU1IKq931jEZq_aMM-1" source="_pwFU1IKq931jEZq_aMM-20" target="_pwFU1IKq931jEZq_aMM-21" edge="1">
                    <mxGeometry width="50" height="50" relative="1" as="geometry">
                        <mxPoint x="210" y="69.6" as="sourcePoint"/>
                        <mxPoint x="272" y="171.6" as="targetPoint"/>
                    </mxGeometry>
                </mxCell>
                <mxCell id="_pwFU1IKq931jEZq_aMM-25" value="File &quot;network.txt&quot;" style="swimlane;fontStyle=0;childLayout=stackLayout;horizontal=1;startSize=30;horizontalStack=0;resizeParent=1;resizeParentMax=0;resizeLast=0;collapsible=1;marginBottom=0;whiteSpace=wrap;html=1;fillColor=#ccccff;" parent="_pwFU1IKq931jEZq_aMM-1" vertex="1">
                    <mxGeometry x="-46" y="480" width="320" height="180" as="geometry"/>
                </mxCell>
                <mxCell id="_pwFU1IKq931jEZq_aMM-26" value="e_1, e_2, e_3 : Node" style="text;strokeColor=none;fillColor=none;align=left;verticalAlign=middle;spacingLeft=4;spacingRight=4;overflow=hidden;points=[[0,0.5],[1,0.5]];portConstraint=eastwest;rotatable=0;whiteSpace=wrap;html=1;" parent="_pwFU1IKq931jEZq_aMM-25" vertex="1">
                    <mxGeometry y="30" width="320" height="30" as="geometry"/>
                </mxCell>
                <mxCell id="_pwFU1IKq931jEZq_aMM-27" value="fb_1 :&amp;nbsp;&lt;span style=&quot;text-align: center;&quot;&gt;FlowBased3Nodes&lt;/span&gt;" style="text;strokeColor=none;fillColor=none;align=left;verticalAlign=middle;spacingLeft=4;spacingRight=4;overflow=hidden;points=[[0,0.5],[1,0.5]];portConstraint=eastwest;rotatable=0;whiteSpace=wrap;html=1;" parent="_pwFU1IKq931jEZq_aMM-25" vertex="1">
                    <mxGeometry y="60" width="320" height="30" as="geometry"/>
                </mxCell>
                <mxCell id="_pwFU1IKq931jEZq_aMM-28" value="fb_1.f_1 e_1.flow_n" style="text;strokeColor=none;fillColor=none;align=left;verticalAlign=middle;spacingLeft=4;spacingRight=4;overflow=hidden;points=[[0,0.5],[1,0.5]];portConstraint=eastwest;rotatable=0;whiteSpace=wrap;html=1;" parent="_pwFU1IKq931jEZq_aMM-25" vertex="1">
                    <mxGeometry y="90" width="320" height="30" as="geometry"/>
                </mxCell>
                <mxCell id="_pwFU1IKq931jEZq_aMM-29" value="fb_1.f_2 e_2.flow_n" style="text;strokeColor=none;fillColor=none;align=left;verticalAlign=middle;spacingLeft=4;spacingRight=4;overflow=hidden;points=[[0,0.5],[1,0.5]];portConstraint=eastwest;rotatable=0;whiteSpace=wrap;html=1;" parent="_pwFU1IKq931jEZq_aMM-25" vertex="1">
                    <mxGeometry y="120" width="320" height="30" as="geometry"/>
                </mxCell>
                <mxCell id="_pwFU1IKq931jEZq_aMM-30" value="fb_1.f_3 e_3.flow_n" style="text;strokeColor=none;fillColor=none;align=left;verticalAlign=middle;spacingLeft=4;spacingRight=4;overflow=hidden;points=[[0,0.5],[1,0.5]];portConstraint=eastwest;rotatable=0;whiteSpace=wrap;html=1;" parent="_pwFU1IKq931jEZq_aMM-25" vertex="1">
                    <mxGeometry y="150" width="320" height="30" as="geometry"/>
                </mxCell>
                <mxCell id="_pwFU1IKq931jEZq_aMM-31" value="&lt;h1&gt;Study data&lt;/h1&gt;" style="text;html=1;strokeColor=none;fillColor=none;spacing=5;spacingTop=-20;whiteSpace=wrap;overflow=hidden;rounded=0;align=center;" parent="_pwFU1IKq931jEZq_aMM-1" vertex="1">
                    <mxGeometry x="-16" y="400" width="250" height="40" as="geometry"/>
                </mxCell>
                <mxCell id="_pwFU1IKq931jEZq_aMM-32" value="f_2" style="rounded=0;whiteSpace=wrap;html=1;fillColor=#FFCCE6;strokeColor=#82b366;" parent="_pwFU1IKq931jEZq_aMM-1" vertex="1">
                    <mxGeometry x="1155" y="860" width="49" height="30" as="geometry"/>
                </mxCell>
                <mxCell id="_pwFU1IKq931jEZq_aMM-33" value="f_3" style="rounded=0;whiteSpace=wrap;html=1;fillColor=#FFCCE6;strokeColor=#82b366;" parent="_pwFU1IKq931jEZq_aMM-1" vertex="1">
                    <mxGeometry x="1155" y="890" width="49" height="30" as="geometry"/>
                </mxCell>
                <mxCell id="_pwFU1IKq931jEZq_aMM-34" value="FlowBased3Nodes : Model" style="swimlane;fontStyle=0;childLayout=stackLayout;horizontal=1;startSize=30;horizontalStack=0;resizeParent=1;resizeParentMax=0;resizeLast=0;collapsible=1;marginBottom=0;whiteSpace=wrap;html=1;fillColor=#CCFFCC;" parent="_pwFU1IKq931jEZq_aMM-1" vertex="1">
                    <mxGeometry x="1131" y="-80" width="220" height="240" as="geometry"/>
                </mxCell>
                <mxCell id="_pwFU1IKq931jEZq_aMM-35" value="x_1, x_2, x_3 : Variable" style="text;strokeColor=none;fillColor=none;align=left;verticalAlign=middle;spacingLeft=4;spacingRight=4;overflow=hidden;points=[[0,0.5],[1,0.5]];portConstraint=eastwest;rotatable=0;whiteSpace=wrap;html=1;" parent="_pwFU1IKq931jEZq_aMM-34" vertex="1">
                    <mxGeometry y="30" width="220" height="30" as="geometry"/>
                </mxCell>
                <mxCell id="_pwFU1IKq931jEZq_aMM-36" value="a_1, a_2, a_3, b : Parameter" style="text;strokeColor=none;fillColor=none;align=left;verticalAlign=middle;spacingLeft=4;spacingRight=4;overflow=hidden;points=[[0,0.5],[1,0.5]];portConstraint=eastwest;rotatable=0;whiteSpace=wrap;html=1;" parent="_pwFU1IKq931jEZq_aMM-34" vertex="1">
                    <mxGeometry y="60" width="220" height="30" as="geometry"/>
                </mxCell>
                <mxCell id="_pwFU1IKq931jEZq_aMM-37" value="a_1*x_1 + a_2*x_2 + a_3*x_3 &amp;lt;= b" style="text;strokeColor=none;fillColor=none;align=left;verticalAlign=middle;spacingLeft=4;spacingRight=4;overflow=hidden;points=[[0,0.5],[1,0.5]];portConstraint=eastwest;rotatable=0;whiteSpace=wrap;html=1;" parent="_pwFU1IKq931jEZq_aMM-34" vertex="1">
                    <mxGeometry y="90" width="220" height="30" as="geometry"/>
                </mxCell>
                <mxCell id="_pwFU1IKq931jEZq_aMM-38" value="f_1, f_2, f_3 : Flow" style="text;strokeColor=none;fillColor=none;align=left;verticalAlign=middle;spacingLeft=4;spacingRight=4;overflow=hidden;points=[[0,0.5],[1,0.5]];portConstraint=eastwest;rotatable=0;whiteSpace=wrap;html=1;" parent="_pwFU1IKq931jEZq_aMM-34" vertex="1">
                    <mxGeometry y="120" width="220" height="30" as="geometry"/>
                </mxCell>
                <mxCell id="_pwFU1IKq931jEZq_aMM-39" value="f_1.f = x_1" style="text;strokeColor=none;fillColor=none;align=left;verticalAlign=middle;spacingLeft=4;spacingRight=4;overflow=hidden;points=[[0,0.5],[1,0.5]];portConstraint=eastwest;rotatable=0;whiteSpace=wrap;html=1;" parent="_pwFU1IKq931jEZq_aMM-34" vertex="1">
                    <mxGeometry y="150" width="220" height="30" as="geometry"/>
                </mxCell>
                <mxCell id="_pwFU1IKq931jEZq_aMM-40" value="f_3.f = x_3" style="text;strokeColor=none;fillColor=none;align=left;verticalAlign=middle;spacingLeft=4;spacingRight=4;overflow=hidden;points=[[0,0.5],[1,0.5]];portConstraint=eastwest;rotatable=0;whiteSpace=wrap;html=1;" parent="_pwFU1IKq931jEZq_aMM-34" vertex="1">
                    <mxGeometry y="180" width="220" height="30" as="geometry"/>
                </mxCell>
                <mxCell id="_pwFU1IKq931jEZq_aMM-41" value="f_2.f = x_2" style="text;strokeColor=none;fillColor=none;align=left;verticalAlign=middle;spacingLeft=4;spacingRight=4;overflow=hidden;points=[[0,0.5],[1,0.5]];portConstraint=eastwest;rotatable=0;whiteSpace=wrap;html=1;" parent="_pwFU1IKq931jEZq_aMM-34" vertex="1">
                    <mxGeometry y="210" width="220" height="30" as="geometry"/>
                </mxCell>
                <mxCell id="_pwFU1IKq931jEZq_aMM-42" value="&lt;font style=&quot;font-size: 32px;&quot;&gt;&lt;b&gt;Physical system&lt;br&gt;&lt;/b&gt;&lt;/font&gt;" style="text;html=1;strokeColor=none;fillColor=none;align=center;verticalAlign=middle;whiteSpace=wrap;rounded=0;" parent="_pwFU1IKq931jEZq_aMM-1" vertex="1">
                    <mxGeometry x="87" y="-260" width="380" height="120" as="geometry"/>
                </mxCell>
                <mxCell id="_pwFU1IKq931jEZq_aMM-43" value="min&amp;nbsp;&amp;nbsp;&lt;span style=&quot;&quot;&gt;&lt;/span&gt;production costs + balance costs&lt;br&gt;s.t.&amp;nbsp;&lt;span style=&quot;&quot;&gt;&amp;nbsp; a_1_i * net_pos_1 + a_2_i * net_pos_2 + a_3_i * net_pos_3 &amp;lt;= b_i forall i in 1,...,nb_constraints_flow_based&lt;/span&gt;&amp;nbsp; &amp;nbsp;&lt;br&gt;&lt;span style=&quot;&quot;&gt;&#9;&lt;/span&gt;&lt;span style=&quot;white-space: pre;&quot;&gt;&#9;&lt;/span&gt;production - consumption + energy_not_served - spillage + net_position = 0 for each node&lt;br&gt;&lt;span style=&quot;&quot;&gt;&#9;&lt;/span&gt;&lt;span style=&quot;white-space: pre;&quot;&gt;&#9;&lt;/span&gt;production constraints" style="text;html=1;strokeColor=#CCCCFF;fillColor=none;align=left;verticalAlign=middle;whiteSpace=wrap;rounded=0;dashed=1;dashPattern=1 1;strokeWidth=2;" parent="_pwFU1IKq931jEZq_aMM-1" vertex="1">
                    <mxGeometry x="-46" y="-130" width="620" height="70" as="geometry"/>
                </mxCell>
                <mxCell id="_pwFU1IKq931jEZq_aMM-44" value="&lt;i&gt;We represent a network with flow based constraints. Constraints are applied on net position of nodes. The number of constraints depends on time and scenario.&lt;/i&gt;" style="text;html=1;strokeColor=#FFCCCC;fillColor=none;align=left;verticalAlign=middle;whiteSpace=wrap;rounded=0;dashed=1;strokeWidth=2;" parent="_pwFU1IKq931jEZq_aMM-1" vertex="1">
                    <mxGeometry x="-80" y="-270" width="534" height="40" as="geometry"/>
                </mxCell>
                <mxCell id="_pwFU1IKq931jEZq_aMM-48" value="NodeWithFB : Model" style="swimlane;fontStyle=0;childLayout=stackLayout;horizontal=1;startSize=30;horizontalStack=0;resizeParent=1;resizeParentMax=0;resizeLast=0;collapsible=1;marginBottom=0;whiteSpace=wrap;html=1;fillColor=#CCFFCC;fontColor=#000000;" parent="_pwFU1IKq931jEZq_aMM-1" vertex="1">
                    <mxGeometry x="790" y="-80" width="290" height="270" as="geometry"/>
                </mxCell>
                <mxCell id="_pwFU1IKq931jEZq_aMM-49" value="c_spill, c_ens : Parameter" style="text;strokeColor=none;fillColor=none;align=left;verticalAlign=middle;spacingLeft=4;spacingRight=4;overflow=hidden;points=[[0,0.5],[1,0.5]];portConstraint=eastwest;rotatable=0;whiteSpace=wrap;html=1;" parent="_pwFU1IKq931jEZq_aMM-48" vertex="1">
                    <mxGeometry y="30" width="290" height="30" as="geometry"/>
                </mxCell>
                <mxCell id="_pwFU1IKq931jEZq_aMM-50" value="spillage, ens : Variable" style="text;strokeColor=none;fillColor=none;align=left;verticalAlign=middle;spacingLeft=4;spacingRight=4;overflow=hidden;points=[[0,0.5],[1,0.5]];portConstraint=eastwest;rotatable=0;whiteSpace=wrap;html=1;" parent="_pwFU1IKq931jEZq_aMM-48" vertex="1">
                    <mxGeometry y="60" width="290" height="30" as="geometry"/>
                </mxCell>
                <mxCell id="_pwFU1IKq931jEZq_aMM-51" value="net_pos : Variable" style="text;strokeColor=none;fillColor=none;align=left;verticalAlign=middle;spacingLeft=4;spacingRight=4;overflow=hidden;points=[[0,0.5],[1,0.5]];portConstraint=eastwest;rotatable=0;whiteSpace=wrap;html=1;" parent="_pwFU1IKq931jEZq_aMM-48" vertex="1">
                    <mxGeometry y="90" width="290" height="30" as="geometry"/>
                </mxCell>
                <mxCell id="_pwFU1IKq931jEZq_aMM-52" value="spillage, ens &amp;gt;= 0" style="text;strokeColor=none;fillColor=none;align=left;verticalAlign=middle;spacingLeft=4;spacingRight=4;overflow=hidden;points=[[0,0.5],[1,0.5]];portConstraint=eastwest;rotatable=0;whiteSpace=wrap;html=1;" parent="_pwFU1IKq931jEZq_aMM-48" vertex="1">
                    <mxGeometry y="120" width="290" height="30" as="geometry"/>
                </mxCell>
                <mxCell id="_pwFU1IKq931jEZq_aMM-53" value="c_spill*spillage + c_ens*ens : ObjectiveContribution" style="text;strokeColor=none;fillColor=none;align=left;verticalAlign=middle;spacingLeft=4;spacingRight=4;overflow=hidden;points=[[0,0.5],[1,0.5]];portConstraint=eastwest;rotatable=0;whiteSpace=wrap;html=1;" parent="_pwFU1IKq931jEZq_aMM-48" vertex="1">
                    <mxGeometry y="150" width="290" height="30" as="geometry"/>
                </mxCell>
                <mxCell id="_pwFU1IKq931jEZq_aMM-54" value="flow_n : Flow" style="text;strokeColor=none;fillColor=none;align=left;verticalAlign=middle;spacingLeft=4;spacingRight=4;overflow=hidden;points=[[0,0.5],[1,0.5]];portConstraint=eastwest;rotatable=0;whiteSpace=wrap;html=1;" parent="_pwFU1IKq931jEZq_aMM-48" vertex="1">
                    <mxGeometry y="180" width="290" height="30" as="geometry"/>
                </mxCell>
                <mxCell id="_pwFU1IKq931jEZq_aMM-55" value="flow_n.f.sum() = spillage - ens - net_pos" style="text;strokeColor=none;fillColor=none;align=left;verticalAlign=middle;spacingLeft=4;spacingRight=4;overflow=hidden;points=[[0,0.5],[1,0.5]];portConstraint=eastwest;rotatable=0;whiteSpace=wrap;html=1;" parent="_pwFU1IKq931jEZq_aMM-48" vertex="1">
                    <mxGeometry y="210" width="290" height="30" as="geometry"/>
                </mxCell>
                <mxCell id="_pwFU1IKq931jEZq_aMM-56" value="flow_net_pos.f = net_pos" style="text;strokeColor=none;fillColor=none;align=left;verticalAlign=middle;spacingLeft=4;spacingRight=4;overflow=hidden;points=[[0,0.5],[1,0.5]];portConstraint=eastwest;rotatable=0;whiteSpace=wrap;html=1;" parent="_pwFU1IKq931jEZq_aMM-48" vertex="1">
                    <mxGeometry y="240" width="290" height="30" as="geometry"/>
                </mxCell>
                <mxCell id="NZMho0ibdByreSbmLhFO-0" value="" style="endArrow=classic;html=1;rounded=0;exitX=0;exitY=0.5;exitDx=0;exitDy=0;entryX=1;entryY=0.5;entryDx=0;entryDy=0;" parent="_pwFU1IKq931jEZq_aMM-1" source="_pwFU1IKq931jEZq_aMM-15" target="_pwFU1IKq931jEZq_aMM-6" edge="1">
                    <mxGeometry width="50" height="50" relative="1" as="geometry">
                        <mxPoint x="887.5" y="735" as="sourcePoint"/>
                        <mxPoint x="1231" y="605" as="targetPoint"/>
                    </mxGeometry>
                </mxCell>
            </root>
        </mxGraphModel>
    </diagram>
    <diagram name="fb_on_net_positions_4" id="Q4IfcY0MvKpOgugrAC_T">
        <mxGraphModel dx="2029" dy="1762" grid="1" gridSize="10" guides="1" tooltips="1" connect="1" arrows="1" fold="1" page="1" pageScale="1" pageWidth="827" pageHeight="1169" math="0" shadow="0">
            <root>
                <mxCell id="BXUiZ0yOkoqidZfhe6nn-0"/>
                <mxCell id="BXUiZ0yOkoqidZfhe6nn-1" parent="BXUiZ0yOkoqidZfhe6nn-0"/>
                <mxCell id="BXUiZ0yOkoqidZfhe6nn-2" value="&lt;font style=&quot;font-size: 32px;&quot;&gt;&lt;b&gt;Models and ports&lt;br&gt;&lt;/b&gt;&lt;/font&gt;" style="text;html=1;strokeColor=none;fillColor=none;align=center;verticalAlign=middle;whiteSpace=wrap;rounded=0;" vertex="1" parent="BXUiZ0yOkoqidZfhe6nn-1">
                    <mxGeometry x="950" y="-200" width="380" height="120" as="geometry"/>
                </mxCell>
                <mxCell id="BXUiZ0yOkoqidZfhe6nn-3" value="&lt;font style=&quot;font-size: 32px;&quot;&gt;&lt;b style=&quot;border-color: var(--border-color); font-size: 12px;&quot;&gt;&lt;font style=&quot;border-color: var(--border-color); font-size: 24px;&quot;&gt;Data visualization&lt;/font&gt;&lt;/b&gt;&lt;b&gt;&lt;br&gt;&lt;/b&gt;&lt;/font&gt;" style="text;html=1;strokeColor=none;fillColor=none;align=center;verticalAlign=middle;whiteSpace=wrap;rounded=0;" vertex="1" parent="BXUiZ0yOkoqidZfhe6nn-1">
                    <mxGeometry x="640" y="420" width="430" height="120" as="geometry"/>
                </mxCell>
                <mxCell id="BXUiZ0yOkoqidZfhe6nn-4" value="" style="endArrow=classic;html=1;rounded=0;exitX=0.5;exitY=0;exitDx=0;exitDy=0;" edge="1" parent="BXUiZ0yOkoqidZfhe6nn-1" source="BXUiZ0yOkoqidZfhe6nn-18">
                    <mxGeometry width="50" height="50" relative="1" as="geometry">
                        <mxPoint x="477" y="760" as="sourcePoint"/>
                        <mxPoint x="650" y="670" as="targetPoint"/>
                    </mxGeometry>
                </mxCell>
                <mxCell id="BXUiZ0yOkoqidZfhe6nn-5" value="" style="endArrow=classic;html=1;rounded=0;exitX=0.25;exitY=0;exitDx=0;exitDy=0;entryX=0;entryY=0.75;entryDx=0;entryDy=0;" edge="1" parent="BXUiZ0yOkoqidZfhe6nn-1" source="BXUiZ0yOkoqidZfhe6nn-24" target="BXUiZ0yOkoqidZfhe6nn-14">
                    <mxGeometry width="50" height="50" relative="1" as="geometry">
                        <mxPoint x="829" y="860" as="sourcePoint"/>
                        <mxPoint x="960" y="660" as="targetPoint"/>
                    </mxGeometry>
                </mxCell>
                <mxCell id="BXUiZ0yOkoqidZfhe6nn-6" value="" style="group" vertex="1" connectable="0" parent="BXUiZ0yOkoqidZfhe6nn-1">
                    <mxGeometry x="600" y="560" width="80" height="110" as="geometry"/>
                </mxCell>
                <mxCell id="BXUiZ0yOkoqidZfhe6nn-7" value="e_1" style="ellipse;whiteSpace=wrap;html=1;aspect=fixed;fillColor=#dae8fc;strokeColor=#6c8ebf;" vertex="1" parent="BXUiZ0yOkoqidZfhe6nn-6">
                    <mxGeometry width="80" height="80" as="geometry"/>
                </mxCell>
                <mxCell id="BXUiZ0yOkoqidZfhe6nn-8" value="flow_n" style="rounded=0;whiteSpace=wrap;html=1;fillColor=#dae8fc;strokeColor=#6c8ebf;" vertex="1" parent="BXUiZ0yOkoqidZfhe6nn-6">
                    <mxGeometry x="15" y="80" width="50" height="30" as="geometry"/>
                </mxCell>
                <mxCell id="BXUiZ0yOkoqidZfhe6nn-9" value="" style="group" vertex="1" connectable="0" parent="BXUiZ0yOkoqidZfhe6nn-1">
                    <mxGeometry x="770" y="560" width="80" height="110" as="geometry"/>
                </mxCell>
                <mxCell id="BXUiZ0yOkoqidZfhe6nn-10" value="e_2" style="ellipse;whiteSpace=wrap;html=1;aspect=fixed;fillColor=#dae8fc;strokeColor=#6c8ebf;" vertex="1" parent="BXUiZ0yOkoqidZfhe6nn-9">
                    <mxGeometry width="80" height="80" as="geometry"/>
                </mxCell>
                <mxCell id="BXUiZ0yOkoqidZfhe6nn-11" value="flow_n" style="rounded=0;whiteSpace=wrap;html=1;fillColor=#dae8fc;strokeColor=#6c8ebf;" vertex="1" parent="BXUiZ0yOkoqidZfhe6nn-9">
                    <mxGeometry x="15" y="80" width="50" height="30" as="geometry"/>
                </mxCell>
                <mxCell id="BXUiZ0yOkoqidZfhe6nn-12" value="" style="group" vertex="1" connectable="0" parent="BXUiZ0yOkoqidZfhe6nn-1">
                    <mxGeometry x="930" y="560" width="80" height="110" as="geometry"/>
                </mxCell>
                <mxCell id="BXUiZ0yOkoqidZfhe6nn-13" value="e_3" style="ellipse;whiteSpace=wrap;html=1;aspect=fixed;fillColor=#dae8fc;strokeColor=#6c8ebf;" vertex="1" parent="BXUiZ0yOkoqidZfhe6nn-12">
                    <mxGeometry width="80" height="80" as="geometry"/>
                </mxCell>
                <mxCell id="BXUiZ0yOkoqidZfhe6nn-14" value="flow_n" style="rounded=0;whiteSpace=wrap;html=1;fillColor=#dae8fc;strokeColor=#6c8ebf;" vertex="1" parent="BXUiZ0yOkoqidZfhe6nn-12">
                    <mxGeometry x="15" y="80" width="50" height="30" as="geometry"/>
                </mxCell>
                <mxCell id="BXUiZ0yOkoqidZfhe6nn-15" value="" style="group" vertex="1" connectable="0" parent="BXUiZ0yOkoqidZfhe6nn-1">
                    <mxGeometry x="586" y="850" width="121.73000000000002" height="150" as="geometry"/>
                </mxCell>
                <mxCell id="BXUiZ0yOkoqidZfhe6nn-16" value="l_1_2" style="ellipse;whiteSpace=wrap;html=1;" vertex="1" parent="BXUiZ0yOkoqidZfhe6nn-15">
                    <mxGeometry y="30" width="120" height="80" as="geometry"/>
                </mxCell>
                <mxCell id="BXUiZ0yOkoqidZfhe6nn-17" value="" style="group;fillColor=#dae8fc;strokeColor=#6c8ebf;" vertex="1" connectable="0" parent="BXUiZ0yOkoqidZfhe6nn-15">
                    <mxGeometry x="10" width="100" height="30" as="geometry"/>
                </mxCell>
                <mxCell id="BXUiZ0yOkoqidZfhe6nn-18" value="flow_from" style="rounded=0;whiteSpace=wrap;html=1;fillColor=#dae8fc;strokeColor=#6c8ebf;" vertex="1" parent="BXUiZ0yOkoqidZfhe6nn-17">
                    <mxGeometry x="-10" width="60" height="30" as="geometry"/>
                </mxCell>
                <mxCell id="BXUiZ0yOkoqidZfhe6nn-19" value="flow_to" style="rounded=0;whiteSpace=wrap;html=1;fillColor=#dae8fc;strokeColor=#6c8ebf;" vertex="1" parent="BXUiZ0yOkoqidZfhe6nn-17">
                    <mxGeometry x="50" width="50" height="30" as="geometry"/>
                </mxCell>
                <mxCell id="BXUiZ0yOkoqidZfhe6nn-20" value="" style="group" vertex="1" connectable="0" parent="BXUiZ0yOkoqidZfhe6nn-1">
                    <mxGeometry x="751.73" y="850" width="121.73000000000002" height="140" as="geometry"/>
                </mxCell>
                <mxCell id="BXUiZ0yOkoqidZfhe6nn-21" value="l_1_3" style="ellipse;whiteSpace=wrap;html=1;" vertex="1" parent="BXUiZ0yOkoqidZfhe6nn-20">
                    <mxGeometry y="30" width="120" height="80" as="geometry"/>
                </mxCell>
                <mxCell id="BXUiZ0yOkoqidZfhe6nn-22" value="" style="group;fillColor=#dae8fc;strokeColor=#6c8ebf;" vertex="1" connectable="0" parent="BXUiZ0yOkoqidZfhe6nn-20">
                    <mxGeometry x="10" width="100" height="30" as="geometry"/>
                </mxCell>
                <mxCell id="BXUiZ0yOkoqidZfhe6nn-23" value="flow_from" style="rounded=0;whiteSpace=wrap;html=1;fillColor=#dae8fc;strokeColor=#6c8ebf;" vertex="1" parent="BXUiZ0yOkoqidZfhe6nn-22">
                    <mxGeometry x="-10" width="60" height="30" as="geometry"/>
                </mxCell>
                <mxCell id="BXUiZ0yOkoqidZfhe6nn-24" value="flow_to" style="rounded=0;whiteSpace=wrap;html=1;fillColor=#dae8fc;strokeColor=#6c8ebf;" vertex="1" parent="BXUiZ0yOkoqidZfhe6nn-22">
                    <mxGeometry x="50" width="50" height="30" as="geometry"/>
                </mxCell>
                <mxCell id="BXUiZ0yOkoqidZfhe6nn-25" value="" style="group" vertex="1" connectable="0" parent="BXUiZ0yOkoqidZfhe6nn-1">
                    <mxGeometry x="941.73" y="850" width="121.73000000000002" height="140" as="geometry"/>
                </mxCell>
                <mxCell id="BXUiZ0yOkoqidZfhe6nn-26" value="l_2_3" style="ellipse;whiteSpace=wrap;html=1;" vertex="1" parent="BXUiZ0yOkoqidZfhe6nn-25">
                    <mxGeometry y="30" width="120" height="80" as="geometry"/>
                </mxCell>
                <mxCell id="BXUiZ0yOkoqidZfhe6nn-27" value="" style="group;fillColor=#dae8fc;strokeColor=#6c8ebf;" vertex="1" connectable="0" parent="BXUiZ0yOkoqidZfhe6nn-25">
                    <mxGeometry x="10" width="100" height="30" as="geometry"/>
                </mxCell>
                <mxCell id="BXUiZ0yOkoqidZfhe6nn-28" value="flow_from" style="rounded=0;whiteSpace=wrap;html=1;fillColor=#dae8fc;strokeColor=#6c8ebf;" vertex="1" parent="BXUiZ0yOkoqidZfhe6nn-27">
                    <mxGeometry x="-10" width="60" height="30" as="geometry"/>
                </mxCell>
                <mxCell id="BXUiZ0yOkoqidZfhe6nn-29" value="flow_to" style="rounded=0;whiteSpace=wrap;html=1;fillColor=#dae8fc;strokeColor=#6c8ebf;" vertex="1" parent="BXUiZ0yOkoqidZfhe6nn-27">
                    <mxGeometry x="50" width="50" height="30" as="geometry"/>
                </mxCell>
                <mxCell id="BXUiZ0yOkoqidZfhe6nn-30" value="" style="endArrow=classic;html=1;rounded=0;entryX=0.25;entryY=1;entryDx=0;entryDy=0;" edge="1" parent="BXUiZ0yOkoqidZfhe6nn-1" target="BXUiZ0yOkoqidZfhe6nn-11">
                    <mxGeometry width="50" height="50" relative="1" as="geometry">
                        <mxPoint x="660" y="850" as="sourcePoint"/>
                        <mxPoint x="646" y="680" as="targetPoint"/>
                    </mxGeometry>
                </mxCell>
                <mxCell id="BXUiZ0yOkoqidZfhe6nn-31" value="" style="endArrow=classic;html=1;rounded=0;exitX=0.5;exitY=0;exitDx=0;exitDy=0;entryX=0.75;entryY=1;entryDx=0;entryDy=0;" edge="1" parent="BXUiZ0yOkoqidZfhe6nn-1" source="BXUiZ0yOkoqidZfhe6nn-23" target="BXUiZ0yOkoqidZfhe6nn-8">
                    <mxGeometry width="50" height="50" relative="1" as="geometry">
                        <mxPoint x="649" y="860" as="sourcePoint"/>
                        <mxPoint x="646" y="680" as="targetPoint"/>
                    </mxGeometry>
                </mxCell>
                <mxCell id="BXUiZ0yOkoqidZfhe6nn-32" value="" style="endArrow=classic;html=1;rounded=0;exitX=0.5;exitY=0;exitDx=0;exitDy=0;entryX=0.75;entryY=1;entryDx=0;entryDy=0;" edge="1" parent="BXUiZ0yOkoqidZfhe6nn-1" source="BXUiZ0yOkoqidZfhe6nn-28" target="BXUiZ0yOkoqidZfhe6nn-11">
                    <mxGeometry width="50" height="50" relative="1" as="geometry">
                        <mxPoint x="865" y="860" as="sourcePoint"/>
                        <mxPoint x="956" y="670" as="targetPoint"/>
                    </mxGeometry>
                </mxCell>
                <mxCell id="BXUiZ0yOkoqidZfhe6nn-33" value="" style="endArrow=classic;html=1;rounded=0;entryX=0.5;entryY=1;entryDx=0;entryDy=0;exitX=0.25;exitY=0;exitDx=0;exitDy=0;" edge="1" parent="BXUiZ0yOkoqidZfhe6nn-1" source="BXUiZ0yOkoqidZfhe6nn-29" target="BXUiZ0yOkoqidZfhe6nn-14">
                    <mxGeometry width="50" height="50" relative="1" as="geometry">
                        <mxPoint x="1056" y="850" as="sourcePoint"/>
                        <mxPoint x="833" y="680" as="targetPoint"/>
                    </mxGeometry>
                </mxCell>
                <mxCell id="BXUiZ0yOkoqidZfhe6nn-34" value="" style="endArrow=classic;html=1;rounded=0;exitX=0.5;exitY=0;exitDx=0;exitDy=0;entryX=0;entryY=0.75;entryDx=0;entryDy=0;" edge="1" parent="BXUiZ0yOkoqidZfhe6nn-1" source="BXUiZ0yOkoqidZfhe6nn-29" target="BXUiZ0yOkoqidZfhe6nn-104">
                    <mxGeometry width="50" height="50" relative="1" as="geometry">
                        <mxPoint x="1143" y="860" as="sourcePoint"/>
                        <mxPoint x="1355" y="772.5" as="targetPoint"/>
                    </mxGeometry>
                </mxCell>
                <mxCell id="BXUiZ0yOkoqidZfhe6nn-35" value="" style="endArrow=classic;html=1;rounded=0;exitX=0.75;exitY=0;exitDx=0;exitDy=0;entryX=0;entryY=0.5;entryDx=0;entryDy=0;" edge="1" parent="BXUiZ0yOkoqidZfhe6nn-1" source="BXUiZ0yOkoqidZfhe6nn-18" target="BXUiZ0yOkoqidZfhe6nn-102">
                    <mxGeometry width="50" height="50" relative="1" as="geometry">
                        <mxPoint x="847" y="860" as="sourcePoint"/>
                        <mxPoint x="1070" y="670" as="targetPoint"/>
                    </mxGeometry>
                </mxCell>
                <mxCell id="BXUiZ0yOkoqidZfhe6nn-36" value="" style="endArrow=classic;html=1;rounded=0;exitX=0.5;exitY=0;exitDx=0;exitDy=0;entryX=0;entryY=0.25;entryDx=0;entryDy=0;" edge="1" parent="BXUiZ0yOkoqidZfhe6nn-1" source="BXUiZ0yOkoqidZfhe6nn-24" target="BXUiZ0yOkoqidZfhe6nn-104">
                    <mxGeometry width="50" height="50" relative="1" as="geometry">
                        <mxPoint x="1037" y="860" as="sourcePoint"/>
                        <mxPoint x="1355" y="765" as="targetPoint"/>
                    </mxGeometry>
                </mxCell>
                <mxCell id="BXUiZ0yOkoqidZfhe6nn-37" value="N1" style="ellipse;whiteSpace=wrap;html=1;aspect=fixed;" vertex="1" parent="BXUiZ0yOkoqidZfhe6nn-1">
                    <mxGeometry x="160" y="-20.400000000000006" width="80" height="80" as="geometry"/>
                </mxCell>
                <mxCell id="BXUiZ0yOkoqidZfhe6nn-38" value="N2" style="ellipse;whiteSpace=wrap;html=1;aspect=fixed;" vertex="1" parent="BXUiZ0yOkoqidZfhe6nn-1">
                    <mxGeometry x="374" y="-20.400000000000006" width="80" height="80" as="geometry"/>
                </mxCell>
                <mxCell id="BXUiZ0yOkoqidZfhe6nn-39" value="N3" style="ellipse;whiteSpace=wrap;html=1;aspect=fixed;" vertex="1" parent="BXUiZ0yOkoqidZfhe6nn-1">
                    <mxGeometry x="260" y="159.6" width="80" height="80" as="geometry"/>
                </mxCell>
                <mxCell id="BXUiZ0yOkoqidZfhe6nn-40" value="" style="endArrow=none;html=1;rounded=0;exitX=1;exitY=1;exitDx=0;exitDy=0;entryX=0;entryY=0;entryDx=0;entryDy=0;" edge="1" parent="BXUiZ0yOkoqidZfhe6nn-1" source="BXUiZ0yOkoqidZfhe6nn-37" target="BXUiZ0yOkoqidZfhe6nn-39">
                    <mxGeometry width="50" height="50" relative="1" as="geometry">
                        <mxPoint x="390" y="259.6" as="sourcePoint"/>
                        <mxPoint x="440" y="209.6" as="targetPoint"/>
                    </mxGeometry>
                </mxCell>
                <mxCell id="BXUiZ0yOkoqidZfhe6nn-41" value="" style="endArrow=none;html=1;rounded=0;exitX=1;exitY=0.5;exitDx=0;exitDy=0;entryX=0;entryY=0.5;entryDx=0;entryDy=0;" edge="1" parent="BXUiZ0yOkoqidZfhe6nn-1" source="BXUiZ0yOkoqidZfhe6nn-37" target="BXUiZ0yOkoqidZfhe6nn-38">
                    <mxGeometry width="50" height="50" relative="1" as="geometry">
                        <mxPoint x="210" y="69.6" as="sourcePoint"/>
                        <mxPoint x="272" y="171.6" as="targetPoint"/>
                    </mxGeometry>
                </mxCell>
                <mxCell id="BXUiZ0yOkoqidZfhe6nn-42" value="" style="endArrow=none;html=1;rounded=0;exitX=0;exitY=1;exitDx=0;exitDy=0;entryX=1;entryY=0;entryDx=0;entryDy=0;" edge="1" parent="BXUiZ0yOkoqidZfhe6nn-1" source="BXUiZ0yOkoqidZfhe6nn-38" target="BXUiZ0yOkoqidZfhe6nn-39">
                    <mxGeometry width="50" height="50" relative="1" as="geometry">
                        <mxPoint x="210" y="69.6" as="sourcePoint"/>
                        <mxPoint x="272" y="171.6" as="targetPoint"/>
                    </mxGeometry>
                </mxCell>
                <mxCell id="BXUiZ0yOkoqidZfhe6nn-43" value="File &quot;network.txt&quot;" style="swimlane;fontStyle=0;childLayout=stackLayout;horizontal=1;startSize=30;horizontalStack=0;resizeParent=1;resizeParentMax=0;resizeLast=0;collapsible=1;marginBottom=0;whiteSpace=wrap;html=1;fillColor=#ccccff;" vertex="1" parent="BXUiZ0yOkoqidZfhe6nn-1">
                    <mxGeometry x="-46" y="480" width="320" height="480" as="geometry"/>
                </mxCell>
                <mxCell id="BXUiZ0yOkoqidZfhe6nn-44" value="e_1, e_2, e_3 : Node" style="text;strokeColor=none;fillColor=none;align=left;verticalAlign=middle;spacingLeft=4;spacingRight=4;overflow=hidden;points=[[0,0.5],[1,0.5]];portConstraint=eastwest;rotatable=0;whiteSpace=wrap;html=1;" vertex="1" parent="BXUiZ0yOkoqidZfhe6nn-43">
                    <mxGeometry y="30" width="320" height="30" as="geometry"/>
                </mxCell>
                <mxCell id="BXUiZ0yOkoqidZfhe6nn-45" value="l_1_2, l_2_3, l_1_3 : Link" style="text;strokeColor=none;fillColor=none;align=left;verticalAlign=middle;spacingLeft=4;spacingRight=4;overflow=hidden;points=[[0,0.5],[1,0.5]];portConstraint=eastwest;rotatable=0;whiteSpace=wrap;html=1;" vertex="1" parent="BXUiZ0yOkoqidZfhe6nn-43">
                    <mxGeometry y="60" width="320" height="30" as="geometry"/>
                </mxCell>
                <mxCell id="BXUiZ0yOkoqidZfhe6nn-46" value="&lt;div style=&quot;text-align: center;&quot;&gt;&lt;span style=&quot;background-color: initial;&quot;&gt;fb_1 : FlowBased3Nodes&lt;/span&gt;&lt;/div&gt;" style="text;strokeColor=none;fillColor=none;align=left;verticalAlign=middle;spacingLeft=4;spacingRight=4;overflow=hidden;points=[[0,0.5],[1,0.5]];portConstraint=eastwest;rotatable=0;whiteSpace=wrap;html=1;" vertex="1" parent="BXUiZ0yOkoqidZfhe6nn-43">
                    <mxGeometry y="90" width="320" height="30" as="geometry"/>
                </mxCell>
                <mxCell id="BXUiZ0yOkoqidZfhe6nn-48" value="e_1.flow_n l_1_2.flow_from" style="text;strokeColor=none;fillColor=none;align=left;verticalAlign=middle;spacingLeft=4;spacingRight=4;overflow=hidden;points=[[0,0.5],[1,0.5]];portConstraint=eastwest;rotatable=0;whiteSpace=wrap;html=1;" vertex="1" parent="BXUiZ0yOkoqidZfhe6nn-43">
                    <mxGeometry y="120" width="320" height="30" as="geometry"/>
                </mxCell>
                <mxCell id="BXUiZ0yOkoqidZfhe6nn-49" value="e_1.flow_n l_1_3.flow_from" style="text;strokeColor=none;fillColor=none;align=left;verticalAlign=middle;spacingLeft=4;spacingRight=4;overflow=hidden;points=[[0,0.5],[1,0.5]];portConstraint=eastwest;rotatable=0;whiteSpace=wrap;html=1;" vertex="1" parent="BXUiZ0yOkoqidZfhe6nn-43">
                    <mxGeometry y="150" width="320" height="30" as="geometry"/>
                </mxCell>
                <mxCell id="BXUiZ0yOkoqidZfhe6nn-50" value="e_2.flow_n l_1_2.flow_to" style="text;strokeColor=none;fillColor=none;align=left;verticalAlign=middle;spacingLeft=4;spacingRight=4;overflow=hidden;points=[[0,0.5],[1,0.5]];portConstraint=eastwest;rotatable=0;whiteSpace=wrap;html=1;" vertex="1" parent="BXUiZ0yOkoqidZfhe6nn-43">
                    <mxGeometry y="180" width="320" height="30" as="geometry"/>
                </mxCell>
                <mxCell id="BXUiZ0yOkoqidZfhe6nn-51" value="e_2.flow_n l_2_3.flow_from" style="text;strokeColor=none;fillColor=none;align=left;verticalAlign=middle;spacingLeft=4;spacingRight=4;overflow=hidden;points=[[0,0.5],[1,0.5]];portConstraint=eastwest;rotatable=0;whiteSpace=wrap;html=1;" vertex="1" parent="BXUiZ0yOkoqidZfhe6nn-43">
                    <mxGeometry y="210" width="320" height="30" as="geometry"/>
                </mxCell>
                <mxCell id="BXUiZ0yOkoqidZfhe6nn-52" value="e_3.flow_n l_1_3.flow_to" style="text;strokeColor=none;fillColor=none;align=left;verticalAlign=middle;spacingLeft=4;spacingRight=4;overflow=hidden;points=[[0,0.5],[1,0.5]];portConstraint=eastwest;rotatable=0;whiteSpace=wrap;html=1;" vertex="1" parent="BXUiZ0yOkoqidZfhe6nn-43">
                    <mxGeometry y="240" width="320" height="30" as="geometry"/>
                </mxCell>
                <mxCell id="BXUiZ0yOkoqidZfhe6nn-53" value="e_3.flow_n l_2_3.flow_to" style="text;strokeColor=none;fillColor=none;align=left;verticalAlign=middle;spacingLeft=4;spacingRight=4;overflow=hidden;points=[[0,0.5],[1,0.5]];portConstraint=eastwest;rotatable=0;whiteSpace=wrap;html=1;" vertex="1" parent="BXUiZ0yOkoqidZfhe6nn-43">
                    <mxGeometry y="270" width="320" height="30" as="geometry"/>
                </mxCell>
                <mxCell id="BXUiZ0yOkoqidZfhe6nn-54" value="fb_1.f_1 l_1_2.flow_from" style="text;strokeColor=none;fillColor=none;align=left;verticalAlign=middle;spacingLeft=4;spacingRight=4;overflow=hidden;points=[[0,0.5],[1,0.5]];portConstraint=eastwest;rotatable=0;whiteSpace=wrap;html=1;" vertex="1" parent="BXUiZ0yOkoqidZfhe6nn-43">
                    <mxGeometry y="300" width="320" height="30" as="geometry"/>
                </mxCell>
                <mxCell id="BXUiZ0yOkoqidZfhe6nn-55" value="fb_1.f_1&amp;nbsp;l_1_3.flow_from" style="text;strokeColor=none;fillColor=none;align=left;verticalAlign=middle;spacingLeft=4;spacingRight=4;overflow=hidden;points=[[0,0.5],[1,0.5]];portConstraint=eastwest;rotatable=0;whiteSpace=wrap;html=1;" vertex="1" parent="BXUiZ0yOkoqidZfhe6nn-43">
                    <mxGeometry y="330" width="320" height="30" as="geometry"/>
                </mxCell>
                <mxCell id="BXUiZ0yOkoqidZfhe6nn-56" value="fb_1.f_2 l_1_2.flow_to" style="text;strokeColor=none;fillColor=none;align=left;verticalAlign=middle;spacingLeft=4;spacingRight=4;overflow=hidden;points=[[0,0.5],[1,0.5]];portConstraint=eastwest;rotatable=0;whiteSpace=wrap;html=1;" vertex="1" parent="BXUiZ0yOkoqidZfhe6nn-43">
                    <mxGeometry y="360" width="320" height="30" as="geometry"/>
                </mxCell>
                <mxCell id="BXUiZ0yOkoqidZfhe6nn-57" value="fb_1.f_2 l_2_3.flow_from" style="text;strokeColor=none;fillColor=none;align=left;verticalAlign=middle;spacingLeft=4;spacingRight=4;overflow=hidden;points=[[0,0.5],[1,0.5]];portConstraint=eastwest;rotatable=0;whiteSpace=wrap;html=1;" vertex="1" parent="BXUiZ0yOkoqidZfhe6nn-43">
                    <mxGeometry y="390" width="320" height="30" as="geometry"/>
                </mxCell>
                <mxCell id="BXUiZ0yOkoqidZfhe6nn-58" value="fb_1.f_3 l_1_3.flow_to" style="text;strokeColor=none;fillColor=none;align=left;verticalAlign=middle;spacingLeft=4;spacingRight=4;overflow=hidden;points=[[0,0.5],[1,0.5]];portConstraint=eastwest;rotatable=0;whiteSpace=wrap;html=1;" vertex="1" parent="BXUiZ0yOkoqidZfhe6nn-43">
                    <mxGeometry y="420" width="320" height="30" as="geometry"/>
                </mxCell>
                <mxCell id="BXUiZ0yOkoqidZfhe6nn-59" value="fb_1.f_3 l_2_3.flow_to" style="text;strokeColor=none;fillColor=none;align=left;verticalAlign=middle;spacingLeft=4;spacingRight=4;overflow=hidden;points=[[0,0.5],[1,0.5]];portConstraint=eastwest;rotatable=0;whiteSpace=wrap;html=1;" vertex="1" parent="BXUiZ0yOkoqidZfhe6nn-43">
                    <mxGeometry y="450" width="320" height="30" as="geometry"/>
                </mxCell>
                <mxCell id="BXUiZ0yOkoqidZfhe6nn-63" value="&lt;h1&gt;Study data&lt;/h1&gt;" style="text;html=1;strokeColor=none;fillColor=none;spacing=5;spacingTop=-20;whiteSpace=wrap;overflow=hidden;rounded=0;align=center;" vertex="1" parent="BXUiZ0yOkoqidZfhe6nn-1">
                    <mxGeometry x="-16" y="400" width="250" height="40" as="geometry"/>
                </mxCell>
                <mxCell id="BXUiZ0yOkoqidZfhe6nn-64" value="&lt;font style=&quot;font-size: 32px;&quot;&gt;&lt;b&gt;Physical system&lt;br&gt;&lt;/b&gt;&lt;/font&gt;" style="text;html=1;strokeColor=none;fillColor=none;align=center;verticalAlign=middle;whiteSpace=wrap;rounded=0;" vertex="1" parent="BXUiZ0yOkoqidZfhe6nn-1">
                    <mxGeometry x="87" y="-260" width="380" height="120" as="geometry"/>
                </mxCell>
                <mxCell id="BXUiZ0yOkoqidZfhe6nn-65" value="min&amp;nbsp;&amp;nbsp;&lt;span style=&quot;&quot;&gt;&lt;/span&gt;production costs + balance costs&lt;br&gt;s.t.&amp;nbsp;&lt;span style=&quot;&quot;&gt;&amp;nbsp; a_1_i * net_pos_1 + a_2_i * net_pos_2 + a_3_i * net_pos_3 &amp;lt;= b_i forall i in 1,...,nb_constraints_flow_based&lt;/span&gt;&amp;nbsp; &amp;nbsp;&lt;br&gt;&lt;span style=&quot;&quot;&gt;&#9;&lt;/span&gt;&lt;span style=&quot;white-space: pre;&quot;&gt;&#9;&lt;/span&gt;production - consumption + energy_not_served - spillage + net_position = 0 for each node&lt;br&gt;&lt;span style=&quot;&quot;&gt;&#9;&lt;/span&gt;&lt;span style=&quot;white-space: pre;&quot;&gt;&#9;&lt;/span&gt;production constraints" style="text;html=1;strokeColor=#CCCCFF;fillColor=none;align=left;verticalAlign=middle;whiteSpace=wrap;rounded=0;dashed=1;dashPattern=1 1;strokeWidth=2;" vertex="1" parent="BXUiZ0yOkoqidZfhe6nn-1">
                    <mxGeometry x="-46" y="-130" width="620" height="70" as="geometry"/>
                </mxCell>
                <mxCell id="BXUiZ0yOkoqidZfhe6nn-66" value="&lt;i&gt;We represent a network with flow based constraints. Constraints are applied on net position of nodes. The number of constraints depends on time and scenario.&lt;/i&gt;" style="text;html=1;strokeColor=#FFCCCC;fillColor=none;align=left;verticalAlign=middle;whiteSpace=wrap;rounded=0;dashed=1;strokeWidth=2;" vertex="1" parent="BXUiZ0yOkoqidZfhe6nn-1">
                    <mxGeometry x="-80" y="-270" width="534" height="40" as="geometry"/>
                </mxCell>
                <mxCell id="BXUiZ0yOkoqidZfhe6nn-72" value="FlowBased3Nodes : Model" style="swimlane;fontStyle=0;childLayout=stackLayout;horizontal=1;startSize=30;horizontalStack=0;resizeParent=1;resizeParentMax=0;resizeLast=0;collapsible=1;marginBottom=0;whiteSpace=wrap;html=1;fillColor=#CCFFCC;" vertex="1" parent="BXUiZ0yOkoqidZfhe6nn-1">
                    <mxGeometry x="1131" y="-80" width="220" height="240" as="geometry"/>
                </mxCell>
                <mxCell id="BXUiZ0yOkoqidZfhe6nn-73" value="x_1, x_2, x_3 : Variable" style="text;strokeColor=none;fillColor=none;align=left;verticalAlign=middle;spacingLeft=4;spacingRight=4;overflow=hidden;points=[[0,0.5],[1,0.5]];portConstraint=eastwest;rotatable=0;whiteSpace=wrap;html=1;" vertex="1" parent="BXUiZ0yOkoqidZfhe6nn-72">
                    <mxGeometry y="30" width="220" height="30" as="geometry"/>
                </mxCell>
                <mxCell id="BXUiZ0yOkoqidZfhe6nn-74" value="a_1, a_2, a_3, b : Parameter" style="text;strokeColor=none;fillColor=none;align=left;verticalAlign=middle;spacingLeft=4;spacingRight=4;overflow=hidden;points=[[0,0.5],[1,0.5]];portConstraint=eastwest;rotatable=0;whiteSpace=wrap;html=1;" vertex="1" parent="BXUiZ0yOkoqidZfhe6nn-72">
                    <mxGeometry y="60" width="220" height="30" as="geometry"/>
                </mxCell>
                <mxCell id="BXUiZ0yOkoqidZfhe6nn-75" value="a_1*x_1 + a_2*x_2 + a_3*x_3 &amp;lt;= b" style="text;strokeColor=none;fillColor=none;align=left;verticalAlign=middle;spacingLeft=4;spacingRight=4;overflow=hidden;points=[[0,0.5],[1,0.5]];portConstraint=eastwest;rotatable=0;whiteSpace=wrap;html=1;" vertex="1" parent="BXUiZ0yOkoqidZfhe6nn-72">
                    <mxGeometry y="90" width="220" height="30" as="geometry"/>
                </mxCell>
                <mxCell id="BXUiZ0yOkoqidZfhe6nn-76" value="f_1, f_2, f_3 : Flow" style="text;strokeColor=none;fillColor=none;align=left;verticalAlign=middle;spacingLeft=4;spacingRight=4;overflow=hidden;points=[[0,0.5],[1,0.5]];portConstraint=eastwest;rotatable=0;whiteSpace=wrap;html=1;" vertex="1" parent="BXUiZ0yOkoqidZfhe6nn-72">
                    <mxGeometry y="120" width="220" height="30" as="geometry"/>
                </mxCell>
                <mxCell id="BXUiZ0yOkoqidZfhe6nn-77" value="f_1.f.sum() = x_1" style="text;strokeColor=none;fillColor=none;align=left;verticalAlign=middle;spacingLeft=4;spacingRight=4;overflow=hidden;points=[[0,0.5],[1,0.5]];portConstraint=eastwest;rotatable=0;whiteSpace=wrap;html=1;" vertex="1" parent="BXUiZ0yOkoqidZfhe6nn-72">
                    <mxGeometry y="150" width="220" height="30" as="geometry"/>
                </mxCell>
                <mxCell id="BXUiZ0yOkoqidZfhe6nn-78" value="f_3.f.sum() = x_3" style="text;strokeColor=none;fillColor=none;align=left;verticalAlign=middle;spacingLeft=4;spacingRight=4;overflow=hidden;points=[[0,0.5],[1,0.5]];portConstraint=eastwest;rotatable=0;whiteSpace=wrap;html=1;" vertex="1" parent="BXUiZ0yOkoqidZfhe6nn-72">
                    <mxGeometry y="180" width="220" height="30" as="geometry"/>
                </mxCell>
                <mxCell id="BXUiZ0yOkoqidZfhe6nn-79" value="f_2.f.sum() = x_2" style="text;strokeColor=none;fillColor=none;align=left;verticalAlign=middle;spacingLeft=4;spacingRight=4;overflow=hidden;points=[[0,0.5],[1,0.5]];portConstraint=eastwest;rotatable=0;whiteSpace=wrap;html=1;" vertex="1" parent="BXUiZ0yOkoqidZfhe6nn-72">
                    <mxGeometry y="210" width="220" height="30" as="geometry"/>
                </mxCell>
                <mxCell id="BXUiZ0yOkoqidZfhe6nn-95" value="" style="endArrow=classic;html=1;rounded=0;exitX=0.75;exitY=0;exitDx=0;exitDy=0;entryX=0;entryY=0.25;entryDx=0;entryDy=0;" edge="1" parent="BXUiZ0yOkoqidZfhe6nn-1" source="BXUiZ0yOkoqidZfhe6nn-23" target="BXUiZ0yOkoqidZfhe6nn-102">
                    <mxGeometry width="50" height="50" relative="1" as="geometry">
                        <mxPoint x="641" y="860" as="sourcePoint"/>
                        <mxPoint x="1165" y="605" as="targetPoint"/>
                    </mxGeometry>
                </mxCell>
                <mxCell id="BXUiZ0yOkoqidZfhe6nn-96" value="" style="endArrow=classic;html=1;rounded=0;exitX=0.75;exitY=0;exitDx=0;exitDy=0;entryX=0;entryY=0.25;entryDx=0;entryDy=0;" edge="1" parent="BXUiZ0yOkoqidZfhe6nn-1" source="BXUiZ0yOkoqidZfhe6nn-19" target="BXUiZ0yOkoqidZfhe6nn-103">
                    <mxGeometry width="50" height="50" relative="1" as="geometry">
                        <mxPoint x="806.73" y="860" as="sourcePoint"/>
                        <mxPoint x="1265" y="677.5" as="targetPoint"/>
                    </mxGeometry>
                </mxCell>
                <mxCell id="BXUiZ0yOkoqidZfhe6nn-97" value="" style="endArrow=classic;html=1;rounded=0;exitX=0.75;exitY=0;exitDx=0;exitDy=0;entryX=0;entryY=0.75;entryDx=0;entryDy=0;" edge="1" parent="BXUiZ0yOkoqidZfhe6nn-1" source="BXUiZ0yOkoqidZfhe6nn-28" target="BXUiZ0yOkoqidZfhe6nn-103">
                    <mxGeometry width="50" height="50" relative="1" as="geometry">
                        <mxPoint x="693.5" y="860" as="sourcePoint"/>
                        <mxPoint x="1265" y="692.5" as="targetPoint"/>
                    </mxGeometry>
                </mxCell>
                <mxCell id="BXUiZ0yOkoqidZfhe6nn-101" value="fb_1" style="ellipse;whiteSpace=wrap;html=1;aspect=fixed;fillColor=#FFCCE6;strokeColor=#82b366;" vertex="1" parent="BXUiZ0yOkoqidZfhe6nn-1">
                    <mxGeometry x="1520" y="550" width="80" height="80" as="geometry"/>
                </mxCell>
                <mxCell id="BXUiZ0yOkoqidZfhe6nn-102" value="f_1" style="rounded=0;whiteSpace=wrap;html=1;fillColor=#FFCCE6;strokeColor=#82b366;" vertex="1" parent="BXUiZ0yOkoqidZfhe6nn-1">
                    <mxGeometry x="1535" y="630" width="49" height="30" as="geometry"/>
                </mxCell>
                <mxCell id="BXUiZ0yOkoqidZfhe6nn-103" value="f_2" style="rounded=0;whiteSpace=wrap;html=1;fillColor=#FFCCE6;strokeColor=#82b366;" vertex="1" parent="BXUiZ0yOkoqidZfhe6nn-1">
                    <mxGeometry x="1535" y="660" width="49" height="30" as="geometry"/>
                </mxCell>
                <mxCell id="BXUiZ0yOkoqidZfhe6nn-104" value="f_3" style="rounded=0;whiteSpace=wrap;html=1;fillColor=#FFCCE6;strokeColor=#82b366;" vertex="1" parent="BXUiZ0yOkoqidZfhe6nn-1">
                    <mxGeometry x="1535" y="690" width="49" height="30" as="geometry"/>
                </mxCell>
            </root>
        </mxGraphModel>
    </diagram>
</mxfile>